<?xml version="1.0" encoding="utf-8"?>
<svg version="1.1" xmlns:xlink="http://www.w3.org/1999/xlink" width="23px" height="30px" xmlns="http://www.w3.org/2000/svg">
  <defs>
    <pattern id="BGPattern" patternUnits="userSpaceOnUse" alignment="0 0" imageRepeat="None" />
    <mask fill="white" id="Clip3">
      <path d="M 6.388888888888889 9.545454545454547  L 6.388888888888889 14  L 16.61111111111111 14  L 16.61111111111111 9.545454545454547  C 16.61111111111111 8.039772727272727  16.111979166666668 6.754261363636362  15.113715277777779 5.688920454545453  C 14.11545138888889 4.623579545454547  12.910879629629632 4.090909090909091  11.5 4.090909090909091  C 10.08912037037037 4.090909090909091  8.88454861111111 4.623579545454547  7.886284722222221 5.688920454545453  C 6.888020833333334 6.754261363636362  6.388888888888889 8.039772727272727  6.388888888888889 9.545454545454547  Z M 22.44097222222222 14.232954545454547  C 22.81365740740741 14.630681818181818  23 15.11363636363636  23 15.681818181818182  L 23 27.954545454545457  C 23 28.522727272727273  22.81365740740741 29.005681818181817  22.44097222222222 29.40340909090909  C 22.06828703703704 29.801136363636363  21.61574074074074 30  21.083333333333332 30  L 1.9166666666666665 30  C 1.3842592592592595 30  0.9317129629629631 29.801136363636363  0.5590277777777778 29.40340909090909  C 0.1863425925925926 29.005681818181817  0 28.522727272727273  0 27.954545454545457  L 0 15.681818181818182  C 0 15.11363636363636  0.1863425925925926 14.630681818181818  0.5590277777777778 14.232954545454547  C 0.9317129629629631 13.835227272727273  1.3842592592592595 13.636363636363637  1.9166666666666665 13.636363636363637  L 2.5555555555555554 13.636363636363637  L 2.5555555555555554 9.545454545454547  C 2.5555555555555554 6.931818181818179  3.4340277777777777 4.6875  5.190972222222222 2.8125  C 6.947916666666666 0.9375  9.050925925925927 0  11.5 0  C 13.949074074074074 0  16.052083333333332 0.9375  17.80902777777778 2.8125  C 19.56597222222222 4.6875  20.444444444444443 6.931818181818179  20.444444444444443 9.545454545454547  L 20.444444444444443 13.636363636363637  L 21.083333333333332 13.636363636363637  C 21.61574074074074 13.636363636363637  22.06828703703704 13.835227272727273  22.44097222222222 14.232954545454547  Z " fill-rule="evenodd" />
    </mask>
  </defs>
  <g transform="matrix(1 0 0 1 -45 -406 )">
    <path d="M 6.388888888888889 9.545454545454547  L 6.388888888888889 14  L 16.61111111111111 14  L 16.61111111111111 9.545454545454547  C 16.61111111111111 8.039772727272727  16.111979166666668 6.754261363636362  15.113715277777779 5.688920454545453  C 14.11545138888889 4.623579545454547  12.910879629629632 4.090909090909091  11.5 4.090909090909091  C 10.08912037037037 4.090909090909091  8.88454861111111 4.623579545454547  7.886284722222221 5.688920454545453  C 6.888020833333334 6.754261363636362  6.388888888888889 8.039772727272727  6.388888888888889 9.545454545454547  Z M 22.44097222222222 14.232954545454547  C 22.81365740740741 14.630681818181818  23 15.11363636363636  23 15.681818181818182  L 23 27.954545454545457  C 23 28.522727272727273  22.81365740740741 29.005681818181817  22.44097222222222 29.40340909090909  C 22.06828703703704 29.801136363636363  21.61574074074074 30  21.083333333333332 30  L 1.9166666666666665 30  C 1.3842592592592595 30  0.9317129629629631 29.801136363636363  0.5590277777777778 29.40340909090909  C 0.1863425925925926 29.005681818181817  0 28.522727272727273  0 27.954545454545457  L 0 15.681818181818182  C 0 15.11363636363636  0.1863425925925926 14.630681818181818  0.5590277777777778 14.232954545454547  C 0.9317129629629631 13.835227272727273  1.3842592592592595 13.636363636363637  1.9166666666666665 13.636363636363637  L 2.5555555555555554 13.636363636363637  L 2.5555555555555554 9.545454545454547  C 2.5555555555555554 6.931818181818179  3.4340277777777777 4.6875  5.190972222222222 2.8125  C 6.947916666666666 0.9375  9.050925925925927 0  11.5 0  C 13.949074074074074 0  16.052083333333332 0.9375  17.80902777777778 2.8125  C 19.56597222222222 4.6875  20.444444444444443 6.931818181818179  20.444444444444443 9.545454545454547  L 20.444444444444443 13.636363636363637  L 21.083333333333332 13.636363636363637  C 21.61574074074074 13.636363636363637  22.06828703703704 13.835227272727273  22.44097222222222 14.232954545454547  Z " fill-rule="nonzero" fill="rgba(85, 85, 85, 1)" stroke="none" transform="matrix(1 0 0 1 45 406 )" class="fill" />
    <path d="M 6.388888888888889 9.545454545454547  L 6.388888888888889 14  L 16.61111111111111 14  L 16.61111111111111 9.545454545454547  C 16.61111111111111 8.039772727272727  16.111979166666668 6.754261363636362  15.113715277777779 5.688920454545453  C 14.11545138888889 4.623579545454547  12.910879629629632 4.090909090909091  11.5 4.090909090909091  C 10.08912037037037 4.090909090909091  8.88454861111111 4.623579545454547  7.886284722222221 5.688920454545453  C 6.888020833333334 6.754261363636362  6.388888888888889 8.039772727272727  6.388888888888889 9.545454545454547  Z " stroke-width="0" stroke-dasharray="0" stroke="rgba(255, 255, 255, 0)" fill="none" transform="matrix(1 0 0 1 45 406 )" class="stroke" mask="url(#Clip3)" />
    <path d="M 22.44097222222222 14.232954545454547  C 22.81365740740741 14.630681818181818  23 15.11363636363636  23 15.681818181818182  L 23 27.954545454545457  C 23 28.522727272727273  22.81365740740741 29.005681818181817  22.44097222222222 29.40340909090909  C 22.06828703703704 29.801136363636363  21.61574074074074 30  21.083333333333332 30  L 1.9166666666666665 30  C 1.3842592592592595 30  0.9317129629629631 29.801136363636363  0.5590277777777778 29.40340909090909  C 0.1863425925925926 29.005681818181817  0 28.522727272727273  0 27.954545454545457  L 0 15.681818181818182  C 0 15.11363636363636  0.1863425925925926 14.630681818181818  0.5590277777777778 14.232954545454547  C 0.9317129629629631 13.835227272727273  1.3842592592592595 13.636363636363637  1.9166666666666665 13.636363636363637  L 2.5555555555555554 13.636363636363637  L 2.5555555555555554 9.545454545454547  C 2.5555555555555554 6.931818181818179  3.4340277777777777 4.6875  5.190972222222222 2.8125  C 6.947916666666666 0.9375  9.050925925925927 0  11.5 0  C 13.949074074074074 0  16.052083333333332 0.9375  17.80902777777778 2.8125  C 19.56597222222222 4.6875  20.444444444444443 6.931818181818179  20.444444444444443 9.545454545454547  L 20.444444444444443 13.636363636363637  L 21.083333333333332 13.636363636363637  C 21.61574074074074 13.636363636363637  22.06828703703704 13.835227272727273  22.44097222222222 14.232954545454547  Z " stroke-width="0" stroke-dasharray="0" stroke="rgba(255, 255, 255, 0)" fill="none" transform="matrix(1 0 0 1 45 406 )" class="stroke" mask="url(#Clip3)" />
  </g>
</svg>