<?xml version="1.0" encoding="utf-8"?>
<svg version="1.1" xmlns:xlink="http://www.w3.org/1999/xlink" width="29px" height="32px" xmlns="http://www.w3.org/2000/svg">
  <defs>
    <pattern id="BGPattern" patternUnits="userSpaceOnUse" alignment="0 0" imageRepeat="None" />
    <mask fill="white" id="Clip4">
      <path d="M 23.90234375 13.5625  C 24.12890625 13.3125  24.2421875 13  24.2421875 12.625  C 24.2421875 12.23611111111111  24.12890625 11.916666666666668  23.90234375 11.666666666666668  L 22.184244791666668 9.791666666666668  C 21.945095486111114 9.527777777777775  21.661892361111114 9.395833333333332  21.334635416666668 9.395833333333332  C 21.007378472222225 9.395833333333332  20.724175347222225 9.527777777777775  20.485026041666668 9.791666666666668  L 12.781901041666666 18.270833333333336  L 8.514973958333334 13.5625  C 8.275824652777779 13.29861111111111  7.992621527777778 13.166666666666668  7.665364583333334 13.166666666666668  C 7.33810763888889 13.166666666666668  7.054904513888889 13.29861111111111  6.815755208333333 13.5625  L 5.09765625 15.4375  C 4.87109375 15.6875  4.757812500000001 16.006944444444443  4.7578125 16.395833333333336  C 4.757812500000001 16.770833333333336  4.87109375 17.083333333333336  5.09765625 17.333333333333336  L 11.932291666666666 24.875  C 12.171440972222223 25.138888888888886  12.454644097222223 25.270833333333332  12.781901041666666 25.270833333333332  C 13.121744791666666 25.270833333333332  13.411241319444446 25.138888888888886  13.650390625 24.875  L 23.90234375 13.5625  Z M 27.055338541666668 7.96875  C 28.351779513888886 10.420138888888886  29 13.097222222222218  29 16  C 29 18.90277777777778  28.351779513888886 21.579861111111107  27.055338541666668 24.03125  C 25.758897569444446 26.48263888888889  23.999891493055557 28.42361111111111  21.7783203125 29.854166666666668  C 19.556749131944446 31.284722222222225  17.13064236111111 32  14.5 32  C 11.86935763888889 32  9.443250868055555 31.284722222222225  7.2216796875 29.854166666666668  C 5.000108506944445 28.42361111111111  3.241102430555556 26.48263888888889  1.9446614583333335 24.03125  C 0.648220486111111 21.579861111111107  0 18.90277777777778  0 16  C 0 13.097222222222218  0.648220486111111 10.420138888888886  1.9446614583333335 7.96875  C 3.241102430555556 5.517361111111111  5.000108506944445 3.5763888888888857  7.2216796875 2.145833333333332  C 9.443250868055555 0.715277777777775  11.86935763888889 0  14.5 0  C 17.13064236111111 0  19.556749131944446 0.715277777777775  21.7783203125 2.145833333333332  C 23.999891493055557 3.5763888888888857  25.758897569444446 5.517361111111111  27.055338541666668 7.96875  Z " fill-rule="evenodd" />
    </mask>
  </defs>
  <g transform="matrix(1 0 0 1 -42 -332 )">
    <path d="M 23.90234375 13.5625  C 24.12890625 13.3125  24.2421875 13  24.2421875 12.625  C 24.2421875 12.23611111111111  24.12890625 11.916666666666668  23.90234375 11.666666666666668  L 22.184244791666668 9.791666666666668  C 21.945095486111114 9.527777777777775  21.661892361111114 9.395833333333332  21.334635416666668 9.395833333333332  C 21.007378472222225 9.395833333333332  20.724175347222225 9.527777777777775  20.485026041666668 9.791666666666668  L 12.781901041666666 18.270833333333336  L 8.514973958333334 13.5625  C 8.275824652777779 13.29861111111111  7.992621527777778 13.166666666666668  7.665364583333334 13.166666666666668  C 7.33810763888889 13.166666666666668  7.054904513888889 13.29861111111111  6.815755208333333 13.5625  L 5.09765625 15.4375  C 4.87109375 15.6875  4.757812500000001 16.006944444444443  4.7578125 16.395833333333336  C 4.757812500000001 16.770833333333336  4.87109375 17.083333333333336  5.09765625 17.333333333333336  L 11.932291666666666 24.875  C 12.171440972222223 25.138888888888886  12.454644097222223 25.270833333333332  12.781901041666666 25.270833333333332  C 13.121744791666666 25.270833333333332  13.411241319444446 25.138888888888886  13.650390625 24.875  L 23.90234375 13.5625  Z M 27.055338541666668 7.96875  C 28.351779513888886 10.420138888888886  29 13.097222222222218  29 16  C 29 18.90277777777778  28.351779513888886 21.579861111111107  27.055338541666668 24.03125  C 25.758897569444446 26.48263888888889  23.999891493055557 28.42361111111111  21.7783203125 29.854166666666668  C 19.556749131944446 31.284722222222225  17.13064236111111 32  14.5 32  C 11.86935763888889 32  9.443250868055555 31.284722222222225  7.2216796875 29.854166666666668  C 5.000108506944445 28.42361111111111  3.241102430555556 26.48263888888889  1.9446614583333335 24.03125  C 0.648220486111111 21.579861111111107  0 18.90277777777778  0 16  C 0 13.097222222222218  0.648220486111111 10.420138888888886  1.9446614583333335 7.96875  C 3.241102430555556 5.517361111111111  5.000108506944445 3.5763888888888857  7.2216796875 2.145833333333332  C 9.443250868055555 0.715277777777775  11.86935763888889 0  14.5 0  C 17.13064236111111 0  19.556749131944446 0.715277777777775  21.7783203125 2.145833333333332  C 23.999891493055557 3.5763888888888857  25.758897569444446 5.517361111111111  27.055338541666668 7.96875  Z " fill-rule="nonzero" fill="rgba(85, 85, 85, 1)" stroke="none" transform="matrix(1 0 0 1 42 332 )" class="fill" />
    <path d="M 23.90234375 13.5625  C 24.12890625 13.3125  24.2421875 13  24.2421875 12.625  C 24.2421875 12.23611111111111  24.12890625 11.916666666666668  23.90234375 11.666666666666668  L 22.184244791666668 9.791666666666668  C 21.945095486111114 9.527777777777775  21.661892361111114 9.395833333333332  21.334635416666668 9.395833333333332  C 21.007378472222225 9.395833333333332  20.724175347222225 9.527777777777775  20.485026041666668 9.791666666666668  L 12.781901041666666 18.270833333333336  L 8.514973958333334 13.5625  C 8.275824652777779 13.29861111111111  7.992621527777778 13.166666666666668  7.665364583333334 13.166666666666668  C 7.33810763888889 13.166666666666668  7.054904513888889 13.29861111111111  6.815755208333333 13.5625  L 5.09765625 15.4375  C 4.87109375 15.6875  4.757812500000001 16.006944444444443  4.7578125 16.395833333333336  C 4.757812500000001 16.770833333333336  4.87109375 17.083333333333336  5.09765625 17.333333333333336  L 11.932291666666666 24.875  C 12.171440972222223 25.138888888888886  12.454644097222223 25.270833333333332  12.781901041666666 25.270833333333332  C 13.121744791666666 25.270833333333332  13.411241319444446 25.138888888888886  13.650390625 24.875  L 23.90234375 13.5625  Z " stroke-width="0" stroke-dasharray="0" stroke="rgba(255, 255, 255, 0)" fill="none" transform="matrix(1 0 0 1 42 332 )" class="stroke" mask="url(#Clip4)" />
    <path d="M 27.055338541666668 7.96875  C 28.351779513888886 10.420138888888886  29 13.097222222222218  29 16  C 29 18.90277777777778  28.351779513888886 21.579861111111107  27.055338541666668 24.03125  C 25.758897569444446 26.48263888888889  23.999891493055557 28.42361111111111  21.7783203125 29.854166666666668  C 19.556749131944446 31.284722222222225  17.13064236111111 32  14.5 32  C 11.86935763888889 32  9.443250868055555 31.284722222222225  7.2216796875 29.854166666666668  C 5.000108506944445 28.42361111111111  3.241102430555556 26.48263888888889  1.9446614583333335 24.03125  C 0.648220486111111 21.579861111111107  0 18.90277777777778  0 16  C 0 13.097222222222218  0.648220486111111 10.420138888888886  1.9446614583333335 7.96875  C 3.241102430555556 5.517361111111111  5.000108506944445 3.5763888888888857  7.2216796875 2.145833333333332  C 9.443250868055555 0.715277777777775  11.86935763888889 0  14.5 0  C 17.13064236111111 0  19.556749131944446 0.715277777777775  21.7783203125 2.145833333333332  C 23.999891493055557 3.5763888888888857  25.758897569444446 5.517361111111111  27.055338541666668 7.96875  Z " stroke-width="0" stroke-dasharray="0" stroke="rgba(255, 255, 255, 0)" fill="none" transform="matrix(1 0 0 1 42 332 )" class="stroke" mask="url(#Clip4)" />
  </g>
</svg>