<?xml version="1.0" encoding="utf-8"?>
<svg version="1.1" xmlns:xlink="http://www.w3.org/1999/xlink" width="14px" height="17px" xmlns="http://www.w3.org/2000/svg">
  <defs>
    <pattern id="BGPattern" patternUnits="userSpaceOnUse" alignment="0 0" imageRepeat="None" />
    <mask fill="white" id="Clip5">
      <path d="M 13.759450171821303 1.0220440881763524  C 13.91981672394044 1.1356045424181684  14 1.2661990647962562  14 1.4138276553106217  C 14 1.5614562458249819  13.91981672394044 1.69205076820307  13.759450171821303 1.8056112224448886  L 4.305841924398626 8.5  L 7.940855321902075 11.07406402482817  L 13.759450171821303 15.194388777555112  C 13.91981672394044 15.307949231796924  14 15.438543754175017  14 15.586172344689377  C 14 15.733800935203742  13.91981672394044 15.864395457581827  13.759450171821303 15.977955911823644  L 12.556701030927835 16.829659318637272  C 12.396334478808706 16.94321977287909  12.21191294387171 17  12.003436426116838 17  C 11.794959908361971 17  11.610538373424973 16.94321977287909  11.450171821305844 16.829659318637272  L 0.24054982817869447 8.89178356713427  C 0.08018327605956443 8.77822311289245  0 8.647628590514357  0 8.5  C 0 8.352371409485638  0.08018327605956443 8.221776887107549  0.24054982817869447 8.108216432865731  L 11.450171821305844 0.170340681362725  C 11.610538373424973 0.056780227120909174  11.794959908361971 0  12.003436426116838 0  C 12.21191294387171 0  12.396334478808706 0.056780227120909174  12.556701030927835 0.170340681362725  L 13.759450171821303 1.0220440881763524  Z " fill-rule="evenodd" />
    </mask>
  </defs>
  <g transform="matrix(1 0 0 1 -20 -31 )">
    <path d="M 13.759450171821303 1.0220440881763524  C 13.91981672394044 1.1356045424181684  14 1.2661990647962562  14 1.4138276553106217  C 14 1.5614562458249819  13.91981672394044 1.69205076820307  13.759450171821303 1.8056112224448886  L 4.305841924398626 8.5  L 7.940855321902075 11.07406402482817  L 13.759450171821303 15.194388777555112  C 13.91981672394044 15.307949231796924  14 15.438543754175017  14 15.586172344689377  C 14 15.733800935203742  13.91981672394044 15.864395457581827  13.759450171821303 15.977955911823644  L 12.556701030927835 16.829659318637272  C 12.396334478808706 16.94321977287909  12.21191294387171 17  12.003436426116838 17  C 11.794959908361971 17  11.610538373424973 16.94321977287909  11.450171821305844 16.829659318637272  L 0.24054982817869447 8.89178356713427  C 0.08018327605956443 8.77822311289245  0 8.647628590514357  0 8.5  C 0 8.352371409485638  0.08018327605956443 8.221776887107549  0.24054982817869447 8.108216432865731  L 11.450171821305844 0.170340681362725  C 11.610538373424973 0.056780227120909174  11.794959908361971 0  12.003436426116838 0  C 12.21191294387171 0  12.396334478808706 0.056780227120909174  12.556701030927835 0.170340681362725  L 13.759450171821303 1.0220440881763524  Z " fill-rule="nonzero" fill="rgba(0, 0, 0, 1)" stroke="none" transform="matrix(1 0 0 1 20 31 )" class="fill" />
    <path d="M 13.759450171821303 1.0220440881763524  C 13.91981672394044 1.1356045424181684  14 1.2661990647962562  14 1.4138276553106217  C 14 1.5614562458249819  13.91981672394044 1.69205076820307  13.759450171821303 1.8056112224448886  L 4.305841924398626 8.5  L 7.940855321902075 11.07406402482817  L 13.759450171821303 15.194388777555112  C 13.91981672394044 15.307949231796924  14 15.438543754175017  14 15.586172344689377  C 14 15.733800935203742  13.91981672394044 15.864395457581827  13.759450171821303 15.977955911823644  L 12.556701030927835 16.829659318637272  C 12.396334478808706 16.94321977287909  12.21191294387171 17  12.003436426116838 17  C 11.794959908361971 17  11.610538373424973 16.94321977287909  11.450171821305844 16.829659318637272  L 0.24054982817869447 8.89178356713427  C 0.08018327605956443 8.77822311289245  0 8.647628590514357  0 8.5  C 0 8.352371409485638  0.08018327605956443 8.221776887107549  0.24054982817869447 8.108216432865731  L 11.450171821305844 0.170340681362725  C 11.610538373424973 0.056780227120909174  11.794959908361971 0  12.003436426116838 0  C 12.21191294387171 0  12.396334478808706 0.056780227120909174  12.556701030927835 0.170340681362725  L 13.759450171821303 1.0220440881763524  Z " stroke-width="0" stroke-dasharray="0" stroke="rgba(255, 255, 255, 0)" fill="none" transform="matrix(1 0 0 1 20 31 )" class="stroke" mask="url(#Clip5)" />
  </g>
</svg>