<?xml version="1.0" encoding="utf-8"?>
<svg version="1.1" xmlns:xlink="http://www.w3.org/1999/xlink" width="31px" height="28px" xmlns="http://www.w3.org/2000/svg">
  <defs>
    <pattern id="BGPattern" patternUnits="userSpaceOnUse" alignment="0 0" imageRepeat="None" />
    <mask fill="white" id="Clip27">
      <path d="M 22.73102678571429 5.067423704755146  C 23.815104166666668 6.630707357463919  24.357142857142858 8.333096758930683  24.357142857142858 10.174591909155428  C 24.357142857142858 12.016087059380173  23.815104166666668 13.718476460846935  22.73102678571429 15.281760113555714  C 21.64694940476191 16.84504376626449  20.16787574404762 18.080435296900873  18.29380580357143 18.98793470546487  C 16.419735863095237 19.89543411402886  14.381324404761907 20.34918381831086  12.178571428571429 20.34918381831086  C 11.186755952380954 20.34918381831086  10.171875 20.24319848592382  9.133928571428571 20.031227821149756  C 7.703869047619048 21.197066477407144  6.100818452380953 22.04494913650343  4.324776785714286 22.574875798438608  C 3.909598214285714 22.694109297374027  3.4136904761904767 22.80009462976106  2.837053571428571 22.892831795599715  L 2.78515625 22.892831795599715  C 2.6582961309523814 22.892831795599715  2.5400855654761907 22.839839129406197  2.430524553571429 22.73385379701916  C 2.320963541666667 22.62786846463213  2.254650297619048 22.488762715874145  2.231584821428571 22.31653655074521  C 2.2200520833333335 22.27679205110007  2.214285714285714 22.233735509817837  2.214285714285714 22.187366926898513  C 2.214285714285714 22.140998343979184  2.217168898809524 22.097941802696948  2.222935267857143 22.05819730305181  C 2.228701636904762 22.01845280340667  2.240234375 21.978708303761536  2.257533482142857 21.938963804116394  L 2.30078125 21.83960255500355  C 2.30078125 21.83960255500355  2.320963541666667 21.80317009699551  2.361328125 21.730305180979418  C 2.4016927083333335 21.657440264963327  2.4247581845238098 21.624319848592386  2.430524553571429 21.630943931866575  C 2.436290922619048 21.63756801514076  2.4622395833333335 21.604447598769816  2.508370535714286 21.531582682753726  C 2.5545014880952386 21.458717766737635  2.577566964285714 21.428909392003785  2.577566964285714 21.442157558552164  C 2.6352306547619047 21.362668559261888  2.767857142857143 21.19706647740714  2.975446428571429 20.945351312987935  C 3.183035714285714 20.69363614856872  3.3329613095238098 20.498225691980128  3.425223214285714 20.359119943222144  C 3.517485119047619 20.22001419446416  3.647228422619048 20.027915779512654  3.814453125 19.782824698367637  C 3.981677827380953 19.537733617222614  4.125837053571428 19.28270641116631  4.246930803571428 19.017743080198724  C 4.368024553571428 18.75277974923113  4.4862351190476195 18.461320085166786  4.6015625 18.143364088005676  C 3.171502976190476 17.189496096522358  2.047061011904762 16.017033356990773  1.228236607142857 14.62597586941093  C 0.40941220238095233 13.234918381831086  0 11.751123728412583  0 10.174591909155428  C 0 8.333096758930683  0.5420386904761905 6.630707357463919  1.6261160714285714 5.067423704755146  C 2.7101934523809526 3.504140052046366  4.189267113095238 2.26874852140998  6.063337053571428 1.3612491128459911  C 7.9374069940476195 0.453749704281996  9.975818452380954 0  12.178571428571429 0  C 14.381324404761907 0  16.419735863095237 0.453749704281996  18.29380580357143 1.3612491128459911  C 20.16787574404762 2.26874852140998  21.64694940476191 3.504140052046366  22.73102678571429 5.067423704755146  Z M 29.70256696428571 10.691270404542228  C 30.56752232142857 12.108824225218829  31 13.63236337828247  31 15.261887863733143  C 31 16.85166784953868  30.59058779761905 18.338774544594273  29.771763392857142 19.723207948899926  C 28.95293898809524 21.107641353205587  27.82849702380953 22.27679205110007  26.3984375 23.230660042583395  C 26.51376488095238 23.5486160397445  26.63197544642857 23.84007570380885  26.75306919642857 24.105039034776436  C 26.874162946428577 24.370002365744025  27.01832217261905 24.625029571800333  27.185546875 24.870120652945353  C 27.352771577380953 25.11521173409037  27.482514880952383 25.30731014904187  27.57477678571429 25.446415897799856  C 27.667038690476193 25.58552164655784  27.816964285714292 25.78093210314644  28.02455357142857 26.03264726756565  C 28.23214285714286 26.28436243198486  28.3647693452381 26.449964513839603  28.42243303571429 26.52945351312988  C 28.43396577380953 26.542701679678263  28.457031250000004 26.572510054412113  28.49162946428571 26.61887863733144  C 28.526227678571434 26.665247220250766  28.552176339285715 26.698367636621718  28.56947544642857 26.718239886444287  C 28.586774553571434 26.738112136266857  28.60984002976191 26.771232552637805  28.638671875 26.817601135557133  C 28.667503720238095 26.863969718476458  28.687686011904766 26.900402176484505  28.69921875 26.926898509581264  L 28.742466517857142 27.02625975869411  C 28.742466517857142 27.02625975869411  28.753999255952383 27.066004258339248  28.777064732142858 27.145493257629525  C 28.800130208333336 27.2249822569198  28.803013392857142 27.268038798202035  28.78571428571429 27.274662881476225  C 28.76841517857143 27.28128696475041  28.762648809523814 27.324343506032648  28.76841517857143 27.403832505322924  C 28.73381696428571 27.589306837000237  28.658854166666668 27.735036669032414  28.54352678571429 27.841022001419446  C 28.42819940476191 27.947007333806482  28.30133928571429 27.99337591672581  28.16294642857143 27.98012775017743  C 27.58630952380953 27.887390584338775  27.090401785714292 27.78140525195174  26.67522321428571 27.662171753016324  C 24.89918154761905 27.132245091081145  23.296130952380953 26.28436243198486  21.86607142857143 25.118523775727468  C 20.828125 25.33049444050154  19.81324404761905 25.43647977288857  18.82142857142857 25.43647977288857  C 15.696056547619047 25.43647977288857  12.974330357142856 24.56210078069553  10.65625 22.813342796309442  C 11.32514880952381 22.86633546250296  11.832589285714285 22.892831795599715  12.178571428571429 22.892831795599715  C 14.035342261904763 22.892831795599715  15.817150297619047 22.594748048261177  17.52399553571429 21.9985805535841  C 19.230840773809526 21.402413058907026  20.753162202380953 20.54790631653655  22.09095982142857 19.435060326472676  C 23.532552083333336 18.216229004021763  24.639694940476193 16.81192334989354  25.412388392857142 15.222143364088007  C 26.18508184523809 13.63236337828247  26.57142857142857 11.949846226638275  26.57142857142857 10.174591909155428  C 26.57142857142857 9.15448308493021  26.438802083333332 8.14762242725337  26.173549107142858 7.15400993612491  C 27.66127232142857 8.094629761059851  28.837611607142858 9.273716583865625  29.70256696428571 10.691270404542228  Z " fill-rule="evenodd" />
    </mask>
  </defs>
  <g transform="matrix(1 0 0 1 -31 -249 )">
    <path d="M 22.73102678571429 5.067423704755146  C 23.815104166666668 6.630707357463919  24.357142857142858 8.333096758930683  24.357142857142858 10.174591909155428  C 24.357142857142858 12.016087059380173  23.815104166666668 13.718476460846935  22.73102678571429 15.281760113555714  C 21.64694940476191 16.84504376626449  20.16787574404762 18.080435296900873  18.29380580357143 18.98793470546487  C 16.419735863095237 19.89543411402886  14.381324404761907 20.34918381831086  12.178571428571429 20.34918381831086  C 11.186755952380954 20.34918381831086  10.171875 20.24319848592382  9.133928571428571 20.031227821149756  C 7.703869047619048 21.197066477407144  6.100818452380953 22.04494913650343  4.324776785714286 22.574875798438608  C 3.909598214285714 22.694109297374027  3.4136904761904767 22.80009462976106  2.837053571428571 22.892831795599715  L 2.78515625 22.892831795599715  C 2.6582961309523814 22.892831795599715  2.5400855654761907 22.839839129406197  2.430524553571429 22.73385379701916  C 2.320963541666667 22.62786846463213  2.254650297619048 22.488762715874145  2.231584821428571 22.31653655074521  C 2.2200520833333335 22.27679205110007  2.214285714285714 22.233735509817837  2.214285714285714 22.187366926898513  C 2.214285714285714 22.140998343979184  2.217168898809524 22.097941802696948  2.222935267857143 22.05819730305181  C 2.228701636904762 22.01845280340667  2.240234375 21.978708303761536  2.257533482142857 21.938963804116394  L 2.30078125 21.83960255500355  C 2.30078125 21.83960255500355  2.320963541666667 21.80317009699551  2.361328125 21.730305180979418  C 2.4016927083333335 21.657440264963327  2.4247581845238098 21.624319848592386  2.430524553571429 21.630943931866575  C 2.436290922619048 21.63756801514076  2.4622395833333335 21.604447598769816  2.508370535714286 21.531582682753726  C 2.5545014880952386 21.458717766737635  2.577566964285714 21.428909392003785  2.577566964285714 21.442157558552164  C 2.6352306547619047 21.362668559261888  2.767857142857143 21.19706647740714  2.975446428571429 20.945351312987935  C 3.183035714285714 20.69363614856872  3.3329613095238098 20.498225691980128  3.425223214285714 20.359119943222144  C 3.517485119047619 20.22001419446416  3.647228422619048 20.027915779512654  3.814453125 19.782824698367637  C 3.981677827380953 19.537733617222614  4.125837053571428 19.28270641116631  4.246930803571428 19.017743080198724  C 4.368024553571428 18.75277974923113  4.4862351190476195 18.461320085166786  4.6015625 18.143364088005676  C 3.171502976190476 17.189496096522358  2.047061011904762 16.017033356990773  1.228236607142857 14.62597586941093  C 0.40941220238095233 13.234918381831086  0 11.751123728412583  0 10.174591909155428  C 0 8.333096758930683  0.5420386904761905 6.630707357463919  1.6261160714285714 5.067423704755146  C 2.7101934523809526 3.504140052046366  4.189267113095238 2.26874852140998  6.063337053571428 1.3612491128459911  C 7.9374069940476195 0.453749704281996  9.975818452380954 0  12.178571428571429 0  C 14.381324404761907 0  16.419735863095237 0.453749704281996  18.29380580357143 1.3612491128459911  C 20.16787574404762 2.26874852140998  21.64694940476191 3.504140052046366  22.73102678571429 5.067423704755146  Z M 29.70256696428571 10.691270404542228  C 30.56752232142857 12.108824225218829  31 13.63236337828247  31 15.261887863733143  C 31 16.85166784953868  30.59058779761905 18.338774544594273  29.771763392857142 19.723207948899926  C 28.95293898809524 21.107641353205587  27.82849702380953 22.27679205110007  26.3984375 23.230660042583395  C 26.51376488095238 23.5486160397445  26.63197544642857 23.84007570380885  26.75306919642857 24.105039034776436  C 26.874162946428577 24.370002365744025  27.01832217261905 24.625029571800333  27.185546875 24.870120652945353  C 27.352771577380953 25.11521173409037  27.482514880952383 25.30731014904187  27.57477678571429 25.446415897799856  C 27.667038690476193 25.58552164655784  27.816964285714292 25.78093210314644  28.02455357142857 26.03264726756565  C 28.23214285714286 26.28436243198486  28.3647693452381 26.449964513839603  28.42243303571429 26.52945351312988  C 28.43396577380953 26.542701679678263  28.457031250000004 26.572510054412113  28.49162946428571 26.61887863733144  C 28.526227678571434 26.665247220250766  28.552176339285715 26.698367636621718  28.56947544642857 26.718239886444287  C 28.586774553571434 26.738112136266857  28.60984002976191 26.771232552637805  28.638671875 26.817601135557133  C 28.667503720238095 26.863969718476458  28.687686011904766 26.900402176484505  28.69921875 26.926898509581264  L 28.742466517857142 27.02625975869411  C 28.742466517857142 27.02625975869411  28.753999255952383 27.066004258339248  28.777064732142858 27.145493257629525  C 28.800130208333336 27.2249822569198  28.803013392857142 27.268038798202035  28.78571428571429 27.274662881476225  C 28.76841517857143 27.28128696475041  28.762648809523814 27.324343506032648  28.76841517857143 27.403832505322924  C 28.73381696428571 27.589306837000237  28.658854166666668 27.735036669032414  28.54352678571429 27.841022001419446  C 28.42819940476191 27.947007333806482  28.30133928571429 27.99337591672581  28.16294642857143 27.98012775017743  C 27.58630952380953 27.887390584338775  27.090401785714292 27.78140525195174  26.67522321428571 27.662171753016324  C 24.89918154761905 27.132245091081145  23.296130952380953 26.28436243198486  21.86607142857143 25.118523775727468  C 20.828125 25.33049444050154  19.81324404761905 25.43647977288857  18.82142857142857 25.43647977288857  C 15.696056547619047 25.43647977288857  12.974330357142856 24.56210078069553  10.65625 22.813342796309442  C 11.32514880952381 22.86633546250296  11.832589285714285 22.892831795599715  12.178571428571429 22.892831795599715  C 14.035342261904763 22.892831795599715  15.817150297619047 22.594748048261177  17.52399553571429 21.9985805535841  C 19.230840773809526 21.402413058907026  20.753162202380953 20.54790631653655  22.09095982142857 19.435060326472676  C 23.532552083333336 18.216229004021763  24.639694940476193 16.81192334989354  25.412388392857142 15.222143364088007  C 26.18508184523809 13.63236337828247  26.57142857142857 11.949846226638275  26.57142857142857 10.174591909155428  C 26.57142857142857 9.15448308493021  26.438802083333332 8.14762242725337  26.173549107142858 7.15400993612491  C 27.66127232142857 8.094629761059851  28.837611607142858 9.273716583865625  29.70256696428571 10.691270404542228  Z " fill-rule="nonzero" fill="rgba(0, 0, 0, 1)" stroke="none" transform="matrix(1 0 0 1 31 249 )" class="fill" />
    <path d="M 22.73102678571429 5.067423704755146  C 23.815104166666668 6.630707357463919  24.357142857142858 8.333096758930683  24.357142857142858 10.174591909155428  C 24.357142857142858 12.016087059380173  23.815104166666668 13.718476460846935  22.73102678571429 15.281760113555714  C 21.64694940476191 16.84504376626449  20.16787574404762 18.080435296900873  18.29380580357143 18.98793470546487  C 16.419735863095237 19.89543411402886  14.381324404761907 20.34918381831086  12.178571428571429 20.34918381831086  C 11.186755952380954 20.34918381831086  10.171875 20.24319848592382  9.133928571428571 20.031227821149756  C 7.703869047619048 21.197066477407144  6.100818452380953 22.04494913650343  4.324776785714286 22.574875798438608  C 3.909598214285714 22.694109297374027  3.4136904761904767 22.80009462976106  2.837053571428571 22.892831795599715  L 2.78515625 22.892831795599715  C 2.6582961309523814 22.892831795599715  2.5400855654761907 22.839839129406197  2.430524553571429 22.73385379701916  C 2.320963541666667 22.62786846463213  2.254650297619048 22.488762715874145  2.231584821428571 22.31653655074521  C 2.2200520833333335 22.27679205110007  2.214285714285714 22.233735509817837  2.214285714285714 22.187366926898513  C 2.214285714285714 22.140998343979184  2.217168898809524 22.097941802696948  2.222935267857143 22.05819730305181  C 2.228701636904762 22.01845280340667  2.240234375 21.978708303761536  2.257533482142857 21.938963804116394  L 2.30078125 21.83960255500355  C 2.30078125 21.83960255500355  2.320963541666667 21.80317009699551  2.361328125 21.730305180979418  C 2.4016927083333335 21.657440264963327  2.4247581845238098 21.624319848592386  2.430524553571429 21.630943931866575  C 2.436290922619048 21.63756801514076  2.4622395833333335 21.604447598769816  2.508370535714286 21.531582682753726  C 2.5545014880952386 21.458717766737635  2.577566964285714 21.428909392003785  2.577566964285714 21.442157558552164  C 2.6352306547619047 21.362668559261888  2.767857142857143 21.19706647740714  2.975446428571429 20.945351312987935  C 3.183035714285714 20.69363614856872  3.3329613095238098 20.498225691980128  3.425223214285714 20.359119943222144  C 3.517485119047619 20.22001419446416  3.647228422619048 20.027915779512654  3.814453125 19.782824698367637  C 3.981677827380953 19.537733617222614  4.125837053571428 19.28270641116631  4.246930803571428 19.017743080198724  C 4.368024553571428 18.75277974923113  4.4862351190476195 18.461320085166786  4.6015625 18.143364088005676  C 3.171502976190476 17.189496096522358  2.047061011904762 16.017033356990773  1.228236607142857 14.62597586941093  C 0.40941220238095233 13.234918381831086  0 11.751123728412583  0 10.174591909155428  C 0 8.333096758930683  0.5420386904761905 6.630707357463919  1.6261160714285714 5.067423704755146  C 2.7101934523809526 3.504140052046366  4.189267113095238 2.26874852140998  6.063337053571428 1.3612491128459911  C 7.9374069940476195 0.453749704281996  9.975818452380954 0  12.178571428571429 0  C 14.381324404761907 0  16.419735863095237 0.453749704281996  18.29380580357143 1.3612491128459911  C 20.16787574404762 2.26874852140998  21.64694940476191 3.504140052046366  22.73102678571429 5.067423704755146  Z " stroke-width="0" stroke-dasharray="0" stroke="rgba(255, 255, 255, 0)" fill="none" transform="matrix(1 0 0 1 31 249 )" class="stroke" mask="url(#Clip27)" />
    <path d="M 29.70256696428571 10.691270404542228  C 30.56752232142857 12.108824225218829  31 13.63236337828247  31 15.261887863733143  C 31 16.85166784953868  30.59058779761905 18.338774544594273  29.771763392857142 19.723207948899926  C 28.95293898809524 21.107641353205587  27.82849702380953 22.27679205110007  26.3984375 23.230660042583395  C 26.51376488095238 23.5486160397445  26.63197544642857 23.84007570380885  26.75306919642857 24.105039034776436  C 26.874162946428577 24.370002365744025  27.01832217261905 24.625029571800333  27.185546875 24.870120652945353  C 27.352771577380953 25.11521173409037  27.482514880952383 25.30731014904187  27.57477678571429 25.446415897799856  C 27.667038690476193 25.58552164655784  27.816964285714292 25.78093210314644  28.02455357142857 26.03264726756565  C 28.23214285714286 26.28436243198486  28.3647693452381 26.449964513839603  28.42243303571429 26.52945351312988  C 28.43396577380953 26.542701679678263  28.457031250000004 26.572510054412113  28.49162946428571 26.61887863733144  C 28.526227678571434 26.665247220250766  28.552176339285715 26.698367636621718  28.56947544642857 26.718239886444287  C 28.586774553571434 26.738112136266857  28.60984002976191 26.771232552637805  28.638671875 26.817601135557133  C 28.667503720238095 26.863969718476458  28.687686011904766 26.900402176484505  28.69921875 26.926898509581264  L 28.742466517857142 27.02625975869411  C 28.742466517857142 27.02625975869411  28.753999255952383 27.066004258339248  28.777064732142858 27.145493257629525  C 28.800130208333336 27.2249822569198  28.803013392857142 27.268038798202035  28.78571428571429 27.274662881476225  C 28.76841517857143 27.28128696475041  28.762648809523814 27.324343506032648  28.76841517857143 27.403832505322924  C 28.73381696428571 27.589306837000237  28.658854166666668 27.735036669032414  28.54352678571429 27.841022001419446  C 28.42819940476191 27.947007333806482  28.30133928571429 27.99337591672581  28.16294642857143 27.98012775017743  C 27.58630952380953 27.887390584338775  27.090401785714292 27.78140525195174  26.67522321428571 27.662171753016324  C 24.89918154761905 27.132245091081145  23.296130952380953 26.28436243198486  21.86607142857143 25.118523775727468  C 20.828125 25.33049444050154  19.81324404761905 25.43647977288857  18.82142857142857 25.43647977288857  C 15.696056547619047 25.43647977288857  12.974330357142856 24.56210078069553  10.65625 22.813342796309442  C 11.32514880952381 22.86633546250296  11.832589285714285 22.892831795599715  12.178571428571429 22.892831795599715  C 14.035342261904763 22.892831795599715  15.817150297619047 22.594748048261177  17.52399553571429 21.9985805535841  C 19.230840773809526 21.402413058907026  20.753162202380953 20.54790631653655  22.09095982142857 19.435060326472676  C 23.532552083333336 18.216229004021763  24.639694940476193 16.81192334989354  25.412388392857142 15.222143364088007  C 26.18508184523809 13.63236337828247  26.57142857142857 11.949846226638275  26.57142857142857 10.174591909155428  C 26.57142857142857 9.15448308493021  26.438802083333332 8.14762242725337  26.173549107142858 7.15400993612491  C 27.66127232142857 8.094629761059851  28.837611607142858 9.273716583865625  29.70256696428571 10.691270404542228  Z " stroke-width="0" stroke-dasharray="0" stroke="rgba(255, 255, 255, 0)" fill="none" transform="matrix(1 0 0 1 31 249 )" class="stroke" mask="url(#Clip27)" />
  </g>
</svg>