<?xml version="1.0" encoding="utf-8"?>
<svg version="1.1" xmlns:xlink="http://www.w3.org/1999/xlink" width="31px" height="28px" xmlns="http://www.w3.org/2000/svg">
  <defs>
    <pattern id="BGPattern" patternUnits="userSpaceOnUse" alignment="0 0" imageRepeat="None" />
    <mask fill="white" id="Clip28">
      <path d="M 12.613520408163266 25.6046875  C 12.600340136054422 25.684895833333336  12.613520408163266 25.783333333333335  12.653061224489797 25.900000000000002  C 12.653061224489797 25.958333333333336  12.659651360544219 26.104166666666664  12.672831632653061 26.337500000000002  C 12.686011904761907 26.570833333333333  12.689306972789117 26.764062499999998  12.682716836734695 26.9171875  C 12.676126700680275 27.0703125  12.656356292517009 27.241666666666667  12.623405612244898 27.431250000000002  C 12.59045493197279 27.620833333333337  12.524553571428571 27.763020833333336  12.425701530612246 27.857812499999998  C 12.326849489795919 27.952604166666667  12.191751700680275 28  12.020408163265305 28  L 5.6938775510204085 28  C 4.125425170068028 28  2.7843324829931975 27.383854166666666  1.6705994897959184 26.1515625  C 0.5568664965986394 24.919270833333336  0 23.435416666666665  0 21.7  L 0 6.299999999999999  C 0 4.564583333333329  0.5568664965986394 3.0807291666666656  1.6705994897959184 1.8484375000000006  C 2.7843324829931975 0.6161458333333294  4.125425170068028 0  5.6938775510204085 0  L 12.020408163265305 0  C 12.191751700680275 0  12.340029761904763 0.0692708333333294  12.465242346938776 0.20781250000000062  C 12.59045493197279 0.34635416666666563  12.653061224489797 0.5104166666666656  12.653061224489797 0.7000000000000006  C 12.653061224489797 0.7583333333333306  12.659651360544219 0.904166666666665  12.672831632653061 1.1375000000000006  C 12.686011904761907 1.37083333333333  12.689306972789117 1.5640625000000012  12.682716836734695 1.7171874999999988  C 12.676126700680275 1.8703124999999994  12.656356292517009 2.0416666666666656  12.623405612244898 2.2312500000000006  C 12.59045493197279 2.4208333333333294  12.524553571428571 2.5630208333333306  12.425701530612246 2.6578125000000012  C 12.326849489795919 2.7526041666666656  12.191751700680275 2.7999999999999994  12.020408163265305 2.7999999999999994  L 5.6938775510204085 2.7999999999999994  C 4.823979591836735 2.7999999999999994  4.0792942176870755 3.1427083333333288  3.459821428571429 3.828125  C 2.8403486394557826 4.513541666666665  2.530612244897959 5.337500000000001  3 6.299999999999999  L 3 21.7  C 2.530612244897959 22.662499999999998  2.8403486394557826 23.486458333333328  3.459821428571429 24.171875  C 4.0792942176870755 24.857291666666665  4.823979591836735 25.2  5.6938775510204085 25.2  L 11.387755102040817 25.2  L 11.605229591836734 25.2  L 11.862244897959183 25.2  C 11.862244897959183 25.2  11.938031462585036 25.207291666666663  12.089604591836734 25.221875  C 12.241177721088436 25.236458333333335  12.316964285714285 25.258333333333333  12.316964285714285 25.287499999999998  C 12.316964285714285 25.316666666666663  12.369685374149661 25.356770833333336  12.475127551020407 25.407812500000002  C 12.580569727891158 25.458854166666665  12.62670068027211 25.524479166666666  12.613520408163266 25.6046875  Z M 30.62436224489796 13.015625  C 30.874787414965986 13.292708333333334  31 13.620833333333334  31 14  C 31 14.379166666666663  30.874787414965986 14.707291666666663  30.62436224489796 14.984375  L 19.869260204081634 26.884375000000002  C 19.618835034013607 27.161458333333336  19.322278911564627 27.3  18.979591836734695 27.3  C 18.636904761904766 27.3  18.340348639455783 27.161458333333336  18.089923469387756 26.884375000000002  C 17.83949829931973 26.607291666666665  17.71428571428571 26.279166666666665  17.71428571428571 25.900000000000002  L 17.71428571428571 19.599999999999998  L 8.857142857142856 19.599999999999998  C 8.514455782312925 19.599999999999998  8.217899659863946 19.461458333333333  7.967474489795919 19.184375  C 7.717049319727891 18.907291666666666  7.591836734693877 18.579166666666666  7.591836734693877 18.2  L 7.591836734693877 9.799999999999999  C 7.591836734693877 9.420833333333329  7.717049319727891 9.092708333333329  7.967474489795919 8.815624999999999  C 8.217899659863946 8.538541666666667  8.514455782312925 8.400000000000002  8.857142857142856 8.400000000000002  L 17.71428571428571 8.400000000000002  L 17.71428571428571 2.0999999999999988  C 17.71428571428571 1.7208333333333288  17.83949829931973 1.3927083333333288  18.089923469387756 1.1156249999999988  C 18.340348639455783 0.8385416666666656  18.636904761904766 0.7000000000000006  18.979591836734695 0.7000000000000006  C 19.322278911564627 0.7000000000000006  19.618835034013607 0.8385416666666656  19.869260204081634 1.1156249999999988  L 30.62436224489796 13.015625  Z " fill-rule="evenodd" />
    </mask>
  </defs>
  <g transform="matrix(1 0 0 1 -292 -59 )">
    <path d="M 12.613520408163266 25.6046875  C 12.600340136054422 25.684895833333336  12.613520408163266 25.783333333333335  12.653061224489797 25.900000000000002  C 12.653061224489797 25.958333333333336  12.659651360544219 26.104166666666664  12.672831632653061 26.337500000000002  C 12.686011904761907 26.570833333333333  12.689306972789117 26.764062499999998  12.682716836734695 26.9171875  C 12.676126700680275 27.0703125  12.656356292517009 27.241666666666667  12.623405612244898 27.431250000000002  C 12.59045493197279 27.620833333333337  12.524553571428571 27.763020833333336  12.425701530612246 27.857812499999998  C 12.326849489795919 27.952604166666667  12.191751700680275 28  12.020408163265305 28  L 5.6938775510204085 28  C 4.125425170068028 28  2.7843324829931975 27.383854166666666  1.6705994897959184 26.1515625  C 0.5568664965986394 24.919270833333336  0 23.435416666666665  0 21.7  L 0 6.299999999999999  C 0 4.564583333333329  0.5568664965986394 3.0807291666666656  1.6705994897959184 1.8484375000000006  C 2.7843324829931975 0.6161458333333294  4.125425170068028 0  5.6938775510204085 0  L 12.020408163265305 0  C 12.191751700680275 0  12.340029761904763 0.0692708333333294  12.465242346938776 0.20781250000000062  C 12.59045493197279 0.34635416666666563  12.653061224489797 0.5104166666666656  12.653061224489797 0.7000000000000006  C 12.653061224489797 0.7583333333333306  12.659651360544219 0.904166666666665  12.672831632653061 1.1375000000000006  C 12.686011904761907 1.37083333333333  12.689306972789117 1.5640625000000012  12.682716836734695 1.7171874999999988  C 12.676126700680275 1.8703124999999994  12.656356292517009 2.0416666666666656  12.623405612244898 2.2312500000000006  C 12.59045493197279 2.4208333333333294  12.524553571428571 2.5630208333333306  12.425701530612246 2.6578125000000012  C 12.326849489795919 2.7526041666666656  12.191751700680275 2.7999999999999994  12.020408163265305 2.7999999999999994  L 5.6938775510204085 2.7999999999999994  C 4.823979591836735 2.7999999999999994  4.0792942176870755 3.1427083333333288  3.459821428571429 3.828125  C 2.8403486394557826 4.513541666666665  2.530612244897959 5.337500000000001  3 6.299999999999999  L 3 21.7  C 2.530612244897959 22.662499999999998  2.8403486394557826 23.486458333333328  3.459821428571429 24.171875  C 4.0792942176870755 24.857291666666665  4.823979591836735 25.2  5.6938775510204085 25.2  L 11.387755102040817 25.2  L 11.605229591836734 25.2  L 11.862244897959183 25.2  C 11.862244897959183 25.2  11.938031462585036 25.207291666666663  12.089604591836734 25.221875  C 12.241177721088436 25.236458333333335  12.316964285714285 25.258333333333333  12.316964285714285 25.287499999999998  C 12.316964285714285 25.316666666666663  12.369685374149661 25.356770833333336  12.475127551020407 25.407812500000002  C 12.580569727891158 25.458854166666665  12.62670068027211 25.524479166666666  12.613520408163266 25.6046875  Z M 30.62436224489796 13.015625  C 30.874787414965986 13.292708333333334  31 13.620833333333334  31 14  C 31 14.379166666666663  30.874787414965986 14.707291666666663  30.62436224489796 14.984375  L 19.869260204081634 26.884375000000002  C 19.618835034013607 27.161458333333336  19.322278911564627 27.3  18.979591836734695 27.3  C 18.636904761904766 27.3  18.340348639455783 27.161458333333336  18.089923469387756 26.884375000000002  C 17.83949829931973 26.607291666666665  17.71428571428571 26.279166666666665  17.71428571428571 25.900000000000002  L 17.71428571428571 19.599999999999998  L 8.857142857142856 19.599999999999998  C 8.514455782312925 19.599999999999998  8.217899659863946 19.461458333333333  7.967474489795919 19.184375  C 7.717049319727891 18.907291666666666  7.591836734693877 18.579166666666666  7.591836734693877 18.2  L 7.591836734693877 9.799999999999999  C 7.591836734693877 9.420833333333329  7.717049319727891 9.092708333333329  7.967474489795919 8.815624999999999  C 8.217899659863946 8.538541666666667  8.514455782312925 8.400000000000002  8.857142857142856 8.400000000000002  L 17.71428571428571 8.400000000000002  L 17.71428571428571 2.0999999999999988  C 17.71428571428571 1.7208333333333288  17.83949829931973 1.3927083333333288  18.089923469387756 1.1156249999999988  C 18.340348639455783 0.8385416666666656  18.636904761904766 0.7000000000000006  18.979591836734695 0.7000000000000006  C 19.322278911564627 0.7000000000000006  19.618835034013607 0.8385416666666656  19.869260204081634 1.1156249999999988  L 30.62436224489796 13.015625  Z " fill-rule="nonzero" fill="rgba(0, 0, 0, 1)" stroke="none" transform="matrix(1 0 0 1 292 59 )" class="fill" />
    <path d="M 12.613520408163266 25.6046875  C 12.600340136054422 25.684895833333336  12.613520408163266 25.783333333333335  12.653061224489797 25.900000000000002  C 12.653061224489797 25.958333333333336  12.659651360544219 26.104166666666664  12.672831632653061 26.337500000000002  C 12.686011904761907 26.570833333333333  12.689306972789117 26.764062499999998  12.682716836734695 26.9171875  C 12.676126700680275 27.0703125  12.656356292517009 27.241666666666667  12.623405612244898 27.431250000000002  C 12.59045493197279 27.620833333333337  12.524553571428571 27.763020833333336  12.425701530612246 27.857812499999998  C 12.326849489795919 27.952604166666667  12.191751700680275 28  12.020408163265305 28  L 5.6938775510204085 28  C 4.125425170068028 28  2.7843324829931975 27.383854166666666  1.6705994897959184 26.1515625  C 0.5568664965986394 24.919270833333336  0 23.435416666666665  0 21.7  L 0 6.299999999999999  C 0 4.564583333333329  0.5568664965986394 3.0807291666666656  1.6705994897959184 1.8484375000000006  C 2.7843324829931975 0.6161458333333294  4.125425170068028 0  5.6938775510204085 0  L 12.020408163265305 0  C 12.191751700680275 0  12.340029761904763 0.0692708333333294  12.465242346938776 0.20781250000000062  C 12.59045493197279 0.34635416666666563  12.653061224489797 0.5104166666666656  12.653061224489797 0.7000000000000006  C 12.653061224489797 0.7583333333333306  12.659651360544219 0.904166666666665  12.672831632653061 1.1375000000000006  C 12.686011904761907 1.37083333333333  12.689306972789117 1.5640625000000012  12.682716836734695 1.7171874999999988  C 12.676126700680275 1.8703124999999994  12.656356292517009 2.0416666666666656  12.623405612244898 2.2312500000000006  C 12.59045493197279 2.4208333333333294  12.524553571428571 2.5630208333333306  12.425701530612246 2.6578125000000012  C 12.326849489795919 2.7526041666666656  12.191751700680275 2.7999999999999994  12.020408163265305 2.7999999999999994  L 5.6938775510204085 2.7999999999999994  C 4.823979591836735 2.7999999999999994  4.0792942176870755 3.1427083333333288  3.459821428571429 3.828125  C 2.8403486394557826 4.513541666666665  2.530612244897959 5.337500000000001  3 6.299999999999999  L 3 21.7  C 2.530612244897959 22.662499999999998  2.8403486394557826 23.486458333333328  3.459821428571429 24.171875  C 4.0792942176870755 24.857291666666665  4.823979591836735 25.2  5.6938775510204085 25.2  L 11.387755102040817 25.2  L 11.605229591836734 25.2  L 11.862244897959183 25.2  C 11.862244897959183 25.2  11.938031462585036 25.207291666666663  12.089604591836734 25.221875  C 12.241177721088436 25.236458333333335  12.316964285714285 25.258333333333333  12.316964285714285 25.287499999999998  C 12.316964285714285 25.316666666666663  12.369685374149661 25.356770833333336  12.475127551020407 25.407812500000002  C 12.580569727891158 25.458854166666665  12.62670068027211 25.524479166666666  12.613520408163266 25.6046875  Z " stroke-width="0" stroke-dasharray="0" stroke="rgba(255, 255, 255, 0)" fill="none" transform="matrix(1 0 0 1 292 59 )" class="stroke" mask="url(#Clip28)" />
    <path d="M 30.62436224489796 13.015625  C 30.874787414965986 13.292708333333334  31 13.620833333333334  31 14  C 31 14.379166666666663  30.874787414965986 14.707291666666663  30.62436224489796 14.984375  L 19.869260204081634 26.884375000000002  C 19.618835034013607 27.161458333333336  19.322278911564627 27.3  18.979591836734695 27.3  C 18.636904761904766 27.3  18.340348639455783 27.161458333333336  18.089923469387756 26.884375000000002  C 17.83949829931973 26.607291666666665  17.71428571428571 26.279166666666665  17.71428571428571 25.900000000000002  L 17.71428571428571 19.599999999999998  L 8.857142857142856 19.599999999999998  C 8.514455782312925 19.599999999999998  8.217899659863946 19.461458333333333  7.967474489795919 19.184375  C 7.717049319727891 18.907291666666666  7.591836734693877 18.579166666666666  7.591836734693877 18.2  L 7.591836734693877 9.799999999999999  C 7.591836734693877 9.420833333333329  7.717049319727891 9.092708333333329  7.967474489795919 8.815624999999999  C 8.217899659863946 8.538541666666667  8.514455782312925 8.400000000000002  8.857142857142856 8.400000000000002  L 17.71428571428571 8.400000000000002  L 17.71428571428571 2.0999999999999988  C 17.71428571428571 1.7208333333333288  17.83949829931973 1.3927083333333288  18.089923469387756 1.1156249999999988  C 18.340348639455783 0.8385416666666656  18.636904761904766 0.7000000000000006  18.979591836734695 0.7000000000000006  C 19.322278911564627 0.7000000000000006  19.618835034013607 0.8385416666666656  19.869260204081634 1.1156249999999988  L 30.62436224489796 13.015625  Z " stroke-width="0" stroke-dasharray="0" stroke="rgba(255, 255, 255, 0)" fill="none" transform="matrix(1 0 0 1 292 59 )" class="stroke" mask="url(#Clip28)" />
  </g>
</svg>