<?xml version="1.0" encoding="utf-8"?>
<svg version="1.1" xmlns:xlink="http://www.w3.org/1999/xlink" width="30px" height="29px" xmlns="http://www.w3.org/2000/svg">
  <defs>
    <pattern id="BGPattern" patternUnits="userSpaceOnUse" alignment="0 0" imageRepeat="None" />
    <mask fill="white" id="Clip29">
      <path d="M 17.01171875 19.805338541666664  C 17.12890625 19.918619791666664  17.1875 20.063368055555554  17.1875 20.239583333333336  L 17.1875 23.260416666666668  C 17.1875 23.436631944444443  17.12890625 23.581380208333332  17.01171875 23.694661458333332  C 16.89453125 23.807942708333332  16.744791666666668 23.864583333333332  16.5625 23.864583333333332  L 13.4375 23.864583333333332  C 13.255208333333336 23.864583333333332  13.10546875 23.807942708333332  12.98828125 23.694661458333332  C 12.87109375 23.581380208333332  12.8125 23.436631944444443  12.8125 23.260416666666668  L 12.8125 20.239583333333336  C 12.8125 20.063368055555554  12.87109375 19.918619791666664  12.98828125 19.805338541666664  C 13.10546875 19.692057291666664  13.255208333333336 19.635416666666664  13.4375 19.635416666666664  L 16.5625 19.635416666666664  C 16.744791666666668 19.635416666666664  16.89453125 19.692057291666664  17.01171875 19.805338541666664  Z M 20.048828125 6.8251953125  C 21.474609375 7.9517144097222205  22.1875 9.301649305555554  22.1875 10.875  C 22.1875 11.504340277777777  22.08984375 12.070746527777777  21.89453125 12.57421875  C 21.69921875 13.07769097222222  21.40299479166667 13.511935763888888  21.005859375 13.876953125  C 20.608723958333332 14.241970486111109  20.27018229166667 14.518880208333336  19.990234375 14.707682291666664  C 19.710286458333336 14.896484375  19.32291666666667 15.123046875  18.828125 15.387369791666664  C 18.411458333333332 15.613932291666664  18.108723958333336 15.790147569444441  17.919921875 15.916015625  C 17.731119791666668 16.041883680555554  17.561848958333332 16.192925347222225  17.412109375 16.369140625  C 17.262369791666668 16.545355902777775  17.1875 16.727864583333336  17.1875 16.916666666666664  L 17.1875 17.520833333333336  C 17.1875 17.69704861111111  17.12890625 17.841796875  17.01171875 17.955078125  C 16.89453125 18.068359375  16.744791666666668 18.125  16.5625 18.125  L 13.4375 18.125  C 13.255208333333336 18.125  13.10546875 18.068359375  12.98828125 17.955078125  C 12.87109375 17.841796875  12.8125 17.69704861111111  12.8125 17.520833333333336  L 12.8125 16.236979166666664  C 12.8125 15.796440972222223  12.880859375 15.390516493055554  13.017578125 15.019205729166664  C 13.154296875 14.647894965277777  13.310546875 14.348958333333332  13.486328125 14.122395833333332  C 13.662109375 13.895833333333332  13.916015625 13.67241753472222  14.248046875 13.4521484375  C 14.580078125 13.231879340277777  14.847005208333336 13.071397569444445  15.048828124999998 12.970703125  C 15.25065104166667 12.870008680555555  15.540364583333334 12.73784722222222  15.917968750000002 12.57421875  C 16.608072916666668 12.259548611111109  17.096354166666668 11.988932291666668  17.3828125 11.762369791666668  C 17.669270833333336 11.535807291666668  17.812500000000004 11.227430555555555  17.8125 10.837239583333332  C 17.812500000000004 10.308593749999996  17.529296875 9.858615451388886  16.962890625 9.4873046875  C 16.396484375000004 9.115993923611109  15.774739583333334 8.930338541666668  15.097656250000002 8.930338541666668  C 14.368489583333336 8.930338541666668  13.75 9.100260416666668  13.2421875 9.440104166666668  C 12.864583333333334 9.691840277777777  12.34375 10.214192708333332  11.6796875 11.007161458333332  C 11.5625 11.158203124999996  11.399739583333334 11.233723958333332  11.19140625 11.233723958333332  C 11.048177083333334 11.233723958333332  10.924479166666668 11.195963541666664  10.8203125 11.120442708333332  L 8.7109375 9.572265625  C 8.580729166666668 9.484157986111109  8.502604166666666 9.358289930555554  8.4765625 9.194661458333332  C 8.450520833333336 9.031032986111109  8.483072916666668 8.88628472222222  8.57421875 8.760416666666668  C 10.162760416666668 6.34375  12.434895833333336 5.135416666666668  15.390625000000002 5.135416666666668  C 17.0703125 5.135416666666668  18.623046875 5.698676215277777  20.048828125 6.8251953125  Z M 19.853515625 3.379557291666668  C 18.310546875 2.737630208333332  16.692708333333336 2.416666666666668  15 2.416666666666668  C 13.307291666666666 2.416666666666668  11.689453125 2.737630208333332  10.146484375 3.379557291666668  C 8.603515625 4.021484375  7.275390625 4.880533854166668  6.162109375 5.956705729166668  C 5.048828125 7.032877604166668  4.16015625 8.316731770833332  3.49609375 9.808268229166668  C 2.83203125 11.2998046875  2.5 12.863715277777777  2.5 14.5  C 2.5 16.136284722222225  2.83203125 17.7001953125  3.49609375 19.191731770833336  C 4.16015625 20.683268229166664  5.048828125 21.967122395833332  6.162109375 23.043294270833332  C 7.275390625 24.119466145833332  8.603515625 24.978515625  10.146484375 25.620442708333332  C 11.689453125 26.262369791666668  13.307291666666666 26.583333333333332  15 26.583333333333332  C 16.692708333333336 26.583333333333332  18.310546875 26.262369791666668  19.853515625 25.620442708333332  C 21.396484375 24.978515625  22.724609375 24.119466145833332  23.837890625 23.043294270833332  C 24.951171875 21.967122395833332  25.83984375 20.683268229166664  26.50390625 19.191731770833336  C 27.16796875 17.7001953125  27.5 16.136284722222225  27.5 14.5  C 27.5 12.863715277777777  27.16796875 11.2998046875  26.50390625 9.808268229166668  C 25.83984375 8.316731770833332  24.951171875 7.032877604166668  23.837890625 5.956705729166668  C 22.724609375 4.880533854166668  21.396484375 4.021484375  19.853515625 3.379557291666668  Z M 27.98828125 7.2216796875  C 29.32942708333333 9.443250868055554  30 11.869357638888886  30 14.5  C 30 17.13064236111111  29.32942708333333 19.55674913194444  27.98828125 21.7783203125  C 26.64713541666667 23.999891493055557  24.827473958333332 25.758897569444443  22.529296875 27.055338541666668  C 20.23111979166667 28.351779513888893  17.721354166666668 29  15 29  C 12.278645833333334 29  9.768880208333334 28.351779513888893  7.470703125 27.055338541666668  C 5.172526041666667 25.758897569444443  3.352864583333334 23.999891493055557  2.01171875 21.7783203125  C 0.6705729166666665 19.55674913194444  0 17.13064236111111  0 14.5  C 0 11.869357638888886  0.6705729166666665 9.443250868055554  2.01171875 7.2216796875  C 3.352864583333334 5.000108506944444  5.172526041666667 3.2411024305555527  7.470703125 1.9446614583333321  C 9.768880208333334 0.6482204861111086  12.278645833333334 0  15 0  C 17.721354166666668 0  20.23111979166667 0.6482204861111086  22.529296875 1.9446614583333321  C 24.827473958333332 3.2411024305555527  26.64713541666667 5.000108506944444  27.98828125 7.2216796875  Z " fill-rule="evenodd" />
    </mask>
  </defs>
  <g transform="matrix(1 0 0 1 -29 -312 )">
    <path d="M 17.01171875 19.805338541666664  C 17.12890625 19.918619791666664  17.1875 20.063368055555554  17.1875 20.239583333333336  L 17.1875 23.260416666666668  C 17.1875 23.436631944444443  17.12890625 23.581380208333332  17.01171875 23.694661458333332  C 16.89453125 23.807942708333332  16.744791666666668 23.864583333333332  16.5625 23.864583333333332  L 13.4375 23.864583333333332  C 13.255208333333336 23.864583333333332  13.10546875 23.807942708333332  12.98828125 23.694661458333332  C 12.87109375 23.581380208333332  12.8125 23.436631944444443  12.8125 23.260416666666668  L 12.8125 20.239583333333336  C 12.8125 20.063368055555554  12.87109375 19.918619791666664  12.98828125 19.805338541666664  C 13.10546875 19.692057291666664  13.255208333333336 19.635416666666664  13.4375 19.635416666666664  L 16.5625 19.635416666666664  C 16.744791666666668 19.635416666666664  16.89453125 19.692057291666664  17.01171875 19.805338541666664  Z M 20.048828125 6.8251953125  C 21.474609375 7.9517144097222205  22.1875 9.301649305555554  22.1875 10.875  C 22.1875 11.504340277777777  22.08984375 12.070746527777777  21.89453125 12.57421875  C 21.69921875 13.07769097222222  21.40299479166667 13.511935763888888  21.005859375 13.876953125  C 20.608723958333332 14.241970486111109  20.27018229166667 14.518880208333336  19.990234375 14.707682291666664  C 19.710286458333336 14.896484375  19.32291666666667 15.123046875  18.828125 15.387369791666664  C 18.411458333333332 15.613932291666664  18.108723958333336 15.790147569444441  17.919921875 15.916015625  C 17.731119791666668 16.041883680555554  17.561848958333332 16.192925347222225  17.412109375 16.369140625  C 17.262369791666668 16.545355902777775  17.1875 16.727864583333336  17.1875 16.916666666666664  L 17.1875 17.520833333333336  C 17.1875 17.69704861111111  17.12890625 17.841796875  17.01171875 17.955078125  C 16.89453125 18.068359375  16.744791666666668 18.125  16.5625 18.125  L 13.4375 18.125  C 13.255208333333336 18.125  13.10546875 18.068359375  12.98828125 17.955078125  C 12.87109375 17.841796875  12.8125 17.69704861111111  12.8125 17.520833333333336  L 12.8125 16.236979166666664  C 12.8125 15.796440972222223  12.880859375 15.390516493055554  13.017578125 15.019205729166664  C 13.154296875 14.647894965277777  13.310546875 14.348958333333332  13.486328125 14.122395833333332  C 13.662109375 13.895833333333332  13.916015625 13.67241753472222  14.248046875 13.4521484375  C 14.580078125 13.231879340277777  14.847005208333336 13.071397569444445  15.048828124999998 12.970703125  C 15.25065104166667 12.870008680555555  15.540364583333334 12.73784722222222  15.917968750000002 12.57421875  C 16.608072916666668 12.259548611111109  17.096354166666668 11.988932291666668  17.3828125 11.762369791666668  C 17.669270833333336 11.535807291666668  17.812500000000004 11.227430555555555  17.8125 10.837239583333332  C 17.812500000000004 10.308593749999996  17.529296875 9.858615451388886  16.962890625 9.4873046875  C 16.396484375000004 9.115993923611109  15.774739583333334 8.930338541666668  15.097656250000002 8.930338541666668  C 14.368489583333336 8.930338541666668  13.75 9.100260416666668  13.2421875 9.440104166666668  C 12.864583333333334 9.691840277777777  12.34375 10.214192708333332  11.6796875 11.007161458333332  C 11.5625 11.158203124999996  11.399739583333334 11.233723958333332  11.19140625 11.233723958333332  C 11.048177083333334 11.233723958333332  10.924479166666668 11.195963541666664  10.8203125 11.120442708333332  L 8.7109375 9.572265625  C 8.580729166666668 9.484157986111109  8.502604166666666 9.358289930555554  8.4765625 9.194661458333332  C 8.450520833333336 9.031032986111109  8.483072916666668 8.88628472222222  8.57421875 8.760416666666668  C 10.162760416666668 6.34375  12.434895833333336 5.135416666666668  15.390625000000002 5.135416666666668  C 17.0703125 5.135416666666668  18.623046875 5.698676215277777  20.048828125 6.8251953125  Z M 19.853515625 3.379557291666668  C 18.310546875 2.737630208333332  16.692708333333336 2.416666666666668  15 2.416666666666668  C 13.307291666666666 2.416666666666668  11.689453125 2.737630208333332  10.146484375 3.379557291666668  C 8.603515625 4.021484375  7.275390625 4.880533854166668  6.162109375 5.956705729166668  C 5.048828125 7.032877604166668  4.16015625 8.316731770833332  3.49609375 9.808268229166668  C 2.83203125 11.2998046875  2.5 12.863715277777777  2.5 14.5  C 2.5 16.136284722222225  2.83203125 17.7001953125  3.49609375 19.191731770833336  C 4.16015625 20.683268229166664  5.048828125 21.967122395833332  6.162109375 23.043294270833332  C 7.275390625 24.119466145833332  8.603515625 24.978515625  10.146484375 25.620442708333332  C 11.689453125 26.262369791666668  13.307291666666666 26.583333333333332  15 26.583333333333332  C 16.692708333333336 26.583333333333332  18.310546875 26.262369791666668  19.853515625 25.620442708333332  C 21.396484375 24.978515625  22.724609375 24.119466145833332  23.837890625 23.043294270833332  C 24.951171875 21.967122395833332  25.83984375 20.683268229166664  26.50390625 19.191731770833336  C 27.16796875 17.7001953125  27.5 16.136284722222225  27.5 14.5  C 27.5 12.863715277777777  27.16796875 11.2998046875  26.50390625 9.808268229166668  C 25.83984375 8.316731770833332  24.951171875 7.032877604166668  23.837890625 5.956705729166668  C 22.724609375 4.880533854166668  21.396484375 4.021484375  19.853515625 3.379557291666668  Z M 27.98828125 7.2216796875  C 29.32942708333333 9.443250868055554  30 11.869357638888886  30 14.5  C 30 17.13064236111111  29.32942708333333 19.55674913194444  27.98828125 21.7783203125  C 26.64713541666667 23.999891493055557  24.827473958333332 25.758897569444443  22.529296875 27.055338541666668  C 20.23111979166667 28.351779513888893  17.721354166666668 29  15 29  C 12.278645833333334 29  9.768880208333334 28.351779513888893  7.470703125 27.055338541666668  C 5.172526041666667 25.758897569444443  3.352864583333334 23.999891493055557  2.01171875 21.7783203125  C 0.6705729166666665 19.55674913194444  0 17.13064236111111  0 14.5  C 0 11.869357638888886  0.6705729166666665 9.443250868055554  2.01171875 7.2216796875  C 3.352864583333334 5.000108506944444  5.172526041666667 3.2411024305555527  7.470703125 1.9446614583333321  C 9.768880208333334 0.6482204861111086  12.278645833333334 0  15 0  C 17.721354166666668 0  20.23111979166667 0.6482204861111086  22.529296875 1.9446614583333321  C 24.827473958333332 3.2411024305555527  26.64713541666667 5.000108506944444  27.98828125 7.2216796875  Z " fill-rule="nonzero" fill="rgba(0, 0, 0, 1)" stroke="none" transform="matrix(1 0 0 1 29 312 )" class="fill" />
    <path d="M 17.01171875 19.805338541666664  C 17.12890625 19.918619791666664  17.1875 20.063368055555554  17.1875 20.239583333333336  L 17.1875 23.260416666666668  C 17.1875 23.436631944444443  17.12890625 23.581380208333332  17.01171875 23.694661458333332  C 16.89453125 23.807942708333332  16.744791666666668 23.864583333333332  16.5625 23.864583333333332  L 13.4375 23.864583333333332  C 13.255208333333336 23.864583333333332  13.10546875 23.807942708333332  12.98828125 23.694661458333332  C 12.87109375 23.581380208333332  12.8125 23.436631944444443  12.8125 23.260416666666668  L 12.8125 20.239583333333336  C 12.8125 20.063368055555554  12.87109375 19.918619791666664  12.98828125 19.805338541666664  C 13.10546875 19.692057291666664  13.255208333333336 19.635416666666664  13.4375 19.635416666666664  L 16.5625 19.635416666666664  C 16.744791666666668 19.635416666666664  16.89453125 19.692057291666664  17.01171875 19.805338541666664  Z " stroke-width="0" stroke-dasharray="0" stroke="rgba(255, 255, 255, 0)" fill="none" transform="matrix(1 0 0 1 29 312 )" class="stroke" mask="url(#Clip29)" />
    <path d="M 20.048828125 6.8251953125  C 21.474609375 7.9517144097222205  22.1875 9.301649305555554  22.1875 10.875  C 22.1875 11.504340277777777  22.08984375 12.070746527777777  21.89453125 12.57421875  C 21.69921875 13.07769097222222  21.40299479166667 13.511935763888888  21.005859375 13.876953125  C 20.608723958333332 14.241970486111109  20.27018229166667 14.518880208333336  19.990234375 14.707682291666664  C 19.710286458333336 14.896484375  19.32291666666667 15.123046875  18.828125 15.387369791666664  C 18.411458333333332 15.613932291666664  18.108723958333336 15.790147569444441  17.919921875 15.916015625  C 17.731119791666668 16.041883680555554  17.561848958333332 16.192925347222225  17.412109375 16.369140625  C 17.262369791666668 16.545355902777775  17.1875 16.727864583333336  17.1875 16.916666666666664  L 17.1875 17.520833333333336  C 17.1875 17.69704861111111  17.12890625 17.841796875  17.01171875 17.955078125  C 16.89453125 18.068359375  16.744791666666668 18.125  16.5625 18.125  L 13.4375 18.125  C 13.255208333333336 18.125  13.10546875 18.068359375  12.98828125 17.955078125  C 12.87109375 17.841796875  12.8125 17.69704861111111  12.8125 17.520833333333336  L 12.8125 16.236979166666664  C 12.8125 15.796440972222223  12.880859375 15.390516493055554  13.017578125 15.019205729166664  C 13.154296875 14.647894965277777  13.310546875 14.348958333333332  13.486328125 14.122395833333332  C 13.662109375 13.895833333333332  13.916015625 13.67241753472222  14.248046875 13.4521484375  C 14.580078125 13.231879340277777  14.847005208333336 13.071397569444445  15.048828124999998 12.970703125  C 15.25065104166667 12.870008680555555  15.540364583333334 12.73784722222222  15.917968750000002 12.57421875  C 16.608072916666668 12.259548611111109  17.096354166666668 11.988932291666668  17.3828125 11.762369791666668  C 17.669270833333336 11.535807291666668  17.812500000000004 11.227430555555555  17.8125 10.837239583333332  C 17.812500000000004 10.308593749999996  17.529296875 9.858615451388886  16.962890625 9.4873046875  C 16.396484375000004 9.115993923611109  15.774739583333334 8.930338541666668  15.097656250000002 8.930338541666668  C 14.368489583333336 8.930338541666668  13.75 9.100260416666668  13.2421875 9.440104166666668  C 12.864583333333334 9.691840277777777  12.34375 10.214192708333332  11.6796875 11.007161458333332  C 11.5625 11.158203124999996  11.399739583333334 11.233723958333332  11.19140625 11.233723958333332  C 11.048177083333334 11.233723958333332  10.924479166666668 11.195963541666664  10.8203125 11.120442708333332  L 8.7109375 9.572265625  C 8.580729166666668 9.484157986111109  8.502604166666666 9.358289930555554  8.4765625 9.194661458333332  C 8.450520833333336 9.031032986111109  8.483072916666668 8.88628472222222  8.57421875 8.760416666666668  C 10.162760416666668 6.34375  12.434895833333336 5.135416666666668  15.390625000000002 5.135416666666668  C 17.0703125 5.135416666666668  18.623046875 5.698676215277777  20.048828125 6.8251953125  Z " stroke-width="0" stroke-dasharray="0" stroke="rgba(255, 255, 255, 0)" fill="none" transform="matrix(1 0 0 1 29 312 )" class="stroke" mask="url(#Clip29)" />
    <path d="M 19.853515625 3.379557291666668  C 18.310546875 2.737630208333332  16.692708333333336 2.416666666666668  15 2.416666666666668  C 13.307291666666666 2.416666666666668  11.689453125 2.737630208333332  10.146484375 3.379557291666668  C 8.603515625 4.021484375  7.275390625 4.880533854166668  6.162109375 5.956705729166668  C 5.048828125 7.032877604166668  4.16015625 8.316731770833332  3.49609375 9.808268229166668  C 2.83203125 11.2998046875  2.5 12.863715277777777  2.5 14.5  C 2.5 16.136284722222225  2.83203125 17.7001953125  3.49609375 19.191731770833336  C 4.16015625 20.683268229166664  5.048828125 21.967122395833332  6.162109375 23.043294270833332  C 7.275390625 24.119466145833332  8.603515625 24.978515625  10.146484375 25.620442708333332  C 11.689453125 26.262369791666668  13.307291666666666 26.583333333333332  15 26.583333333333332  C 16.692708333333336 26.583333333333332  18.310546875 26.262369791666668  19.853515625 25.620442708333332  C 21.396484375 24.978515625  22.724609375 24.119466145833332  23.837890625 23.043294270833332  C 24.951171875 21.967122395833332  25.83984375 20.683268229166664  26.50390625 19.191731770833336  C 27.16796875 17.7001953125  27.5 16.136284722222225  27.5 14.5  C 27.5 12.863715277777777  27.16796875 11.2998046875  26.50390625 9.808268229166668  C 25.83984375 8.316731770833332  24.951171875 7.032877604166668  23.837890625 5.956705729166668  C 22.724609375 4.880533854166668  21.396484375 4.021484375  19.853515625 3.379557291666668  Z " stroke-width="0" stroke-dasharray="0" stroke="rgba(255, 255, 255, 0)" fill="none" transform="matrix(1 0 0 1 29 312 )" class="stroke" mask="url(#Clip29)" />
    <path d="M 27.98828125 7.2216796875  C 29.32942708333333 9.443250868055554  30 11.869357638888886  30 14.5  C 30 17.13064236111111  29.32942708333333 19.55674913194444  27.98828125 21.7783203125  C 26.64713541666667 23.999891493055557  24.827473958333332 25.758897569444443  22.529296875 27.055338541666668  C 20.23111979166667 28.351779513888893  17.721354166666668 29  15 29  C 12.278645833333334 29  9.768880208333334 28.351779513888893  7.470703125 27.055338541666668  C 5.172526041666667 25.758897569444443  3.352864583333334 23.999891493055557  2.01171875 21.7783203125  C 0.6705729166666665 19.55674913194444  0 17.13064236111111  0 14.5  C 0 11.869357638888886  0.6705729166666665 9.443250868055554  2.01171875 7.2216796875  C 3.352864583333334 5.000108506944444  5.172526041666667 3.2411024305555527  7.470703125 1.9446614583333321  C 9.768880208333334 0.6482204861111086  12.278645833333334 0  15 0  C 17.721354166666668 0  20.23111979166667 0.6482204861111086  22.529296875 1.9446614583333321  C 24.827473958333332 3.2411024305555527  26.64713541666667 5.000108506944444  27.98828125 7.2216796875  Z " stroke-width="0" stroke-dasharray="0" stroke="rgba(255, 255, 255, 0)" fill="none" transform="matrix(1 0 0 1 29 312 )" class="stroke" mask="url(#Clip29)" />
  </g>
</svg>