<?xml version="1.0" encoding="utf-8"?>
<svg version="1.1" xmlns:xlink="http://www.w3.org/1999/xlink" width="26px" height="28px" xmlns="http://www.w3.org/2000/svg">
  <defs>
    <pattern id="BGPattern" patternUnits="userSpaceOnUse" alignment="0 0" imageRepeat="None" />
    <mask fill="white" id="Clip30">
      <path d="M 17.180989583333332 23.169270833333336  C 17.282552083333332 23.059895833333336  17.333333333333332 22.920138888888886  17.333333333333332 22.75  L 17.333333333333332 19.833333333333332  C 17.333333333333332 19.663194444444443  17.282552083333332 19.5234375  17.180989583333332 19.4140625  C 17.079427083333332 19.3046875  16.94965277777778 19.25  16.791666666666668 19.25  L 15.166666666666668 19.25  L 15.166666666666668 9.916666666666666  C 15.166666666666668 9.746527777777779  15.115885416666668 9.606770833333334  15.014322916666668 9.497395833333334  C 14.912760416666668 9.388020833333334  14.782986111111112 9.333333333333334  14.625 9.333333333333334  L 9.208333333333334 9.333333333333334  C 9.050347222222223 9.333333333333334  8.920572916666666 9.388020833333334  8.819010416666666 9.497395833333334  C 8.717447916666666 9.606770833333334  8.666666666666666 9.746527777777779  8.666666666666666 9.916666666666666  L 8.666666666666666 12.833333333333334  C 8.666666666666666 13.003472222222221  8.717447916666666 13.143229166666666  8.819010416666666 13.252604166666666  C 8.920572916666666 13.361979166666666  9.050347222222223 13.416666666666666  9.208333333333334 13.416666666666666  L 10.833333333333334 13.416666666666666  L 10.833333333333334 19.25  L 9.208333333333334 19.25  C 9.050347222222223 19.25  8.920572916666666 19.3046875  8.819010416666666 19.4140625  C 8.717447916666666 19.5234375  8.666666666666666 19.663194444444443  8.666666666666666 19.833333333333332  L 8.666666666666666 22.75  C 8.666666666666666 22.920138888888886  8.717447916666666 23.059895833333336  8.819010416666666 23.169270833333336  C 8.920572916666666 23.278645833333336  9.050347222222223 23.333333333333336  9.208333333333334 23.333333333333336  L 16.791666666666668 23.333333333333336  C 16.94965277777778 23.333333333333336  17.079427083333332 23.278645833333336  17.180989583333332 23.169270833333336  Z M 15.014322916666668 6.8359375  C 15.115885416666668 6.7265625  15.166666666666668 6.586805555555554  15.166666666666668 6.416666666666666  L 15.166666666666668 3.5  C 15.166666666666668 3.3298611111111094  15.115885416666668 3.1901041666666656  15.014322916666668 3.0807291666666656  C 14.912760416666668 2.9713541666666656  14.782986111111112 2.9166666666666656  14.625 2.9166666666666656  L 11.375 2.9166666666666656  C 11.21701388888889 2.9166666666666656  11.087239583333334 2.9713541666666656  10.985677083333334 3.0807291666666656  C 10.884114583333334 3.1901041666666656  10.833333333333334 3.3298611111111094  10.833333333333334 3.5  L 10.833333333333334 6.416666666666666  C 10.833333333333334 6.586805555555554  10.884114583333334 6.7265625  10.985677083333334 6.8359375  C 11.087239583333334 6.9453125  11.21701388888889 7  11.375 7  L 14.625 7  C 14.782986111111112 7  14.912760416666668 6.9453125  15.014322916666668 6.8359375  Z M 24.256510416666668 6.97265625  C 25.418836805555554 9.117621527777775  26 11.460069444444441  26 14  C 26 16.539930555555557  25.418836805555554 18.882378472222218  24.256510416666668 21.02734375  C 23.09418402777778 23.17230902777778  21.51714409722222 24.87065972222222  19.525390625 26.122395833333336  C 17.53363715277778 27.374131944444446  15.358506944444445 28  13 28  C 10.641493055555557 28  8.466362847222223 27.374131944444446  6.474609375 26.122395833333336  C 4.482855902777779 24.87065972222222  2.9058159722222223 23.17230902777778  1.7434895833333335 21.02734375  C 0.5811631944444444 18.882378472222218  0 16.539930555555557  0 14  C 0 11.460069444444441  0.5811631944444444 9.117621527777775  1.7434895833333335 6.97265625  C 2.9058159722222223 4.827690972222221  4.482855902777779 3.129340277777775  6.474609375 1.8776041666666656  C 8.466362847222223 0.6258680555555531  10.641493055555557 0  13 0  C 15.358506944444445 0  17.53363715277778 0.6258680555555531  19.525390625 1.8776041666666656  C 21.51714409722222 3.129340277777775  23.09418402777778 4.827690972222221  24.256510416666668 6.97265625  Z " fill-rule="evenodd" />
    </mask>
  </defs>
  <g transform="matrix(1 0 0 1 -31 -184 )">
    <path d="M 17.180989583333332 23.169270833333336  C 17.282552083333332 23.059895833333336  17.333333333333332 22.920138888888886  17.333333333333332 22.75  L 17.333333333333332 19.833333333333332  C 17.333333333333332 19.663194444444443  17.282552083333332 19.5234375  17.180989583333332 19.4140625  C 17.079427083333332 19.3046875  16.94965277777778 19.25  16.791666666666668 19.25  L 15.166666666666668 19.25  L 15.166666666666668 9.916666666666666  C 15.166666666666668 9.746527777777779  15.115885416666668 9.606770833333334  15.014322916666668 9.497395833333334  C 14.912760416666668 9.388020833333334  14.782986111111112 9.333333333333334  14.625 9.333333333333334  L 9.208333333333334 9.333333333333334  C 9.050347222222223 9.333333333333334  8.920572916666666 9.388020833333334  8.819010416666666 9.497395833333334  C 8.717447916666666 9.606770833333334  8.666666666666666 9.746527777777779  8.666666666666666 9.916666666666666  L 8.666666666666666 12.833333333333334  C 8.666666666666666 13.003472222222221  8.717447916666666 13.143229166666666  8.819010416666666 13.252604166666666  C 8.920572916666666 13.361979166666666  9.050347222222223 13.416666666666666  9.208333333333334 13.416666666666666  L 10.833333333333334 13.416666666666666  L 10.833333333333334 19.25  L 9.208333333333334 19.25  C 9.050347222222223 19.25  8.920572916666666 19.3046875  8.819010416666666 19.4140625  C 8.717447916666666 19.5234375  8.666666666666666 19.663194444444443  8.666666666666666 19.833333333333332  L 8.666666666666666 22.75  C 8.666666666666666 22.920138888888886  8.717447916666666 23.059895833333336  8.819010416666666 23.169270833333336  C 8.920572916666666 23.278645833333336  9.050347222222223 23.333333333333336  9.208333333333334 23.333333333333336  L 16.791666666666668 23.333333333333336  C 16.94965277777778 23.333333333333336  17.079427083333332 23.278645833333336  17.180989583333332 23.169270833333336  Z M 15.014322916666668 6.8359375  C 15.115885416666668 6.7265625  15.166666666666668 6.586805555555554  15.166666666666668 6.416666666666666  L 15.166666666666668 3.5  C 15.166666666666668 3.3298611111111094  15.115885416666668 3.1901041666666656  15.014322916666668 3.0807291666666656  C 14.912760416666668 2.9713541666666656  14.782986111111112 2.9166666666666656  14.625 2.9166666666666656  L 11.375 2.9166666666666656  C 11.21701388888889 2.9166666666666656  11.087239583333334 2.9713541666666656  10.985677083333334 3.0807291666666656  C 10.884114583333334 3.1901041666666656  10.833333333333334 3.3298611111111094  10.833333333333334 3.5  L 10.833333333333334 6.416666666666666  C 10.833333333333334 6.586805555555554  10.884114583333334 6.7265625  10.985677083333334 6.8359375  C 11.087239583333334 6.9453125  11.21701388888889 7  11.375 7  L 14.625 7  C 14.782986111111112 7  14.912760416666668 6.9453125  15.014322916666668 6.8359375  Z M 24.256510416666668 6.97265625  C 25.418836805555554 9.117621527777775  26 11.460069444444441  26 14  C 26 16.539930555555557  25.418836805555554 18.882378472222218  24.256510416666668 21.02734375  C 23.09418402777778 23.17230902777778  21.51714409722222 24.87065972222222  19.525390625 26.122395833333336  C 17.53363715277778 27.374131944444446  15.358506944444445 28  13 28  C 10.641493055555557 28  8.466362847222223 27.374131944444446  6.474609375 26.122395833333336  C 4.482855902777779 24.87065972222222  2.9058159722222223 23.17230902777778  1.7434895833333335 21.02734375  C 0.5811631944444444 18.882378472222218  0 16.539930555555557  0 14  C 0 11.460069444444441  0.5811631944444444 9.117621527777775  1.7434895833333335 6.97265625  C 2.9058159722222223 4.827690972222221  4.482855902777779 3.129340277777775  6.474609375 1.8776041666666656  C 8.466362847222223 0.6258680555555531  10.641493055555557 0  13 0  C 15.358506944444445 0  17.53363715277778 0.6258680555555531  19.525390625 1.8776041666666656  C 21.51714409722222 3.129340277777775  23.09418402777778 4.827690972222221  24.256510416666668 6.97265625  Z " fill-rule="nonzero" fill="rgba(0, 0, 0, 1)" stroke="none" transform="matrix(1 0 0 1 31 184 )" class="fill" />
    <path d="M 17.180989583333332 23.169270833333336  C 17.282552083333332 23.059895833333336  17.333333333333332 22.920138888888886  17.333333333333332 22.75  L 17.333333333333332 19.833333333333332  C 17.333333333333332 19.663194444444443  17.282552083333332 19.5234375  17.180989583333332 19.4140625  C 17.079427083333332 19.3046875  16.94965277777778 19.25  16.791666666666668 19.25  L 15.166666666666668 19.25  L 15.166666666666668 9.916666666666666  C 15.166666666666668 9.746527777777779  15.115885416666668 9.606770833333334  15.014322916666668 9.497395833333334  C 14.912760416666668 9.388020833333334  14.782986111111112 9.333333333333334  14.625 9.333333333333334  L 9.208333333333334 9.333333333333334  C 9.050347222222223 9.333333333333334  8.920572916666666 9.388020833333334  8.819010416666666 9.497395833333334  C 8.717447916666666 9.606770833333334  8.666666666666666 9.746527777777779  8.666666666666666 9.916666666666666  L 8.666666666666666 12.833333333333334  C 8.666666666666666 13.003472222222221  8.717447916666666 13.143229166666666  8.819010416666666 13.252604166666666  C 8.920572916666666 13.361979166666666  9.050347222222223 13.416666666666666  9.208333333333334 13.416666666666666  L 10.833333333333334 13.416666666666666  L 10.833333333333334 19.25  L 9.208333333333334 19.25  C 9.050347222222223 19.25  8.920572916666666 19.3046875  8.819010416666666 19.4140625  C 8.717447916666666 19.5234375  8.666666666666666 19.663194444444443  8.666666666666666 19.833333333333332  L 8.666666666666666 22.75  C 8.666666666666666 22.920138888888886  8.717447916666666 23.059895833333336  8.819010416666666 23.169270833333336  C 8.920572916666666 23.278645833333336  9.050347222222223 23.333333333333336  9.208333333333334 23.333333333333336  L 16.791666666666668 23.333333333333336  C 16.94965277777778 23.333333333333336  17.079427083333332 23.278645833333336  17.180989583333332 23.169270833333336  Z " stroke-width="0" stroke-dasharray="0" stroke="rgba(255, 255, 255, 0)" fill="none" transform="matrix(1 0 0 1 31 184 )" class="stroke" mask="url(#Clip30)" />
    <path d="M 15.014322916666668 6.8359375  C 15.115885416666668 6.7265625  15.166666666666668 6.586805555555554  15.166666666666668 6.416666666666666  L 15.166666666666668 3.5  C 15.166666666666668 3.3298611111111094  15.115885416666668 3.1901041666666656  15.014322916666668 3.0807291666666656  C 14.912760416666668 2.9713541666666656  14.782986111111112 2.9166666666666656  14.625 2.9166666666666656  L 11.375 2.9166666666666656  C 11.21701388888889 2.9166666666666656  11.087239583333334 2.9713541666666656  10.985677083333334 3.0807291666666656  C 10.884114583333334 3.1901041666666656  10.833333333333334 3.3298611111111094  10.833333333333334 3.5  L 10.833333333333334 6.416666666666666  C 10.833333333333334 6.586805555555554  10.884114583333334 6.7265625  10.985677083333334 6.8359375  C 11.087239583333334 6.9453125  11.21701388888889 7  11.375 7  L 14.625 7  C 14.782986111111112 7  14.912760416666668 6.9453125  15.014322916666668 6.8359375  Z " stroke-width="0" stroke-dasharray="0" stroke="rgba(255, 255, 255, 0)" fill="none" transform="matrix(1 0 0 1 31 184 )" class="stroke" mask="url(#Clip30)" />
    <path d="M 24.256510416666668 6.97265625  C 25.418836805555554 9.117621527777775  26 11.460069444444441  26 14  C 26 16.539930555555557  25.418836805555554 18.882378472222218  24.256510416666668 21.02734375  C 23.09418402777778 23.17230902777778  21.51714409722222 24.87065972222222  19.525390625 26.122395833333336  C 17.53363715277778 27.374131944444446  15.358506944444445 28  13 28  C 10.641493055555557 28  8.466362847222223 27.374131944444446  6.474609375 26.122395833333336  C 4.482855902777779 24.87065972222222  2.9058159722222223 23.17230902777778  1.7434895833333335 21.02734375  C 0.5811631944444444 18.882378472222218  0 16.539930555555557  0 14  C 0 11.460069444444441  0.5811631944444444 9.117621527777775  1.7434895833333335 6.97265625  C 2.9058159722222223 4.827690972222221  4.482855902777779 3.129340277777775  6.474609375 1.8776041666666656  C 8.466362847222223 0.6258680555555531  10.641493055555557 0  13 0  C 15.358506944444445 0  17.53363715277778 0.6258680555555531  19.525390625 1.8776041666666656  C 21.51714409722222 3.129340277777775  23.09418402777778 4.827690972222221  24.256510416666668 6.97265625  Z " stroke-width="0" stroke-dasharray="0" stroke="rgba(255, 255, 255, 0)" fill="none" transform="matrix(1 0 0 1 31 184 )" class="stroke" mask="url(#Clip30)" />
  </g>
</svg>