<?xml version="1.0" encoding="utf-8"?>
<svg version="1.1" xmlns:xlink="http://www.w3.org/1999/xlink" width="40px" height="42px" xmlns="http://www.w3.org/2000/svg">
  <defs>
    <pattern id="BGPattern" patternUnits="userSpaceOnUse" alignment="0 0" imageRepeat="None" />
    <mask fill="white" id="Clip6">
      <path d="M 27.946428571428573 36.94921875  C 30.401785714285715 35.58203125000001  32.418154761904766 33.7265625  33.995535714285715 31.3828125  C 33.668154761904766 28.9609375  33.017113095238095 26.94921875  32.042410714285715 25.34765625  C 31.067708333333336 23.74609375  29.694940476190478 22.820312499999996  27.924107142857146 22.570312499999996  C 26.927083333333336 23.726562499999996  25.74032738095238 24.628906249999996  24.363839285714285 25.277343749999996  C 22.987351190476197 25.92578125  21.5327380952381 26.25  20 26.25  C 18.467261904761905 26.25  17.01264880952381 25.92578125  15.636160714285714 25.277343749999996  C 14.25967261904762 24.628906249999996  13.072916666666668 23.726562499999996  12.075892857142858 22.570312499999996  C 10.305059523809524 22.820312499999996  8.932291666666668 23.74609375  7.9575892857142865 25.34765625  C 6.982886904761906 26.94921875  6.331845238095238 28.9609375  6.0044642857142865 31.3828125  C 7.581845238095238 33.7265625  9.598214285714286 35.58203125000001  12.053571428571427 36.94921875  C 14.508928571428573 38.31640625  17.1577380952381 39  20 39  C 22.842261904761905 39  25.491071428571427 38.31640625  27.946428571428573 36.94921875  Z M 26.060267857142854 21.36328125  C 27.734375 19.60546875  28.571428571428573 17.484375000000004  28.571428571428573 14.999999999999998  C 28.571428571428573 12.515624999999998  27.734375 10.39453125  26.060267857142854 8.63671875  C 24.386160714285715 6.878906249999998  22.366071428571427 6.000000000000002  20 6.000000000000002  C 17.633928571428573 6.000000000000002  15.613839285714286 6.878906249999998  13.939732142857142 8.63671875  C 12.265625 10.39453125  11.428571428571427 12.515624999999998  11.428571428571427 14.999999999999998  C 11.428571428571427 17.484375000000004  12.265625 19.60546875  13.939732142857142 21.36328125  C 15.613839285714286 23.121093750000004  17.633928571428573 24  20 24  C 22.366071428571427 24  24.386160714285715 23.121093750000004  26.060267857142854 21.36328125  Z M 38.41517857142857 12.843749999999998  C 39.4717261904762 15.437499999999996  40 18.15625  40 21  C 40 23.843749999999996  39.4717261904762 26.558593749999996  38.41517857142857 29.14453125  C 37.358630952380956 31.73046875  35.94122023809525 33.96484375  34.16294642857143 35.84765625  C 32.38467261904762 37.73046874999999  30.26041666666667 39.2265625  27.790178571428573 40.3359375  C 25.319940476190478 41.4453125  22.723214285714285 42  20 42  C 17.291666666666668 42  14.702380952380953 41.4453125  12.232142857142858 40.3359375  C 9.761904761904763 39.2265625  7.633928571428571 37.734375  5.8482142857142865 35.859375  C 4.0625 33.984375  2.6413690476190474 31.75  1.5848214285714284 29.15625  C 0.5282738095238094 26.5625  0 23.843749999999996  0 21  C 0 18.15625  0.5282738095238094 15.437499999999996  1.5848214285714284 12.843749999999998  C 2.6413690476190474 10.249999999999996  4.0625 8.015625  5.8482142857142865 6.140624999999998  C 7.633928571428571 4.265625  9.761904761904763 2.773437499999999  12.232142857142858 1.6640624999999993  C 14.702380952380953 0.5546874999999998  17.291666666666668 0  20 0  C 22.708333333333336 0  25.29761904761905 0.5546874999999998  27.767857142857146 1.6640624999999993  C 30.23809523809524 2.773437499999999  32.36607142857143 4.265625  34.151785714285715 6.140624999999998  C 35.93750000000001 8.015625  37.358630952380956 10.249999999999996  38.41517857142857 12.843749999999998  Z " fill-rule="evenodd" />
    </mask>
  </defs>
  <g transform="matrix(1 0 0 1 -76 -228 )">
    <path d="M 27.946428571428573 36.94921875  C 30.401785714285715 35.58203125000001  32.418154761904766 33.7265625  33.995535714285715 31.3828125  C 33.668154761904766 28.9609375  33.017113095238095 26.94921875  32.042410714285715 25.34765625  C 31.067708333333336 23.74609375  29.694940476190478 22.820312499999996  27.924107142857146 22.570312499999996  C 26.927083333333336 23.726562499999996  25.74032738095238 24.628906249999996  24.363839285714285 25.277343749999996  C 22.987351190476197 25.92578125  21.5327380952381 26.25  20 26.25  C 18.467261904761905 26.25  17.01264880952381 25.92578125  15.636160714285714 25.277343749999996  C 14.25967261904762 24.628906249999996  13.072916666666668 23.726562499999996  12.075892857142858 22.570312499999996  C 10.305059523809524 22.820312499999996  8.932291666666668 23.74609375  7.9575892857142865 25.34765625  C 6.982886904761906 26.94921875  6.331845238095238 28.9609375  6.0044642857142865 31.3828125  C 7.581845238095238 33.7265625  9.598214285714286 35.58203125000001  12.053571428571427 36.94921875  C 14.508928571428573 38.31640625  17.1577380952381 39  20 39  C 22.842261904761905 39  25.491071428571427 38.31640625  27.946428571428573 36.94921875  Z M 26.060267857142854 21.36328125  C 27.734375 19.60546875  28.571428571428573 17.484375000000004  28.571428571428573 14.999999999999998  C 28.571428571428573 12.515624999999998  27.734375 10.39453125  26.060267857142854 8.63671875  C 24.386160714285715 6.878906249999998  22.366071428571427 6.000000000000002  20 6.000000000000002  C 17.633928571428573 6.000000000000002  15.613839285714286 6.878906249999998  13.939732142857142 8.63671875  C 12.265625 10.39453125  11.428571428571427 12.515624999999998  11.428571428571427 14.999999999999998  C 11.428571428571427 17.484375000000004  12.265625 19.60546875  13.939732142857142 21.36328125  C 15.613839285714286 23.121093750000004  17.633928571428573 24  20 24  C 22.366071428571427 24  24.386160714285715 23.121093750000004  26.060267857142854 21.36328125  Z M 38.41517857142857 12.843749999999998  C 39.4717261904762 15.437499999999996  40 18.15625  40 21  C 40 23.843749999999996  39.4717261904762 26.558593749999996  38.41517857142857 29.14453125  C 37.358630952380956 31.73046875  35.94122023809525 33.96484375  34.16294642857143 35.84765625  C 32.38467261904762 37.73046874999999  30.26041666666667 39.2265625  27.790178571428573 40.3359375  C 25.319940476190478 41.4453125  22.723214285714285 42  20 42  C 17.291666666666668 42  14.702380952380953 41.4453125  12.232142857142858 40.3359375  C 9.761904761904763 39.2265625  7.633928571428571 37.734375  5.8482142857142865 35.859375  C 4.0625 33.984375  2.6413690476190474 31.75  1.5848214285714284 29.15625  C 0.5282738095238094 26.5625  0 23.843749999999996  0 21  C 0 18.15625  0.5282738095238094 15.437499999999996  1.5848214285714284 12.843749999999998  C 2.6413690476190474 10.249999999999996  4.0625 8.015625  5.8482142857142865 6.140624999999998  C 7.633928571428571 4.265625  9.761904761904763 2.773437499999999  12.232142857142858 1.6640624999999993  C 14.702380952380953 0.5546874999999998  17.291666666666668 0  20 0  C 22.708333333333336 0  25.29761904761905 0.5546874999999998  27.767857142857146 1.6640624999999993  C 30.23809523809524 2.773437499999999  32.36607142857143 4.265625  34.151785714285715 6.140624999999998  C 35.93750000000001 8.015625  37.358630952380956 10.249999999999996  38.41517857142857 12.843749999999998  Z " fill-rule="nonzero" fill="rgba(255, 255, 255, 1)" stroke="none" transform="matrix(1 0 0 1 76 228 )" class="fill" />
    <path d="M 27.946428571428573 36.94921875  C 30.401785714285715 35.58203125000001  32.418154761904766 33.7265625  33.995535714285715 31.3828125  C 33.668154761904766 28.9609375  33.017113095238095 26.94921875  32.042410714285715 25.34765625  C 31.067708333333336 23.74609375  29.694940476190478 22.820312499999996  27.924107142857146 22.570312499999996  C 26.927083333333336 23.726562499999996  25.74032738095238 24.628906249999996  24.363839285714285 25.277343749999996  C 22.987351190476197 25.92578125  21.5327380952381 26.25  20 26.25  C 18.467261904761905 26.25  17.01264880952381 25.92578125  15.636160714285714 25.277343749999996  C 14.25967261904762 24.628906249999996  13.072916666666668 23.726562499999996  12.075892857142858 22.570312499999996  C 10.305059523809524 22.820312499999996  8.932291666666668 23.74609375  7.9575892857142865 25.34765625  C 6.982886904761906 26.94921875  6.331845238095238 28.9609375  6.0044642857142865 31.3828125  C 7.581845238095238 33.7265625  9.598214285714286 35.58203125000001  12.053571428571427 36.94921875  C 14.508928571428573 38.31640625  17.1577380952381 39  20 39  C 22.842261904761905 39  25.491071428571427 38.31640625  27.946428571428573 36.94921875  Z " stroke-width="0" stroke-dasharray="0" stroke="rgba(255, 255, 255, 0)" fill="none" transform="matrix(1 0 0 1 76 228 )" class="stroke" mask="url(#Clip6)" />
    <path d="M 26.060267857142854 21.36328125  C 27.734375 19.60546875  28.571428571428573 17.484375000000004  28.571428571428573 14.999999999999998  C 28.571428571428573 12.515624999999998  27.734375 10.39453125  26.060267857142854 8.63671875  C 24.386160714285715 6.878906249999998  22.366071428571427 6.000000000000002  20 6.000000000000002  C 17.633928571428573 6.000000000000002  15.613839285714286 6.878906249999998  13.939732142857142 8.63671875  C 12.265625 10.39453125  11.428571428571427 12.515624999999998  11.428571428571427 14.999999999999998  C 11.428571428571427 17.484375000000004  12.265625 19.60546875  13.939732142857142 21.36328125  C 15.613839285714286 23.121093750000004  17.633928571428573 24  20 24  C 22.366071428571427 24  24.386160714285715 23.121093750000004  26.060267857142854 21.36328125  Z " stroke-width="0" stroke-dasharray="0" stroke="rgba(255, 255, 255, 0)" fill="none" transform="matrix(1 0 0 1 76 228 )" class="stroke" mask="url(#Clip6)" />
    <path d="M 38.41517857142857 12.843749999999998  C 39.4717261904762 15.437499999999996  40 18.15625  40 21  C 40 23.843749999999996  39.4717261904762 26.558593749999996  38.41517857142857 29.14453125  C 37.358630952380956 31.73046875  35.94122023809525 33.96484375  34.16294642857143 35.84765625  C 32.38467261904762 37.73046874999999  30.26041666666667 39.2265625  27.790178571428573 40.3359375  C 25.319940476190478 41.4453125  22.723214285714285 42  20 42  C 17.291666666666668 42  14.702380952380953 41.4453125  12.232142857142858 40.3359375  C 9.761904761904763 39.2265625  7.633928571428571 37.734375  5.8482142857142865 35.859375  C 4.0625 33.984375  2.6413690476190474 31.75  1.5848214285714284 29.15625  C 0.5282738095238094 26.5625  0 23.843749999999996  0 21  C 0 18.15625  0.5282738095238094 15.437499999999996  1.5848214285714284 12.843749999999998  C 2.6413690476190474 10.249999999999996  4.0625 8.015625  5.8482142857142865 6.140624999999998  C 7.633928571428571 4.265625  9.761904761904763 2.773437499999999  12.232142857142858 1.6640624999999993  C 14.702380952380953 0.5546874999999998  17.291666666666668 0  20 0  C 22.708333333333336 0  25.29761904761905 0.5546874999999998  27.767857142857146 1.6640624999999993  C 30.23809523809524 2.773437499999999  32.36607142857143 4.265625  34.151785714285715 6.140624999999998  C 35.93750000000001 8.015625  37.358630952380956 10.249999999999996  38.41517857142857 12.843749999999998  Z " stroke-width="0" stroke-dasharray="0" stroke="rgba(255, 255, 255, 0)" fill="none" transform="matrix(1 0 0 1 76 228 )" class="stroke" mask="url(#Clip6)" />
  </g>
</svg>