<?xml version="1.0" encoding="utf-8"?>
<svg version="1.1" xmlns:xlink="http://www.w3.org/1999/xlink" width="31px" height="26px" xmlns="http://www.w3.org/2000/svg">
  <defs>
    <pattern id="BGPattern" patternUnits="userSpaceOnUse" alignment="0 0" imageRepeat="None" />
    <mask fill="white" id="Clip7">
      <path d="M 13.448974609375 16.647786458333336  C 13.524658203125 17.172526041666664  13.5625 17.739583333333336  13.5625 18.348958333333336  C 13.5625 18.969618055555554  13.403564453125 19.497178819444446  13.085693359375 19.931640625  C 12.767822265625 20.366102430555557  12.386881510416668 20.583333333333332  11.94287109375 20.583333333333332  L 5.49462890625 20.583333333333332  C 5.050618489583334 20.583333333333332  4.669677734375 20.366102430555557  4.351806640625 19.931640625  C 4.033935546875 19.497178819444446  3.875 18.969618055555554  3.875 18.348958333333336  C 3.875 17.739583333333336  3.912841796875 17.172526041666664  3.988525390625 16.647786458333336  C 4.064208984375 16.123046875  4.187825520833334 15.615234375  4.359375 15.124348958333336  C 4.530924479166667 14.633463541666664  4.788248697916667 14.246961805555555  5.13134765625 13.96484375  C 5.474446614583334 13.682725694444445  5.883138020833334 13.541666666666664  6.357421875 13.541666666666664  C 7.003255208333334 14.26388888888889  7.790364583333335 14.625  8.71875 14.625  C 9.647135416666668 14.625  10.434244791666668 14.26388888888889  11.080078125 13.541666666666664  C 11.554361979166668 13.541666666666664  11.963053385416668 13.682725694444445  12.30615234375 13.96484375  C 12.649251302083334 14.246961805555555  12.906575520833334 14.633463541666664  13.078125 15.124348958333336  C 13.249674479166668 15.615234375  13.373291015625 16.123046875  13.448974609375 16.647786458333336  Z M 10.77734375 8.53125  C 11.342447916666666 9.163194444444443  11.625 9.930555555555555  11.625 10.833333333333332  C 11.625 11.73611111111111  11.342447916666666 12.503472222222223  10.77734375 13.135416666666664  C 10.212239583333334 13.76736111111111  9.526041666666668 14.083333333333336  8.71875 14.083333333333336  C 7.911458333333335 14.083333333333336  7.225260416666667 13.76736111111111  6.66015625 13.135416666666664  C 6.095052083333333 12.503472222222223  5.8125 11.73611111111111  5.8125 10.833333333333332  C 5.8125 9.930555555555555  6.095052083333333 9.163194444444443  6.66015625 8.53125  C 7.225260416666667 7.899305555555552  7.911458333333335 7.583333333333332  8.71875 7.583333333333332  C 9.526041666666668 7.583333333333332  10.212239583333334 7.899305555555552  10.77734375 8.53125  Z M 26.98876953125 17.485677083333336  C 27.07958984375 17.587239583333336  27.125 17.717013888888886  27.125 17.875  L 27.125 18.958333333333336  C 27.125 19.116319444444446  27.07958984375 19.24609375  26.98876953125 19.34765625  C 26.89794921875 19.44921875  26.781901041666668 19.5  26.640625 19  L 15.984375 19  C 15.843098958333334 19.5  15.72705078125 19.44921875  15.63623046875 19.34765625  C 15.54541015625 19.24609375  15.5 19.116319444444446  15.5 18.958333333333336  L 15.5 17.875  C 15.5 17.717013888888886  15.54541015625 17.587239583333336  15.63623046875 17.485677083333336  C 15.72705078125 17.384114583333336  15.843098958333334 17.333333333333336  15.984375 17  L 26.640625 17  C 26.781901041666668 17.333333333333336  26.89794921875 17.384114583333336  26.98876953125 17.485677083333336  Z M 21.17626953125 13.15234375  C 21.26708984375 13.25390625  21.3125 13.383680555555555  21.3125 13.541666666666664  L 21.3125 14.625  C 21.3125 14.78298611111111  21.26708984375 14.912760416666664  21.17626953125 15.014322916666664  C 21.08544921875 15.115885416666664  20.969401041666668 15.166666666666664  20.828125 15.166666666666664  L 15.984375 15.166666666666664  C 15.843098958333334 15.166666666666664  15.72705078125 15.115885416666664  15.63623046875 15.014322916666664  C 15.54541015625 14.912760416666664  15.5 14.78298611111111  15.5 14.625  L 15.5 13.541666666666664  C 15.5 13.383680555555555  15.54541015625 13.25390625  15.63623046875 13.15234375  C 15.72705078125 13.05078125  15.843098958333334 13  15.984375 13  L 20.828125 13  C 20.969401041666668 13  21.08544921875 13.05078125  21.17626953125 13.15234375  Z M 26.98876953125 13.15234375  C 27.07958984375 13.25390625  27.125 13.383680555555555  27.125 13.541666666666664  L 27.125 14.625  C 27.125 14.78298611111111  27.07958984375 14.912760416666664  26.98876953125 15.014322916666664  C 26.89794921875 15.115885416666664  26.781901041666668 15.166666666666664  26.640625 15.166666666666664  L 23.734375 15.166666666666664  C 23.59309895833334 15.166666666666664  23.477050781250004 15.115885416666664  23.38623046875 15.014322916666664  C 23.29541015625 14.912760416666664  23.25 14.78298611111111  23.25 14.625  L 23.25 13.541666666666664  C 23.25 13.383680555555555  23.29541015625 13.25390625  23.38623046875 13.15234375  C 23.477050781250004 13.05078125  23.59309895833334 13  23.734375 13  L 26.640625 13  C 26.781901041666668 13  26.89794921875 13.05078125  26.98876953125 13.15234375  Z M 26.98876953125 8.819010416666668  C 27.07958984375 8.920572916666668  27.125 9.050347222222223  27.125 9.208333333333332  L 27.125 10.291666666666668  C 27.125 10.449652777777777  27.07958984375 10.579427083333332  26.98876953125 10.680989583333332  C 26.89794921875 10.782552083333332  26.781901041666668 10.833333333333332  26.640625 11  L 15.984375 11  C 15.843098958333334 10.833333333333332  15.72705078125 10.782552083333332  15.63623046875 10.680989583333332  C 15.54541015625 10.579427083333332  15.5 10.449652777777777  15.5 10.291666666666668  L 15.5 9.208333333333332  C 15.5 9.050347222222223  15.54541015625 8.920572916666668  15.63623046875 8.819010416666668  C 15.72705078125 8.717447916666668  15.843098958333334 8.666666666666668  15.984375 9  L 26.640625 9  C 26.781901041666668 8.666666666666668  26.89794921875 8.717447916666668  26.98876953125 8.819010416666668  Z M 28.918701171875 23.672526041666668  C 29.014567057291668 23.565321180555557  29.062500000000004 23.438368055555557  29 23.291666666666668  L 29 4.333333333333332  L 2 4.333333333333332  L 2 23.291666666666668  C 1.9375 23.438368055555557  1.9854329427083337 23.565321180555557  2.081298828125 23.672526041666668  C 2.177164713541667 23.77973090277778  2.290690104166667 23.833333333333332  2.421875 23.833333333333332  L 28.578125 23.833333333333332  C 28.709309895833336 23.833333333333332  28.822835286458336 23.77973090277778  28.918701171875 23.672526041666668  Z M 30.28857421875 0.7955729166666676  C 30.762858072916668 1.3259548611111098  31 1.9635416666666676  31 2.708333333333332  L 31 23.291666666666668  C 31 24.036458333333332  30.762858072916668 24.67404513888889  30.28857421875 25.204427083333332  C 29.814290364583336 25.73480902777778  29.244140625 26  28.578125 26  L 2.421875 26  C 1.755859375 26  1.1857096354166667 25.73480902777778  0.71142578125 25.204427083333332  C 0.23714192708333331 24.67404513888889  0 24.036458333333332  0 23.291666666666668  L 0 2.708333333333332  C 0 1.9635416666666676  0.23714192708333331 1.3259548611111098  0.71142578125 0.7955729166666676  C 1.1857096354166667 0.26519097222221966  1.755859375 0  2.421875 0  L 28.578125 0  C 29.244140625 0  29.814290364583336 0.26519097222221966  30.28857421875 0.7955729166666676  Z " fill-rule="evenodd" />
    </mask>
  </defs>
  <g transform="matrix(1 0 0 1 -208 -269 )">
    <path d="M 13.448974609375 16.647786458333336  C 13.524658203125 17.172526041666664  13.5625 17.739583333333336  13.5625 18.348958333333336  C 13.5625 18.969618055555554  13.403564453125 19.497178819444446  13.085693359375 19.931640625  C 12.767822265625 20.366102430555557  12.386881510416668 20.583333333333332  11.94287109375 20.583333333333332  L 5.49462890625 20.583333333333332  C 5.050618489583334 20.583333333333332  4.669677734375 20.366102430555557  4.351806640625 19.931640625  C 4.033935546875 19.497178819444446  3.875 18.969618055555554  3.875 18.348958333333336  C 3.875 17.739583333333336  3.912841796875 17.172526041666664  3.988525390625 16.647786458333336  C 4.064208984375 16.123046875  4.187825520833334 15.615234375  4.359375 15.124348958333336  C 4.530924479166667 14.633463541666664  4.788248697916667 14.246961805555555  5.13134765625 13.96484375  C 5.474446614583334 13.682725694444445  5.883138020833334 13.541666666666664  6.357421875 13.541666666666664  C 7.003255208333334 14.26388888888889  7.790364583333335 14.625  8.71875 14.625  C 9.647135416666668 14.625  10.434244791666668 14.26388888888889  11.080078125 13.541666666666664  C 11.554361979166668 13.541666666666664  11.963053385416668 13.682725694444445  12.30615234375 13.96484375  C 12.649251302083334 14.246961805555555  12.906575520833334 14.633463541666664  13.078125 15.124348958333336  C 13.249674479166668 15.615234375  13.373291015625 16.123046875  13.448974609375 16.647786458333336  Z M 10.77734375 8.53125  C 11.342447916666666 9.163194444444443  11.625 9.930555555555555  11.625 10.833333333333332  C 11.625 11.73611111111111  11.342447916666666 12.503472222222223  10.77734375 13.135416666666664  C 10.212239583333334 13.76736111111111  9.526041666666668 14.083333333333336  8.71875 14.083333333333336  C 7.911458333333335 14.083333333333336  7.225260416666667 13.76736111111111  6.66015625 13.135416666666664  C 6.095052083333333 12.503472222222223  5.8125 11.73611111111111  5.8125 10.833333333333332  C 5.8125 9.930555555555555  6.095052083333333 9.163194444444443  6.66015625 8.53125  C 7.225260416666667 7.899305555555552  7.911458333333335 7.583333333333332  8.71875 7.583333333333332  C 9.526041666666668 7.583333333333332  10.212239583333334 7.899305555555552  10.77734375 8.53125  Z M 26.98876953125 17.485677083333336  C 27.07958984375 17.587239583333336  27.125 17.717013888888886  27.125 17.875  L 27.125 18.958333333333336  C 27.125 19.116319444444446  27.07958984375 19.24609375  26.98876953125 19.34765625  C 26.89794921875 19.44921875  26.781901041666668 19.5  26.640625 19  L 15.984375 19  C 15.843098958333334 19.5  15.72705078125 19.44921875  15.63623046875 19.34765625  C 15.54541015625 19.24609375  15.5 19.116319444444446  15.5 18.958333333333336  L 15.5 17.875  C 15.5 17.717013888888886  15.54541015625 17.587239583333336  15.63623046875 17.485677083333336  C 15.72705078125 17.384114583333336  15.843098958333334 17.333333333333336  15.984375 17  L 26.640625 17  C 26.781901041666668 17.333333333333336  26.89794921875 17.384114583333336  26.98876953125 17.485677083333336  Z M 21.17626953125 13.15234375  C 21.26708984375 13.25390625  21.3125 13.383680555555555  21.3125 13.541666666666664  L 21.3125 14.625  C 21.3125 14.78298611111111  21.26708984375 14.912760416666664  21.17626953125 15.014322916666664  C 21.08544921875 15.115885416666664  20.969401041666668 15.166666666666664  20.828125 15.166666666666664  L 15.984375 15.166666666666664  C 15.843098958333334 15.166666666666664  15.72705078125 15.115885416666664  15.63623046875 15.014322916666664  C 15.54541015625 14.912760416666664  15.5 14.78298611111111  15.5 14.625  L 15.5 13.541666666666664  C 15.5 13.383680555555555  15.54541015625 13.25390625  15.63623046875 13.15234375  C 15.72705078125 13.05078125  15.843098958333334 13  15.984375 13  L 20.828125 13  C 20.969401041666668 13  21.08544921875 13.05078125  21.17626953125 13.15234375  Z M 26.98876953125 13.15234375  C 27.07958984375 13.25390625  27.125 13.383680555555555  27.125 13.541666666666664  L 27.125 14.625  C 27.125 14.78298611111111  27.07958984375 14.912760416666664  26.98876953125 15.014322916666664  C 26.89794921875 15.115885416666664  26.781901041666668 15.166666666666664  26.640625 15.166666666666664  L 23.734375 15.166666666666664  C 23.59309895833334 15.166666666666664  23.477050781250004 15.115885416666664  23.38623046875 15.014322916666664  C 23.29541015625 14.912760416666664  23.25 14.78298611111111  23.25 14.625  L 23.25 13.541666666666664  C 23.25 13.383680555555555  23.29541015625 13.25390625  23.38623046875 13.15234375  C 23.477050781250004 13.05078125  23.59309895833334 13  23.734375 13  L 26.640625 13  C 26.781901041666668 13  26.89794921875 13.05078125  26.98876953125 13.15234375  Z M 26.98876953125 8.819010416666668  C 27.07958984375 8.920572916666668  27.125 9.050347222222223  27.125 9.208333333333332  L 27.125 10.291666666666668  C 27.125 10.449652777777777  27.07958984375 10.579427083333332  26.98876953125 10.680989583333332  C 26.89794921875 10.782552083333332  26.781901041666668 10.833333333333332  26.640625 11  L 15.984375 11  C 15.843098958333334 10.833333333333332  15.72705078125 10.782552083333332  15.63623046875 10.680989583333332  C 15.54541015625 10.579427083333332  15.5 10.449652777777777  15.5 10.291666666666668  L 15.5 9.208333333333332  C 15.5 9.050347222222223  15.54541015625 8.920572916666668  15.63623046875 8.819010416666668  C 15.72705078125 8.717447916666668  15.843098958333334 8.666666666666668  15.984375 9  L 26.640625 9  C 26.781901041666668 8.666666666666668  26.89794921875 8.717447916666668  26.98876953125 8.819010416666668  Z M 28.918701171875 23.672526041666668  C 29.014567057291668 23.565321180555557  29.062500000000004 23.438368055555557  29 23.291666666666668  L 29 4.333333333333332  L 2 4.333333333333332  L 2 23.291666666666668  C 1.9375 23.438368055555557  1.9854329427083337 23.565321180555557  2.081298828125 23.672526041666668  C 2.177164713541667 23.77973090277778  2.290690104166667 23.833333333333332  2.421875 23.833333333333332  L 28.578125 23.833333333333332  C 28.709309895833336 23.833333333333332  28.822835286458336 23.77973090277778  28.918701171875 23.672526041666668  Z M 30.28857421875 0.7955729166666676  C 30.762858072916668 1.3259548611111098  31 1.9635416666666676  31 2.708333333333332  L 31 23.291666666666668  C 31 24.036458333333332  30.762858072916668 24.67404513888889  30.28857421875 25.204427083333332  C 29.814290364583336 25.73480902777778  29.244140625 26  28.578125 26  L 2.421875 26  C 1.755859375 26  1.1857096354166667 25.73480902777778  0.71142578125 25.204427083333332  C 0.23714192708333331 24.67404513888889  0 24.036458333333332  0 23.291666666666668  L 0 2.708333333333332  C 0 1.9635416666666676  0.23714192708333331 1.3259548611111098  0.71142578125 0.7955729166666676  C 1.1857096354166667 0.26519097222221966  1.755859375 0  2.421875 0  L 28.578125 0  C 29.244140625 0  29.814290364583336 0.26519097222221966  30.28857421875 0.7955729166666676  Z " fill-rule="nonzero" fill="rgba(255, 255, 255, 1)" stroke="none" transform="matrix(1 0 0 1 208 269 )" class="fill" />
    <path d="M 13.448974609375 16.647786458333336  C 13.524658203125 17.172526041666664  13.5625 17.739583333333336  13.5625 18.348958333333336  C 13.5625 18.969618055555554  13.403564453125 19.497178819444446  13.085693359375 19.931640625  C 12.767822265625 20.366102430555557  12.386881510416668 20.583333333333332  11.94287109375 20.583333333333332  L 5.49462890625 20.583333333333332  C 5.050618489583334 20.583333333333332  4.669677734375 20.366102430555557  4.351806640625 19.931640625  C 4.033935546875 19.497178819444446  3.875 18.969618055555554  3.875 18.348958333333336  C 3.875 17.739583333333336  3.912841796875 17.172526041666664  3.988525390625 16.647786458333336  C 4.064208984375 16.123046875  4.187825520833334 15.615234375  4.359375 15.124348958333336  C 4.530924479166667 14.633463541666664  4.788248697916667 14.246961805555555  5.13134765625 13.96484375  C 5.474446614583334 13.682725694444445  5.883138020833334 13.541666666666664  6.357421875 13.541666666666664  C 7.003255208333334 14.26388888888889  7.790364583333335 14.625  8.71875 14.625  C 9.647135416666668 14.625  10.434244791666668 14.26388888888889  11.080078125 13.541666666666664  C 11.554361979166668 13.541666666666664  11.963053385416668 13.682725694444445  12.30615234375 13.96484375  C 12.649251302083334 14.246961805555555  12.906575520833334 14.633463541666664  13.078125 15.124348958333336  C 13.249674479166668 15.615234375  13.373291015625 16.123046875  13.448974609375 16.647786458333336  Z " stroke-width="0" stroke-dasharray="0" stroke="rgba(255, 255, 255, 0)" fill="none" transform="matrix(1 0 0 1 208 269 )" class="stroke" mask="url(#Clip7)" />
    <path d="M 10.77734375 8.53125  C 11.342447916666666 9.163194444444443  11.625 9.930555555555555  11.625 10.833333333333332  C 11.625 11.73611111111111  11.342447916666666 12.503472222222223  10.77734375 13.135416666666664  C 10.212239583333334 13.76736111111111  9.526041666666668 14.083333333333336  8.71875 14.083333333333336  C 7.911458333333335 14.083333333333336  7.225260416666667 13.76736111111111  6.66015625 13.135416666666664  C 6.095052083333333 12.503472222222223  5.8125 11.73611111111111  5.8125 10.833333333333332  C 5.8125 9.930555555555555  6.095052083333333 9.163194444444443  6.66015625 8.53125  C 7.225260416666667 7.899305555555552  7.911458333333335 7.583333333333332  8.71875 7.583333333333332  C 9.526041666666668 7.583333333333332  10.212239583333334 7.899305555555552  10.77734375 8.53125  Z " stroke-width="0" stroke-dasharray="0" stroke="rgba(255, 255, 255, 0)" fill="none" transform="matrix(1 0 0 1 208 269 )" class="stroke" mask="url(#Clip7)" />
    <path d="M 26.98876953125 17.485677083333336  C 27.07958984375 17.587239583333336  27.125 17.717013888888886  27.125 17.875  L 27.125 18.958333333333336  C 27.125 19.116319444444446  27.07958984375 19.24609375  26.98876953125 19.34765625  C 26.89794921875 19.44921875  26.781901041666668 19.5  26.640625 19  L 15.984375 19  C 15.843098958333334 19.5  15.72705078125 19.44921875  15.63623046875 19.34765625  C 15.54541015625 19.24609375  15.5 19.116319444444446  15.5 18.958333333333336  L 15.5 17.875  C 15.5 17.717013888888886  15.54541015625 17.587239583333336  15.63623046875 17.485677083333336  C 15.72705078125 17.384114583333336  15.843098958333334 17.333333333333336  15.984375 17  L 26.640625 17  C 26.781901041666668 17.333333333333336  26.89794921875 17.384114583333336  26.98876953125 17.485677083333336  Z " stroke-width="0" stroke-dasharray="0" stroke="rgba(255, 255, 255, 0)" fill="none" transform="matrix(1 0 0 1 208 269 )" class="stroke" mask="url(#Clip7)" />
    <path d="M 21.17626953125 13.15234375  C 21.26708984375 13.25390625  21.3125 13.383680555555555  21.3125 13.541666666666664  L 21.3125 14.625  C 21.3125 14.78298611111111  21.26708984375 14.912760416666664  21.17626953125 15.014322916666664  C 21.08544921875 15.115885416666664  20.969401041666668 15.166666666666664  20.828125 15.166666666666664  L 15.984375 15.166666666666664  C 15.843098958333334 15.166666666666664  15.72705078125 15.115885416666664  15.63623046875 15.014322916666664  C 15.54541015625 14.912760416666664  15.5 14.78298611111111  15.5 14.625  L 15.5 13.541666666666664  C 15.5 13.383680555555555  15.54541015625 13.25390625  15.63623046875 13.15234375  C 15.72705078125 13.05078125  15.843098958333334 13  15.984375 13  L 20.828125 13  C 20.969401041666668 13  21.08544921875 13.05078125  21.17626953125 13.15234375  Z " stroke-width="0" stroke-dasharray="0" stroke="rgba(255, 255, 255, 0)" fill="none" transform="matrix(1 0 0 1 208 269 )" class="stroke" mask="url(#Clip7)" />
    <path d="M 26.98876953125 13.15234375  C 27.07958984375 13.25390625  27.125 13.383680555555555  27.125 13.541666666666664  L 27.125 14.625  C 27.125 14.78298611111111  27.07958984375 14.912760416666664  26.98876953125 15.014322916666664  C 26.89794921875 15.115885416666664  26.781901041666668 15.166666666666664  26.640625 15.166666666666664  L 23.734375 15.166666666666664  C 23.59309895833334 15.166666666666664  23.477050781250004 15.115885416666664  23.38623046875 15.014322916666664  C 23.29541015625 14.912760416666664  23.25 14.78298611111111  23.25 14.625  L 23.25 13.541666666666664  C 23.25 13.383680555555555  23.29541015625 13.25390625  23.38623046875 13.15234375  C 23.477050781250004 13.05078125  23.59309895833334 13  23.734375 13  L 26.640625 13  C 26.781901041666668 13  26.89794921875 13.05078125  26.98876953125 13.15234375  Z " stroke-width="0" stroke-dasharray="0" stroke="rgba(255, 255, 255, 0)" fill="none" transform="matrix(1 0 0 1 208 269 )" class="stroke" mask="url(#Clip7)" />
    <path d="M 26.98876953125 8.819010416666668  C 27.07958984375 8.920572916666668  27.125 9.050347222222223  27.125 9.208333333333332  L 27.125 10.291666666666668  C 27.125 10.449652777777777  27.07958984375 10.579427083333332  26.98876953125 10.680989583333332  C 26.89794921875 10.782552083333332  26.781901041666668 10.833333333333332  26.640625 11  L 15.984375 11  C 15.843098958333334 10.833333333333332  15.72705078125 10.782552083333332  15.63623046875 10.680989583333332  C 15.54541015625 10.579427083333332  15.5 10.449652777777777  15.5 10.291666666666668  L 15.5 9.208333333333332  C 15.5 9.050347222222223  15.54541015625 8.920572916666668  15.63623046875 8.819010416666668  C 15.72705078125 8.717447916666668  15.843098958333334 8.666666666666668  15.984375 9  L 26.640625 9  C 26.781901041666668 8.666666666666668  26.89794921875 8.717447916666668  26.98876953125 8.819010416666668  Z " stroke-width="0" stroke-dasharray="0" stroke="rgba(255, 255, 255, 0)" fill="none" transform="matrix(1 0 0 1 208 269 )" class="stroke" mask="url(#Clip7)" />
    <path d="M 28.918701171875 23.672526041666668  C 29.014567057291668 23.565321180555557  29.062500000000004 23.438368055555557  29 23.291666666666668  L 29 4.333333333333332  L 2 4.333333333333332  L 2 23.291666666666668  C 1.9375 23.438368055555557  1.9854329427083337 23.565321180555557  2.081298828125 23.672526041666668  C 2.177164713541667 23.77973090277778  2.290690104166667 23.833333333333332  2.421875 23.833333333333332  L 28.578125 23.833333333333332  C 28.709309895833336 23.833333333333332  28.822835286458336 23.77973090277778  28.918701171875 23.672526041666668  Z " stroke-width="0" stroke-dasharray="0" stroke="rgba(255, 255, 255, 0)" fill="none" transform="matrix(1 0 0 1 208 269 )" class="stroke" mask="url(#Clip7)" />
    <path d="M 30.28857421875 0.7955729166666676  C 30.762858072916668 1.3259548611111098  31 1.9635416666666676  31 2.708333333333332  L 31 23.291666666666668  C 31 24.036458333333332  30.762858072916668 24.67404513888889  30.28857421875 25.204427083333332  C 29.814290364583336 25.73480902777778  29.244140625 26  28.578125 26  L 2.421875 26  C 1.755859375 26  1.1857096354166667 25.73480902777778  0.71142578125 25.204427083333332  C 0.23714192708333331 24.67404513888889  0 24.036458333333332  0 23.291666666666668  L 0 2.708333333333332  C 0 1.9635416666666676  0.23714192708333331 1.3259548611111098  0.71142578125 0.7955729166666676  C 1.1857096354166667 0.26519097222221966  1.755859375 0  2.421875 0  L 28.578125 0  C 29.244140625 0  29.814290364583336 0.26519097222221966  30.28857421875 0.7955729166666676  Z " stroke-width="0" stroke-dasharray="0" stroke="rgba(255, 255, 255, 0)" fill="none" transform="matrix(1 0 0 1 208 269 )" class="stroke" mask="url(#Clip7)" />
  </g>
</svg>