<?xml version="1.0" encoding="utf-8"?>
<svg version="1.1" xmlns:xlink="http://www.w3.org/1999/xlink" width="38px" height="30px" xmlns="http://www.w3.org/2000/svg">
  <defs>
    <pattern id="BGPattern" patternUnits="userSpaceOnUse" alignment="0 0" imageRepeat="None" />
    <mask fill="white" id="Clip8">
      <path d="M 27.86383928571429 5.429382540809085  C 29.192708333333336 7.104329311568485  29.857142857142858 8.92831795599716  29.857142857142858 10.901348474095101  C 29.857142857142858 12.874378992193042  29.192708333333336 14.698367636621715  27.86383928571429 16.373314407381123  C 26.53497023809524 18.04826117814052  24.721912202380956 19.37189496096522  22.42466517857143 20.344215755855217  C 20.127418154761905 21.316536550745205  17.62872023809524 21.802696948190206  14.928571428571429 21.802696948190206  C 13.71279761904762 21.802696948190206  12.46875 21.689141234918377  11.196428571428571 21.462029808374737  C 9.443452380952381 22.7111426543648  7.4784226190476195 23.61958836053939  5.301339285714286 24.18736692689851  C 4.792410714285714 24.315117104329314  4.18452380952381 24.428672817601132  3.477678571428571 24.52803406671398  L 3.4140625 24.52803406671398  C 3.2585565476190483 24.52803406671398  3.113653273809524 24.47125621007807  2.979352678571429 24.357700496806245  C 2.8450520833333335 24.244144783534423  2.7637648809523814 24.095102909865155  2.735491071428571 23.91057487579844  C 2.721354166666667 23.867991483321504  2.714285714285714 23.821859474804825  2.714285714285714 23.772178850248405  C 2.714285714285714 23.722498225691982  2.717819940476191 23.676366217175303  2.724888392857143 23.633782824698365  C 2.7319568452380953 23.591199432221433  2.74609375 23.548616039744502  2.767299107142857 23.506032647267567  L 2.8203125 23.399574166075233  C 2.8203125 23.399574166075233  2.8450520833333335 23.360539389638042  2.89453125 23.28246983676366  C 2.944010416666667 23.20440028388928  2.9722842261904763 23.16891412349184  2.979352678571429 23.17601135557133  C 2.9864211309523814 23.183108587650814  3.018229166666667 23.147622427253374  3.074776785714286 23.069552874378992  C 3.131324404761905 22.99148332150461  3.159598214285714 22.959545777146914  3.159598214285714 22.97374024130589  C 3.230282738095238 22.88857345635202  3.392857142857143 22.711142654364796  3.647321428571429 22.441447835344214  C 3.901785714285714 22.17175301632363  4.085565476190476 21.96238466997871  4.198660714285714 21.813342796309442  C 4.3117559523809526 21.664300922640173  4.470796130952381 21.458481192334986  4.67578125 21.195883605393895  C 4.8807663690476195 20.9332860184528  5.057477678571428 20.660042583392475  5.205915178571428 20.37615330021292  C 5.354352678571428 20.092264017033354  5.4992559523809526 19.779985805535844  5.640625 19.439318665720368  C 3.887648809523809 18.417317246273953  2.5093005952380953 17.1611071682044  1.505580357142857 15.67068843151171  C 0.501860119047619 14.180269694819021  0 12.590489709013482  0 10.901348474095101  C 0 8.92831795599716  0.6644345238095238 7.104329311568485  1.9933035714285714 5.429382540809085  C 3.3221726190476195 3.7544357700496778  5.135230654761905 2.430801987224979  7.432477678571428 1.4584811923349905  C 9.729724702380953 0.48616039744499573  12.22842261904762 0  14.928571428571429 0  C 17.62872023809524 0  20.127418154761905 0.48616039744499573  22.42466517857143 1.4584811923349905  C 24.721912202380956 2.430801987224979  26.53497023809524 3.7544357700496778  27.86383928571429 5.429382540809085  Z M 36.409598214285715 11.454932576295246  C 37.46986607142857 12.973740241305888  38 14.60610361958836  38 16.352022711142656  C 38 18.055358410220013  37.49813988095239 19.64868701206529  36.494419642857146 21.132008516678493  C 35.49069940476191 22.615330021291697  34.1123511904762 23.867991483321504  32.359375 24.889992902767922  C 32.500744047619044 25.23066004258339  32.64564732142857 25.54293825408091  32.79408482142857 25.826827537260467  C 32.94252232142858 26.11071682044003  33.11923363095239 26.38396025550036  33.32421875 26.64655784244145  C 33.52920386904762 26.909155429382537  33.68824404761905 27.11497515968772  33.801339285714285 27.26401703335699  C 33.914434523809526 27.413058907026258  34.09821428571429 27.622427253371185  34.35267857142857 27.892122072391768  C 34.60714285714286 28.16181689141235  34.769717261904766 28.339247693399575  34.840401785714285 28.42441447835344  C 34.8545386904762 28.438608942512424  34.88281250000001 28.470546486870123  34.925223214285715 28.520227111426546  C 34.96763392857144 28.569907735982966  34.999441964285715 28.605393896380413  35.02064732142857 28.626685592618877  C 35.04185267857144 28.647977288857344  35.07012648809524 28.68346344925479  35.10546875 28.733144073811214  C 35.14081101190476 28.782824698367634  35.1655505952381 28.821859474804825  35.1796875 28.85024840312278  L 35.232700892857146 28.956706884315118  C 35.232700892857146 28.956706884315118  35.24683779761905 28.99929027679205  35.275111607142854 29.08445706174592  C 35.30338541666667 29.169623846699785  35.306919642857146 29.215755855216468  35.285714285714285 29.222853087295952  C 35.26450892857143 29.22995031937544  35.25744047619048 29.276082327892123  35.26450892857143 29.36124911284599  C 35.222098214285715 29.55997161107168  35.130208333333336 29.71611071682044  34.988839285714285 29.829666430092264  C 34.84747023809524 29.943222143364085  34.691964285714285 29.992902767920512  34.52232142857143 29.978708303761533  C 33.8154761904762 29.879347054648687  33.20758928571429 29.76579134137686  32.698660714285715 29.638041163946063  C 30.521577380952387 29.07026259758694  28.55654761904762 28.16181689141235  26.80357142857143 26.912704045422284  C 25.53125 27.139815471965935  24.287202380952387 27.253371185237757  23.07142857142857 27.253371185237757  C 19.24032738095238 27.253371185237757  15.904017857142856 26.31653655074521  13.0625 24.442867281760115  C 13.882440476190478 24.499645138396026  14.504464285714285 24.52803406671398  14.928571428571429 24.52803406671398  C 17.204613095238095 24.52803406671398  19.38876488095238 24.208658623136976  21.48102678571429 23.569907735982966  C 23.573288690476193 22.93115684882896  25.43936011904762 22.015613910574878  27.07924107142857 20.823278921220727  C 28.846354166666668 19.517388218594746  30.20349702380953 18.01277501774308  31.150669642857142 16.30943931866572  C 32.09784226190476 14.60610361958836  32.57142857142857 12.803406671398152  32.57142857142857 10.901348474095101  C 32.57142857142857 9.808374733853796  32.408854166666664 8.729595457771469  32.083705357142854 7.665010645848119  C 33.90736607142857 8.672817601135556  35.349330357142854 9.936124911284598  36.409598214285715 11.454932576295246  Z " fill-rule="evenodd" />
    </mask>
  </defs>
  <g transform="matrix(1 0 0 1 -206 -434 )">
    <path d="M 27.86383928571429 5.429382540809085  C 29.192708333333336 7.104329311568485  29.857142857142858 8.92831795599716  29.857142857142858 10.901348474095101  C 29.857142857142858 12.874378992193042  29.192708333333336 14.698367636621715  27.86383928571429 16.373314407381123  C 26.53497023809524 18.04826117814052  24.721912202380956 19.37189496096522  22.42466517857143 20.344215755855217  C 20.127418154761905 21.316536550745205  17.62872023809524 21.802696948190206  14.928571428571429 21.802696948190206  C 13.71279761904762 21.802696948190206  12.46875 21.689141234918377  11.196428571428571 21.462029808374737  C 9.443452380952381 22.7111426543648  7.4784226190476195 23.61958836053939  5.301339285714286 24.18736692689851  C 4.792410714285714 24.315117104329314  4.18452380952381 24.428672817601132  3.477678571428571 24.52803406671398  L 3.4140625 24.52803406671398  C 3.2585565476190483 24.52803406671398  3.113653273809524 24.47125621007807  2.979352678571429 24.357700496806245  C 2.8450520833333335 24.244144783534423  2.7637648809523814 24.095102909865155  2.735491071428571 23.91057487579844  C 2.721354166666667 23.867991483321504  2.714285714285714 23.821859474804825  2.714285714285714 23.772178850248405  C 2.714285714285714 23.722498225691982  2.717819940476191 23.676366217175303  2.724888392857143 23.633782824698365  C 2.7319568452380953 23.591199432221433  2.74609375 23.548616039744502  2.767299107142857 23.506032647267567  L 2.8203125 23.399574166075233  C 2.8203125 23.399574166075233  2.8450520833333335 23.360539389638042  2.89453125 23.28246983676366  C 2.944010416666667 23.20440028388928  2.9722842261904763 23.16891412349184  2.979352678571429 23.17601135557133  C 2.9864211309523814 23.183108587650814  3.018229166666667 23.147622427253374  3.074776785714286 23.069552874378992  C 3.131324404761905 22.99148332150461  3.159598214285714 22.959545777146914  3.159598214285714 22.97374024130589  C 3.230282738095238 22.88857345635202  3.392857142857143 22.711142654364796  3.647321428571429 22.441447835344214  C 3.901785714285714 22.17175301632363  4.085565476190476 21.96238466997871  4.198660714285714 21.813342796309442  C 4.3117559523809526 21.664300922640173  4.470796130952381 21.458481192334986  4.67578125 21.195883605393895  C 4.8807663690476195 20.9332860184528  5.057477678571428 20.660042583392475  5.205915178571428 20.37615330021292  C 5.354352678571428 20.092264017033354  5.4992559523809526 19.779985805535844  5.640625 19.439318665720368  C 3.887648809523809 18.417317246273953  2.5093005952380953 17.1611071682044  1.505580357142857 15.67068843151171  C 0.501860119047619 14.180269694819021  0 12.590489709013482  0 10.901348474095101  C 0 8.92831795599716  0.6644345238095238 7.104329311568485  1.9933035714285714 5.429382540809085  C 3.3221726190476195 3.7544357700496778  5.135230654761905 2.430801987224979  7.432477678571428 1.4584811923349905  C 9.729724702380953 0.48616039744499573  12.22842261904762 0  14.928571428571429 0  C 17.62872023809524 0  20.127418154761905 0.48616039744499573  22.42466517857143 1.4584811923349905  C 24.721912202380956 2.430801987224979  26.53497023809524 3.7544357700496778  27.86383928571429 5.429382540809085  Z M 36.409598214285715 11.454932576295246  C 37.46986607142857 12.973740241305888  38 14.60610361958836  38 16.352022711142656  C 38 18.055358410220013  37.49813988095239 19.64868701206529  36.494419642857146 21.132008516678493  C 35.49069940476191 22.615330021291697  34.1123511904762 23.867991483321504  32.359375 24.889992902767922  C 32.500744047619044 25.23066004258339  32.64564732142857 25.54293825408091  32.79408482142857 25.826827537260467  C 32.94252232142858 26.11071682044003  33.11923363095239 26.38396025550036  33.32421875 26.64655784244145  C 33.52920386904762 26.909155429382537  33.68824404761905 27.11497515968772  33.801339285714285 27.26401703335699  C 33.914434523809526 27.413058907026258  34.09821428571429 27.622427253371185  34.35267857142857 27.892122072391768  C 34.60714285714286 28.16181689141235  34.769717261904766 28.339247693399575  34.840401785714285 28.42441447835344  C 34.8545386904762 28.438608942512424  34.88281250000001 28.470546486870123  34.925223214285715 28.520227111426546  C 34.96763392857144 28.569907735982966  34.999441964285715 28.605393896380413  35.02064732142857 28.626685592618877  C 35.04185267857144 28.647977288857344  35.07012648809524 28.68346344925479  35.10546875 28.733144073811214  C 35.14081101190476 28.782824698367634  35.1655505952381 28.821859474804825  35.1796875 28.85024840312278  L 35.232700892857146 28.956706884315118  C 35.232700892857146 28.956706884315118  35.24683779761905 28.99929027679205  35.275111607142854 29.08445706174592  C 35.30338541666667 29.169623846699785  35.306919642857146 29.215755855216468  35.285714285714285 29.222853087295952  C 35.26450892857143 29.22995031937544  35.25744047619048 29.276082327892123  35.26450892857143 29.36124911284599  C 35.222098214285715 29.55997161107168  35.130208333333336 29.71611071682044  34.988839285714285 29.829666430092264  C 34.84747023809524 29.943222143364085  34.691964285714285 29.992902767920512  34.52232142857143 29.978708303761533  C 33.8154761904762 29.879347054648687  33.20758928571429 29.76579134137686  32.698660714285715 29.638041163946063  C 30.521577380952387 29.07026259758694  28.55654761904762 28.16181689141235  26.80357142857143 26.912704045422284  C 25.53125 27.139815471965935  24.287202380952387 27.253371185237757  23.07142857142857 27.253371185237757  C 19.24032738095238 27.253371185237757  15.904017857142856 26.31653655074521  13.0625 24.442867281760115  C 13.882440476190478 24.499645138396026  14.504464285714285 24.52803406671398  14.928571428571429 24.52803406671398  C 17.204613095238095 24.52803406671398  19.38876488095238 24.208658623136976  21.48102678571429 23.569907735982966  C 23.573288690476193 22.93115684882896  25.43936011904762 22.015613910574878  27.07924107142857 20.823278921220727  C 28.846354166666668 19.517388218594746  30.20349702380953 18.01277501774308  31.150669642857142 16.30943931866572  C 32.09784226190476 14.60610361958836  32.57142857142857 12.803406671398152  32.57142857142857 10.901348474095101  C 32.57142857142857 9.808374733853796  32.408854166666664 8.729595457771469  32.083705357142854 7.665010645848119  C 33.90736607142857 8.672817601135556  35.349330357142854 9.936124911284598  36.409598214285715 11.454932576295246  Z " fill-rule="nonzero" fill="rgba(255, 255, 255, 1)" stroke="none" transform="matrix(1 0 0 1 206 434 )" class="fill" />
    <path d="M 27.86383928571429 5.429382540809085  C 29.192708333333336 7.104329311568485  29.857142857142858 8.92831795599716  29.857142857142858 10.901348474095101  C 29.857142857142858 12.874378992193042  29.192708333333336 14.698367636621715  27.86383928571429 16.373314407381123  C 26.53497023809524 18.04826117814052  24.721912202380956 19.37189496096522  22.42466517857143 20.344215755855217  C 20.127418154761905 21.316536550745205  17.62872023809524 21.802696948190206  14.928571428571429 21.802696948190206  C 13.71279761904762 21.802696948190206  12.46875 21.689141234918377  11.196428571428571 21.462029808374737  C 9.443452380952381 22.7111426543648  7.4784226190476195 23.61958836053939  5.301339285714286 24.18736692689851  C 4.792410714285714 24.315117104329314  4.18452380952381 24.428672817601132  3.477678571428571 24.52803406671398  L 3.4140625 24.52803406671398  C 3.2585565476190483 24.52803406671398  3.113653273809524 24.47125621007807  2.979352678571429 24.357700496806245  C 2.8450520833333335 24.244144783534423  2.7637648809523814 24.095102909865155  2.735491071428571 23.91057487579844  C 2.721354166666667 23.867991483321504  2.714285714285714 23.821859474804825  2.714285714285714 23.772178850248405  C 2.714285714285714 23.722498225691982  2.717819940476191 23.676366217175303  2.724888392857143 23.633782824698365  C 2.7319568452380953 23.591199432221433  2.74609375 23.548616039744502  2.767299107142857 23.506032647267567  L 2.8203125 23.399574166075233  C 2.8203125 23.399574166075233  2.8450520833333335 23.360539389638042  2.89453125 23.28246983676366  C 2.944010416666667 23.20440028388928  2.9722842261904763 23.16891412349184  2.979352678571429 23.17601135557133  C 2.9864211309523814 23.183108587650814  3.018229166666667 23.147622427253374  3.074776785714286 23.069552874378992  C 3.131324404761905 22.99148332150461  3.159598214285714 22.959545777146914  3.159598214285714 22.97374024130589  C 3.230282738095238 22.88857345635202  3.392857142857143 22.711142654364796  3.647321428571429 22.441447835344214  C 3.901785714285714 22.17175301632363  4.085565476190476 21.96238466997871  4.198660714285714 21.813342796309442  C 4.3117559523809526 21.664300922640173  4.470796130952381 21.458481192334986  4.67578125 21.195883605393895  C 4.8807663690476195 20.9332860184528  5.057477678571428 20.660042583392475  5.205915178571428 20.37615330021292  C 5.354352678571428 20.092264017033354  5.4992559523809526 19.779985805535844  5.640625 19.439318665720368  C 3.887648809523809 18.417317246273953  2.5093005952380953 17.1611071682044  1.505580357142857 15.67068843151171  C 0.501860119047619 14.180269694819021  0 12.590489709013482  0 10.901348474095101  C 0 8.92831795599716  0.6644345238095238 7.104329311568485  1.9933035714285714 5.429382540809085  C 3.3221726190476195 3.7544357700496778  5.135230654761905 2.430801987224979  7.432477678571428 1.4584811923349905  C 9.729724702380953 0.48616039744499573  12.22842261904762 0  14.928571428571429 0  C 17.62872023809524 0  20.127418154761905 0.48616039744499573  22.42466517857143 1.4584811923349905  C 24.721912202380956 2.430801987224979  26.53497023809524 3.7544357700496778  27.86383928571429 5.429382540809085  Z " stroke-width="0" stroke-dasharray="0" stroke="rgba(255, 255, 255, 0)" fill="none" transform="matrix(1 0 0 1 206 434 )" class="stroke" mask="url(#Clip8)" />
    <path d="M 36.409598214285715 11.454932576295246  C 37.46986607142857 12.973740241305888  38 14.60610361958836  38 16.352022711142656  C 38 18.055358410220013  37.49813988095239 19.64868701206529  36.494419642857146 21.132008516678493  C 35.49069940476191 22.615330021291697  34.1123511904762 23.867991483321504  32.359375 24.889992902767922  C 32.500744047619044 25.23066004258339  32.64564732142857 25.54293825408091  32.79408482142857 25.826827537260467  C 32.94252232142858 26.11071682044003  33.11923363095239 26.38396025550036  33.32421875 26.64655784244145  C 33.52920386904762 26.909155429382537  33.68824404761905 27.11497515968772  33.801339285714285 27.26401703335699  C 33.914434523809526 27.413058907026258  34.09821428571429 27.622427253371185  34.35267857142857 27.892122072391768  C 34.60714285714286 28.16181689141235  34.769717261904766 28.339247693399575  34.840401785714285 28.42441447835344  C 34.8545386904762 28.438608942512424  34.88281250000001 28.470546486870123  34.925223214285715 28.520227111426546  C 34.96763392857144 28.569907735982966  34.999441964285715 28.605393896380413  35.02064732142857 28.626685592618877  C 35.04185267857144 28.647977288857344  35.07012648809524 28.68346344925479  35.10546875 28.733144073811214  C 35.14081101190476 28.782824698367634  35.1655505952381 28.821859474804825  35.1796875 28.85024840312278  L 35.232700892857146 28.956706884315118  C 35.232700892857146 28.956706884315118  35.24683779761905 28.99929027679205  35.275111607142854 29.08445706174592  C 35.30338541666667 29.169623846699785  35.306919642857146 29.215755855216468  35.285714285714285 29.222853087295952  C 35.26450892857143 29.22995031937544  35.25744047619048 29.276082327892123  35.26450892857143 29.36124911284599  C 35.222098214285715 29.55997161107168  35.130208333333336 29.71611071682044  34.988839285714285 29.829666430092264  C 34.84747023809524 29.943222143364085  34.691964285714285 29.992902767920512  34.52232142857143 29.978708303761533  C 33.8154761904762 29.879347054648687  33.20758928571429 29.76579134137686  32.698660714285715 29.638041163946063  C 30.521577380952387 29.07026259758694  28.55654761904762 28.16181689141235  26.80357142857143 26.912704045422284  C 25.53125 27.139815471965935  24.287202380952387 27.253371185237757  23.07142857142857 27.253371185237757  C 19.24032738095238 27.253371185237757  15.904017857142856 26.31653655074521  13.0625 24.442867281760115  C 13.882440476190478 24.499645138396026  14.504464285714285 24.52803406671398  14.928571428571429 24.52803406671398  C 17.204613095238095 24.52803406671398  19.38876488095238 24.208658623136976  21.48102678571429 23.569907735982966  C 23.573288690476193 22.93115684882896  25.43936011904762 22.015613910574878  27.07924107142857 20.823278921220727  C 28.846354166666668 19.517388218594746  30.20349702380953 18.01277501774308  31.150669642857142 16.30943931866572  C 32.09784226190476 14.60610361958836  32.57142857142857 12.803406671398152  32.57142857142857 10.901348474095101  C 32.57142857142857 9.808374733853796  32.408854166666664 8.729595457771469  32.083705357142854 7.665010645848119  C 33.90736607142857 8.672817601135556  35.349330357142854 9.936124911284598  36.409598214285715 11.454932576295246  Z " stroke-width="0" stroke-dasharray="0" stroke="rgba(255, 255, 255, 0)" fill="none" transform="matrix(1 0 0 1 206 434 )" class="stroke" mask="url(#Clip8)" />
  </g>
</svg>