<?xml version="1.0" encoding="utf-8"?>
<svg version="1.1" xmlns:xlink="http://www.w3.org/1999/xlink" width="38px" height="35px" xmlns="http://www.w3.org/2000/svg">
  <defs>
    <pattern id="BGPattern" patternUnits="userSpaceOnUse" alignment="0 0" imageRepeat="None" />
    <mask fill="white" id="Clip9">
      <path d="M 29.440104166666668 14.583333333333332  C 29.440104166666668 14.978298611111109  29.283420138888893 15.320095486111109  28.970052083333332 15.608723958333332  L 18.529947916666664 25.224609375  C 18.21657986111111 25.513237847222218  17.84548611111111 25.657552083333336  17.416666666666664 25.657552083333336  C 16.987847222222225 25.657552083333336  16.616753472222225 25.513237847222218  16.303385416666664 25.224609375  L 9.029947916666668 18.525390625  C 8.716579861111112 18.236762152777775  8.559895833333332 17.894965277777775  8.559895833333332 17.5  C 8.559895833333332 17.10503472222222  8.716579861111112 16.76323784722222  9.029947916666668 16.474609375  L 11.553385416666666 14.150390625  C 11.866753472222225 13.861762152777777  12.237847222222225 13.717447916666668  12.666666666666666 13.717447916666668  C 13.095486111111112 13.717447916666668  13.466579861111112 13.861762152777777  13.779947916666666 14.150390625  L 17.416666666666664 17.5  L 24.220052083333332 11.233723958333332  C 24.533420138888893 10.945095486111109  24.904513888888893 10.80078125  25.333333333333332 10.80078125  C 25.76215277777778 10.80078125  26.13324652777778 10.945095486111109  26.446614583333332 11.233723958333332  L 28.970052083333332 13.557942708333332  C 29.283420138888893 13.846571180555555  29.440104166666668 14.188368055555555  29.440104166666668 14.583333333333332  Z M 30.65234375 23.720703125  C 31.856336805555557 21.821831597222218  32.45833333333333 19.74826388888889  32.45833333333333 17.5  C 32.45833333333333 15.251736111111109  31.856336805555557 13.178168402777777  30.65234375 11.279296875  C 29.44835069444445 9.380425347222218  27.81553819444445 7.876519097222219  25.75390625 6.767578125  C 23.692274305555557 5.658637152777778  21.440972222222225 5.104166666666668  19 5.104166666666668  C 16.55902777777778 5.104166666666668  14.307725694444446 5.658637152777778  12.24609375 6.767578125  C 10.184461805555555 7.876519097222219  8.551649305555555 9.380425347222218  7.34765625 11.279296875  C 6.143663194444445 13.178168402777777  5.541666666666667 15.251736111111109  5.541666666666667 17.5  C 5.541666666666667 19.74826388888889  6.143663194444445 21.821831597222218  7.34765625 23.720703125  C 8.551649305555555 25.619574652777775  10.184461805555555 27.12348090277778  12.24609375 28.232421875  C 14.307725694444446 29.34136284722222  16.55902777777778 29.895833333333332  19 29.895833333333332  C 21.440972222222225 29.895833333333332  23.692274305555557 29.34136284722222  25.75390625 28.232421875  C 27.81553819444445 27.12348090277778  29.44835069444445 25.619574652777775  30.65234375 23.720703125  Z M 35.45182291666667 8.7158203125  C 37.150607638888886 11.397026909722218  38 14.32508680555555  38 17.5  C 38 20.674913194444446  37.150607638888886 23.602973090277775  35.45182291666667 26.2841796875  C 33.75303819444445 28.96538628472222  31.448133680555557 31.08832465277778  28.537109375 32.65299479166667  C 25.62608506944445 34.21766493055556  22.44704861111111 35  19 35  C 15.55295138888889 35  12.373914930555555 34.21766493055556  9.462890625 32.65299479166667  C 6.551866319444445 31.08832465277778  4.246961805555556 28.96538628472222  2.5481770833333335 26.2841796875  C 0.8493923611111109 23.602973090277775  0 20.674913194444446  0 17.5  C 0 14.32508680555555  0.8493923611111109 11.397026909722218  2.5481770833333335 8.7158203125  C 4.246961805555556 6.034613715277778  6.551866319444445 3.9116753472222188  9.462890625 2.347005208333332  C 12.373914930555555 0.7823350694444414  15.55295138888889 0  19 0  C 22.44704861111111 0  25.62608506944445 0.7823350694444414  28.537109375 2.347005208333332  C 31.448133680555557 3.9116753472222188  33.75303819444445 6.034613715277778  35.45182291666667 8.7158203125  Z " fill-rule="evenodd" />
    </mask>
  </defs>
  <g transform="matrix(1 0 0 1 -31 -430 )">
    <path d="M 29.440104166666668 14.583333333333332  C 29.440104166666668 14.978298611111109  29.283420138888893 15.320095486111109  28.970052083333332 15.608723958333332  L 18.529947916666664 25.224609375  C 18.21657986111111 25.513237847222218  17.84548611111111 25.657552083333336  17.416666666666664 25.657552083333336  C 16.987847222222225 25.657552083333336  16.616753472222225 25.513237847222218  16.303385416666664 25.224609375  L 9.029947916666668 18.525390625  C 8.716579861111112 18.236762152777775  8.559895833333332 17.894965277777775  8.559895833333332 17.5  C 8.559895833333332 17.10503472222222  8.716579861111112 16.76323784722222  9.029947916666668 16.474609375  L 11.553385416666666 14.150390625  C 11.866753472222225 13.861762152777777  12.237847222222225 13.717447916666668  12.666666666666666 13.717447916666668  C 13.095486111111112 13.717447916666668  13.466579861111112 13.861762152777777  13.779947916666666 14.150390625  L 17.416666666666664 17.5  L 24.220052083333332 11.233723958333332  C 24.533420138888893 10.945095486111109  24.904513888888893 10.80078125  25.333333333333332 10.80078125  C 25.76215277777778 10.80078125  26.13324652777778 10.945095486111109  26.446614583333332 11.233723958333332  L 28.970052083333332 13.557942708333332  C 29.283420138888893 13.846571180555555  29.440104166666668 14.188368055555555  29.440104166666668 14.583333333333332  Z M 30.65234375 23.720703125  C 31.856336805555557 21.821831597222218  32.45833333333333 19.74826388888889  32.45833333333333 17.5  C 32.45833333333333 15.251736111111109  31.856336805555557 13.178168402777777  30.65234375 11.279296875  C 29.44835069444445 9.380425347222218  27.81553819444445 7.876519097222219  25.75390625 6.767578125  C 23.692274305555557 5.658637152777778  21.440972222222225 5.104166666666668  19 5.104166666666668  C 16.55902777777778 5.104166666666668  14.307725694444446 5.658637152777778  12.24609375 6.767578125  C 10.184461805555555 7.876519097222219  8.551649305555555 9.380425347222218  7.34765625 11.279296875  C 6.143663194444445 13.178168402777777  5.541666666666667 15.251736111111109  5.541666666666667 17.5  C 5.541666666666667 19.74826388888889  6.143663194444445 21.821831597222218  7.34765625 23.720703125  C 8.551649305555555 25.619574652777775  10.184461805555555 27.12348090277778  12.24609375 28.232421875  C 14.307725694444446 29.34136284722222  16.55902777777778 29.895833333333332  19 29.895833333333332  C 21.440972222222225 29.895833333333332  23.692274305555557 29.34136284722222  25.75390625 28.232421875  C 27.81553819444445 27.12348090277778  29.44835069444445 25.619574652777775  30.65234375 23.720703125  Z M 35.45182291666667 8.7158203125  C 37.150607638888886 11.397026909722218  38 14.32508680555555  38 17.5  C 38 20.674913194444446  37.150607638888886 23.602973090277775  35.45182291666667 26.2841796875  C 33.75303819444445 28.96538628472222  31.448133680555557 31.08832465277778  28.537109375 32.65299479166667  C 25.62608506944445 34.21766493055556  22.44704861111111 35  19 35  C 15.55295138888889 35  12.373914930555555 34.21766493055556  9.462890625 32.65299479166667  C 6.551866319444445 31.08832465277778  4.246961805555556 28.96538628472222  2.5481770833333335 26.2841796875  C 0.8493923611111109 23.602973090277775  0 20.674913194444446  0 17.5  C 0 14.32508680555555  0.8493923611111109 11.397026909722218  2.5481770833333335 8.7158203125  C 4.246961805555556 6.034613715277778  6.551866319444445 3.9116753472222188  9.462890625 2.347005208333332  C 12.373914930555555 0.7823350694444414  15.55295138888889 0  19 0  C 22.44704861111111 0  25.62608506944445 0.7823350694444414  28.537109375 2.347005208333332  C 31.448133680555557 3.9116753472222188  33.75303819444445 6.034613715277778  35.45182291666667 8.7158203125  Z " fill-rule="nonzero" fill="rgba(255, 255, 255, 1)" stroke="none" transform="matrix(1 0 0 1 31 430 )" class="fill" />
    <path d="M 29.440104166666668 14.583333333333332  C 29.440104166666668 14.978298611111109  29.283420138888893 15.320095486111109  28.970052083333332 15.608723958333332  L 18.529947916666664 25.224609375  C 18.21657986111111 25.513237847222218  17.84548611111111 25.657552083333336  17.416666666666664 25.657552083333336  C 16.987847222222225 25.657552083333336  16.616753472222225 25.513237847222218  16.303385416666664 25.224609375  L 9.029947916666668 18.525390625  C 8.716579861111112 18.236762152777775  8.559895833333332 17.894965277777775  8.559895833333332 17.5  C 8.559895833333332 17.10503472222222  8.716579861111112 16.76323784722222  9.029947916666668 16.474609375  L 11.553385416666666 14.150390625  C 11.866753472222225 13.861762152777777  12.237847222222225 13.717447916666668  12.666666666666666 13.717447916666668  C 13.095486111111112 13.717447916666668  13.466579861111112 13.861762152777777  13.779947916666666 14.150390625  L 17.416666666666664 17.5  L 24.220052083333332 11.233723958333332  C 24.533420138888893 10.945095486111109  24.904513888888893 10.80078125  25.333333333333332 10.80078125  C 25.76215277777778 10.80078125  26.13324652777778 10.945095486111109  26.446614583333332 11.233723958333332  L 28.970052083333332 13.557942708333332  C 29.283420138888893 13.846571180555555  29.440104166666668 14.188368055555555  29.440104166666668 14.583333333333332  Z " stroke-width="0" stroke-dasharray="0" stroke="rgba(255, 255, 255, 0)" fill="none" transform="matrix(1 0 0 1 31 430 )" class="stroke" mask="url(#Clip9)" />
    <path d="M 30.65234375 23.720703125  C 31.856336805555557 21.821831597222218  32.45833333333333 19.74826388888889  32.45833333333333 17.5  C 32.45833333333333 15.251736111111109  31.856336805555557 13.178168402777777  30.65234375 11.279296875  C 29.44835069444445 9.380425347222218  27.81553819444445 7.876519097222219  25.75390625 6.767578125  C 23.692274305555557 5.658637152777778  21.440972222222225 5.104166666666668  19 5.104166666666668  C 16.55902777777778 5.104166666666668  14.307725694444446 5.658637152777778  12.24609375 6.767578125  C 10.184461805555555 7.876519097222219  8.551649305555555 9.380425347222218  7.34765625 11.279296875  C 6.143663194444445 13.178168402777777  5.541666666666667 15.251736111111109  5.541666666666667 17.5  C 5.541666666666667 19.74826388888889  6.143663194444445 21.821831597222218  7.34765625 23.720703125  C 8.551649305555555 25.619574652777775  10.184461805555555 27.12348090277778  12.24609375 28.232421875  C 14.307725694444446 29.34136284722222  16.55902777777778 29.895833333333332  19 29.895833333333332  C 21.440972222222225 29.895833333333332  23.692274305555557 29.34136284722222  25.75390625 28.232421875  C 27.81553819444445 27.12348090277778  29.44835069444445 25.619574652777775  30.65234375 23.720703125  Z " stroke-width="0" stroke-dasharray="0" stroke="rgba(255, 255, 255, 0)" fill="none" transform="matrix(1 0 0 1 31 430 )" class="stroke" mask="url(#Clip9)" />
    <path d="M 35.45182291666667 8.7158203125  C 37.150607638888886 11.397026909722218  38 14.32508680555555  38 17.5  C 38 20.674913194444446  37.150607638888886 23.602973090277775  35.45182291666667 26.2841796875  C 33.75303819444445 28.96538628472222  31.448133680555557 31.08832465277778  28.537109375 32.65299479166667  C 25.62608506944445 34.21766493055556  22.44704861111111 35  19 35  C 15.55295138888889 35  12.373914930555555 34.21766493055556  9.462890625 32.65299479166667  C 6.551866319444445 31.08832465277778  4.246961805555556 28.96538628472222  2.5481770833333335 26.2841796875  C 0.8493923611111109 23.602973090277775  0 20.674913194444446  0 17.5  C 0 14.32508680555555  0.8493923611111109 11.397026909722218  2.5481770833333335 8.7158203125  C 4.246961805555556 6.034613715277778  6.551866319444445 3.9116753472222188  9.462890625 2.347005208333332  C 12.373914930555555 0.7823350694444414  15.55295138888889 0  19 0  C 22.44704861111111 0  25.62608506944445 0.7823350694444414  28.537109375 2.347005208333332  C 31.448133680555557 3.9116753472222188  33.75303819444445 6.034613715277778  35.45182291666667 8.7158203125  Z " stroke-width="0" stroke-dasharray="0" stroke="rgba(255, 255, 255, 0)" fill="none" transform="matrix(1 0 0 1 31 430 )" class="stroke" mask="url(#Clip9)" />
  </g>
</svg>