<?xml version="1.0" encoding="utf-8"?>
<svg version="1.1" xmlns:xlink="http://www.w3.org/1999/xlink" width="25px" height="29px" xmlns="http://www.w3.org/2000/svg">
  <defs>
    <pattern id="BGPattern" patternUnits="userSpaceOnUse" alignment="0 0" imageRepeat="None" />
    <mask fill="white" id="Clip10">
      <path d="M 12.532552083333334 16.57142857142857  C 14.96310763888889 16.57142857142857  16.178385416666664 17.47767857142857  16.178385416666664 19.29017857142857  C 16.178385416666664 20.218005952380953  16.08615451388889 21.280691964285715  15.901692708333334 22.478236607142858  C 15.565321180555555 24.79780505952381  15.266927083333334 26.48623511904762  15.006510416666666 27.543526785714285  C 14.767795138888893 28.51450892857143  13.943142361111112 29  12.532552083333334 29  C 11.121961805555557 29  10.297309027777779 28.51450892857143  10.05859375 27.543526785714285  C 9.798177083333332 26.48623511904762  9.499782986111112 24.79780505952381  9.163411458333332 22.478236607142858  C 8.978949652777779 21.291480654761905  8.88671875 20.228794642857142  8.88671875 19.29017857142857  C 8.88671875 17.47767857142857  10.101996527777779 16.57142857142857  12.532552083333334 16.57142857142857  Z M 23.933919270833336 7.436104910714286  C 24.644639756944443 9.016648065476188  25 10.680803571428571  25 12.428571428571429  C 25 15.01785714285714  24.27300347222222 17.359002976190474  22.819010416666664 19.45200892857143  C 21.365017361111114 21.54501488095238  19.466145833333336 23.055431547619047  17.122395833333336 23.98325892857143  C 17.03559027777778 24.015625  16.954210069444446 23.999441964285715  16.878255208333336 23.93470982142857  C 16.802300347222225 23.86997767857143  16.769748263888893 23.7890625  16.780598958333336 23.691964285714285  C 16.856553819444446 23.174107142857142  16.910807291666664 22.818080357142858  16.943359375 22.62388392857143  C 16.98676215277778 22.278645833333336  17.019314236111114 22.025111607142858  17.041015625 21.86328125  C 17.051866319444446 21.766183035714285  17.100694444444446 21.701450892857142  17.1875 21.66908482142857  C 18.912760416666664 20.795200892857142  20.298936631944446 19.532924107142858  21.346028645833336 17.882254464285715  C 22.393120659722225 16.23158482142857  22.916666666666664 14.413690476190476  22.916666666666664 12.428571428571429  C 22.916666666666664 10.486607142857144  22.422960069444446 8.703776041666664  21.435546875 7.080078125  C 20.448133680555557 5.456380208333332  19.108072916666664 4.19140625  17.415364583333336 3.28515625  C 15.72265625 2.37890625  13.894314236111112 1.9797247023809499  11.930338541666668 2.087611607142856  C 10.584852430555557 2.163132440476188  9.29904513888889 2.4921875  8.072916666666668 3.074776785714285  C 6.846788194444445 3.6573660714285703  5.796983506944445 4.41527157738095  4.923502604166666 5.34849330357143  C 4.050021701388889 6.281715029761902  3.3555772569444446 7.371372767857144  2.840169270833333 8.617466517857144  C 2.3247612847222223 9.863560267857144  2.0724826388888893 11.160900297619044  2.083333333333333 12.509486607142856  C 2.094184027777778 14.494605654761903  2.631293402777778 16.309802827380953  3.6946614583333335 17.955078125  C 4.758029513888889 19.600353422619047  6.15234375 20.849144345238095  7.877604166666667 21.701450892857142  C 7.953559027777778 21.733816964285715  8.002387152777777 21.798549107142858  8.024088541666668 21.89564732142857  C 8.056640625 22.12220982142857  8.089192708333332 22.364955357142858  8.121744791666668 22.62388392857143  C 8.132595486111112 22.720982142857142  8.159722222222223 22.896298363095234  8.203125 23.149832589285715  C 8.246527777777777 23.40336681547619  8.279079861111112 23.59486607142857  8.30078125 23.724330357142858  C 8.311631944444445 23.82142857142857  8.2763671875 23.90234375  8.194986979166668 23.967075892857142  C 8.113606770833332 24.031808035714285  8.02951388888889 24.042596726190478  7.942708333333333 23.999441964285715  C 6.336805555555556 23.373697916666664  4.920789930555556 22.459356398809522  3.6946614583333335 21.256417410714285  C 2.4685329861111116 20.053478422619047  1.5272352430555558 18.6293712797619  0.8707682291666666 16.984095982142858  C 0.21430121527777776 15.338820684523808  -0.0705295138888889 13.61532738095238  0.016276041666666664 11.813616071428571  C 0.09223090277777779 10.270833333333332  0.4503038194444444 8.795479910714285  1.0904947916666665 7.38755580357143  C 1.730685763888889 5.97963169642857  2.5689019097222223 4.75511532738095  3.6051432291666665 3.7140066964285703  C 4.641384548611112 2.672898065476188  5.862087673611111 1.823288690476188  7.267252604166667 1.1651785714285705  C 8.672417534722223 0.5070684523809498  10.150824652777779 0.12946428571428525  11.702473958333332 0.03236607142857051  C 13.481987847222223 -0.07552083333333548  15.193684895833334 0.175316220238094  16.837565104166664 0.7848772321428558  C 18.4814453125 1.3944382440476175  19.8974609375 2.260230654761903  21.085611979166664 3.382254464285715  C 22.273763020833336 4.504278273809524  23.223198784722225 5.85556175595238  23.933919270833336 7.436104910714286  Z M 15.1123046875 9.345703125  C 15.823025173611112 10.052362351190473  16.178385416666664 10.907366071428571  16.178385416666664 11.910714285714285  C 16.178385416666664 12.9140625  15.823025173611112 13.769066220238095  15.1123046875 14.475725446428571  C 14.40158420138889 15.182384672619047  13.541666666666666 15.535714285714285  12.532552083333334 15.535714285714285  C 11.5234375 15.535714285714285  10.663519965277779 15.182384672619047  9.952799479166668 14.475725446428571  C 9.242078993055557 13.769066220238095  8.88671875 12.9140625  8.88671875 11.910714285714285  C 8.88671875 10.907366071428571  9.242078993055557 10.052362351190473  9.952799479166668 9.345703125  C 10.663519965277779 8.639043898809524  11.5234375 8.285714285714285  12.532552083333334 8.285714285714285  C 13.541666666666666 8.285714285714285  14.40158420138889 8.639043898809524  15.1123046875 9.345703125  Z M 19.685872395833336 8.164341517857144  C 20.472547743055557 9.464378720238095  20.865885416666664 10.885788690476188  20.865885416666664 12.428571428571429  C 20.865885416666664 13.744791666666664  20.57562934027778 14.977399553571429  19.9951171875 16.126395089285715  C 19.414605034722225 17.275390625  18.619791666666664 18.2328869047619  17.610677083333336 18.99888392857143  C 17.52387152777778 19.06361607142857  17.437065972222225 19.07440476190476  17.350260416666664 19.03125  C 17.263454861111114 18.988095238095234  17.209201388888893 18.9125744047619  17.1875 18.8046875  C 17.122395833333336 18.243675595238095  16.965060763888893 17.74739583333333  16.715494791666664 17.315848214285715  C 16.639539930555557 17.20796130952381  16.655815972222225 17.100074404761905  16.764322916666664 16.9921875  C 17.393663194444446 16.409598214285715  17.887369791666664 15.724516369047617  18.245442708333336 14.936941964285715  C 18.603515625 14.149367559523808  18.782552083333336 13.313244047619047  18.782552083333336 12.428571428571429  C 18.782552083333336 11.231026785714285  18.465169270833336 10.130580357142856  17.830403645833336 9.127232142857144  C 17.195638020833336 8.123883928571429  16.341145833333336 7.36058407738095  15.266927083333334 6.837332589285714  C 14.192708333333334 6.314081101190474  13.042534722222223 6.1171875  11.81640625 6.246651785714286  C 10.37326388888889 6.408482142857144  9.130859375 7.018043154761902  8.089192708333332 8.075334821428571  C 7.047526041666667 9.132626488095239  6.456163194444445 10.378720238095239  6.315104166666667 11.813616071428571  C 6.206597222222223 12.806175595238095  6.334092881944445 13.755580357142856  6.697591145833333 14.66183035714286  C 7.061089409722222 15.56808035714286  7.595486111111112 16.34486607142857  8.30078125 16.9921875  C 8.409288194444446 17.100074404761905  8.425564236111112 17.20796130952381  8.349609375 17.315848214285715  C 8.089192708333334 17.758184523809522  7.931857638888889 18.25985863095238  7.877604166666667 18.820870535714285  C 7.855902777777778 18.91796875  7.801649305555556 18.988095238095234  7.71484375 19.03125  C 7.628038194444445 19.07440476190476  7.541232638888889 19.06361607142857  7.454427083333333 18.99888392857143  C 6.423611111111112 18.20052083333333  5.617947048611112 17.2133556547619  5.037434895833334 16.037388392857142  C 4.456922743055556 14.86142113095238  4.177517361111112 13.599144345238095  4.19921875 12.250558035714285  C 4.231770833333334 10.837239583333332  4.606119791666666 9.521019345238095  5.322265625 8.301897321428571  C 6.038411458333334 7.082775297619044  6.998697916666667 6.103701636904758  8.203125 5.364676339285714  C 9.407552083333332 4.625651041666664  10.71506076388889 4.22377232142857  12.125651041666668 4.15904017857143  C 13.688151041666666 4.083519345238094  15.142144097222223 4.407180059523808  16.487630208333336 5.13002232142857  C 17.833116319444446 5.852864583333332  18.899197048611114 6.864304315476188  19.685872395833336 8.164341517857144  Z " fill-rule="evenodd" />
    </mask>
  </defs>
  <g transform="matrix(1 0 0 1 -44 -589 )">
    <path d="M 12.532552083333334 16.57142857142857  C 14.96310763888889 16.57142857142857  16.178385416666664 17.47767857142857  16.178385416666664 19.29017857142857  C 16.178385416666664 20.218005952380953  16.08615451388889 21.280691964285715  15.901692708333334 22.478236607142858  C 15.565321180555555 24.79780505952381  15.266927083333334 26.48623511904762  15.006510416666666 27.543526785714285  C 14.767795138888893 28.51450892857143  13.943142361111112 29  12.532552083333334 29  C 11.121961805555557 29  10.297309027777779 28.51450892857143  10.05859375 27.543526785714285  C 9.798177083333332 26.48623511904762  9.499782986111112 24.79780505952381  9.163411458333332 22.478236607142858  C 8.978949652777779 21.291480654761905  8.88671875 20.228794642857142  8.88671875 19.29017857142857  C 8.88671875 17.47767857142857  10.101996527777779 16.57142857142857  12.532552083333334 16.57142857142857  Z M 23.933919270833336 7.436104910714286  C 24.644639756944443 9.016648065476188  25 10.680803571428571  25 12.428571428571429  C 25 15.01785714285714  24.27300347222222 17.359002976190474  22.819010416666664 19.45200892857143  C 21.365017361111114 21.54501488095238  19.466145833333336 23.055431547619047  17.122395833333336 23.98325892857143  C 17.03559027777778 24.015625  16.954210069444446 23.999441964285715  16.878255208333336 23.93470982142857  C 16.802300347222225 23.86997767857143  16.769748263888893 23.7890625  16.780598958333336 23.691964285714285  C 16.856553819444446 23.174107142857142  16.910807291666664 22.818080357142858  16.943359375 22.62388392857143  C 16.98676215277778 22.278645833333336  17.019314236111114 22.025111607142858  17.041015625 21.86328125  C 17.051866319444446 21.766183035714285  17.100694444444446 21.701450892857142  17.1875 21.66908482142857  C 18.912760416666664 20.795200892857142  20.298936631944446 19.532924107142858  21.346028645833336 17.882254464285715  C 22.393120659722225 16.23158482142857  22.916666666666664 14.413690476190476  22.916666666666664 12.428571428571429  C 22.916666666666664 10.486607142857144  22.422960069444446 8.703776041666664  21.435546875 7.080078125  C 20.448133680555557 5.456380208333332  19.108072916666664 4.19140625  17.415364583333336 3.28515625  C 15.72265625 2.37890625  13.894314236111112 1.9797247023809499  11.930338541666668 2.087611607142856  C 10.584852430555557 2.163132440476188  9.29904513888889 2.4921875  8.072916666666668 3.074776785714285  C 6.846788194444445 3.6573660714285703  5.796983506944445 4.41527157738095  4.923502604166666 5.34849330357143  C 4.050021701388889 6.281715029761902  3.3555772569444446 7.371372767857144  2.840169270833333 8.617466517857144  C 2.3247612847222223 9.863560267857144  2.0724826388888893 11.160900297619044  2.083333333333333 12.509486607142856  C 2.094184027777778 14.494605654761903  2.631293402777778 16.309802827380953  3.6946614583333335 17.955078125  C 4.758029513888889 19.600353422619047  6.15234375 20.849144345238095  7.877604166666667 21.701450892857142  C 7.953559027777778 21.733816964285715  8.002387152777777 21.798549107142858  8.024088541666668 21.89564732142857  C 8.056640625 22.12220982142857  8.089192708333332 22.364955357142858  8.121744791666668 22.62388392857143  C 8.132595486111112 22.720982142857142  8.159722222222223 22.896298363095234  8.203125 23.149832589285715  C 8.246527777777777 23.40336681547619  8.279079861111112 23.59486607142857  8.30078125 23.724330357142858  C 8.311631944444445 23.82142857142857  8.2763671875 23.90234375  8.194986979166668 23.967075892857142  C 8.113606770833332 24.031808035714285  8.02951388888889 24.042596726190478  7.942708333333333 23.999441964285715  C 6.336805555555556 23.373697916666664  4.920789930555556 22.459356398809522  3.6946614583333335 21.256417410714285  C 2.4685329861111116 20.053478422619047  1.5272352430555558 18.6293712797619  0.8707682291666666 16.984095982142858  C 0.21430121527777776 15.338820684523808  -0.0705295138888889 13.61532738095238  0.016276041666666664 11.813616071428571  C 0.09223090277777779 10.270833333333332  0.4503038194444444 8.795479910714285  1.0904947916666665 7.38755580357143  C 1.730685763888889 5.97963169642857  2.5689019097222223 4.75511532738095  3.6051432291666665 3.7140066964285703  C 4.641384548611112 2.672898065476188  5.862087673611111 1.823288690476188  7.267252604166667 1.1651785714285705  C 8.672417534722223 0.5070684523809498  10.150824652777779 0.12946428571428525  11.702473958333332 0.03236607142857051  C 13.481987847222223 -0.07552083333333548  15.193684895833334 0.175316220238094  16.837565104166664 0.7848772321428558  C 18.4814453125 1.3944382440476175  19.8974609375 2.260230654761903  21.085611979166664 3.382254464285715  C 22.273763020833336 4.504278273809524  23.223198784722225 5.85556175595238  23.933919270833336 7.436104910714286  Z M 15.1123046875 9.345703125  C 15.823025173611112 10.052362351190473  16.178385416666664 10.907366071428571  16.178385416666664 11.910714285714285  C 16.178385416666664 12.9140625  15.823025173611112 13.769066220238095  15.1123046875 14.475725446428571  C 14.40158420138889 15.182384672619047  13.541666666666666 15.535714285714285  12.532552083333334 15.535714285714285  C 11.5234375 15.535714285714285  10.663519965277779 15.182384672619047  9.952799479166668 14.475725446428571  C 9.242078993055557 13.769066220238095  8.88671875 12.9140625  8.88671875 11.910714285714285  C 8.88671875 10.907366071428571  9.242078993055557 10.052362351190473  9.952799479166668 9.345703125  C 10.663519965277779 8.639043898809524  11.5234375 8.285714285714285  12.532552083333334 8.285714285714285  C 13.541666666666666 8.285714285714285  14.40158420138889 8.639043898809524  15.1123046875 9.345703125  Z M 19.685872395833336 8.164341517857144  C 20.472547743055557 9.464378720238095  20.865885416666664 10.885788690476188  20.865885416666664 12.428571428571429  C 20.865885416666664 13.744791666666664  20.57562934027778 14.977399553571429  19.9951171875 16.126395089285715  C 19.414605034722225 17.275390625  18.619791666666664 18.2328869047619  17.610677083333336 18.99888392857143  C 17.52387152777778 19.06361607142857  17.437065972222225 19.07440476190476  17.350260416666664 19.03125  C 17.263454861111114 18.988095238095234  17.209201388888893 18.9125744047619  17.1875 18.8046875  C 17.122395833333336 18.243675595238095  16.965060763888893 17.74739583333333  16.715494791666664 17.315848214285715  C 16.639539930555557 17.20796130952381  16.655815972222225 17.100074404761905  16.764322916666664 16.9921875  C 17.393663194444446 16.409598214285715  17.887369791666664 15.724516369047617  18.245442708333336 14.936941964285715  C 18.603515625 14.149367559523808  18.782552083333336 13.313244047619047  18.782552083333336 12.428571428571429  C 18.782552083333336 11.231026785714285  18.465169270833336 10.130580357142856  17.830403645833336 9.127232142857144  C 17.195638020833336 8.123883928571429  16.341145833333336 7.36058407738095  15.266927083333334 6.837332589285714  C 14.192708333333334 6.314081101190474  13.042534722222223 6.1171875  11.81640625 6.246651785714286  C 10.37326388888889 6.408482142857144  9.130859375 7.018043154761902  8.089192708333332 8.075334821428571  C 7.047526041666667 9.132626488095239  6.456163194444445 10.378720238095239  6.315104166666667 11.813616071428571  C 6.206597222222223 12.806175595238095  6.334092881944445 13.755580357142856  6.697591145833333 14.66183035714286  C 7.061089409722222 15.56808035714286  7.595486111111112 16.34486607142857  8.30078125 16.9921875  C 8.409288194444446 17.100074404761905  8.425564236111112 17.20796130952381  8.349609375 17.315848214285715  C 8.089192708333334 17.758184523809522  7.931857638888889 18.25985863095238  7.877604166666667 18.820870535714285  C 7.855902777777778 18.91796875  7.801649305555556 18.988095238095234  7.71484375 19.03125  C 7.628038194444445 19.07440476190476  7.541232638888889 19.06361607142857  7.454427083333333 18.99888392857143  C 6.423611111111112 18.20052083333333  5.617947048611112 17.2133556547619  5.037434895833334 16.037388392857142  C 4.456922743055556 14.86142113095238  4.177517361111112 13.599144345238095  4.19921875 12.250558035714285  C 4.231770833333334 10.837239583333332  4.606119791666666 9.521019345238095  5.322265625 8.301897321428571  C 6.038411458333334 7.082775297619044  6.998697916666667 6.103701636904758  8.203125 5.364676339285714  C 9.407552083333332 4.625651041666664  10.71506076388889 4.22377232142857  12.125651041666668 4.15904017857143  C 13.688151041666666 4.083519345238094  15.142144097222223 4.407180059523808  16.487630208333336 5.13002232142857  C 17.833116319444446 5.852864583333332  18.899197048611114 6.864304315476188  19.685872395833336 8.164341517857144  Z " fill-rule="nonzero" fill="rgba(2, 167, 240, 0.6666666666666666)" stroke="none" transform="matrix(1 0 0 1 44 589 )" class="fill" />
    <path d="M 12.532552083333334 16.57142857142857  C 14.96310763888889 16.57142857142857  16.178385416666664 17.47767857142857  16.178385416666664 19.29017857142857  C 16.178385416666664 20.218005952380953  16.08615451388889 21.280691964285715  15.901692708333334 22.478236607142858  C 15.565321180555555 24.79780505952381  15.266927083333334 26.48623511904762  15.006510416666666 27.543526785714285  C 14.767795138888893 28.51450892857143  13.943142361111112 29  12.532552083333334 29  C 11.121961805555557 29  10.297309027777779 28.51450892857143  10.05859375 27.543526785714285  C 9.798177083333332 26.48623511904762  9.499782986111112 24.79780505952381  9.163411458333332 22.478236607142858  C 8.978949652777779 21.291480654761905  8.88671875 20.228794642857142  8.88671875 19.29017857142857  C 8.88671875 17.47767857142857  10.101996527777779 16.57142857142857  12.532552083333334 16.57142857142857  Z " stroke-width="0" stroke-dasharray="0" stroke="rgba(255, 255, 255, 0)" fill="none" transform="matrix(1 0 0 1 44 589 )" class="stroke" mask="url(#Clip10)" />
    <path d="M 23.933919270833336 7.436104910714286  C 24.644639756944443 9.016648065476188  25 10.680803571428571  25 12.428571428571429  C 25 15.01785714285714  24.27300347222222 17.359002976190474  22.819010416666664 19.45200892857143  C 21.365017361111114 21.54501488095238  19.466145833333336 23.055431547619047  17.122395833333336 23.98325892857143  C 17.03559027777778 24.015625  16.954210069444446 23.999441964285715  16.878255208333336 23.93470982142857  C 16.802300347222225 23.86997767857143  16.769748263888893 23.7890625  16.780598958333336 23.691964285714285  C 16.856553819444446 23.174107142857142  16.910807291666664 22.818080357142858  16.943359375 22.62388392857143  C 16.98676215277778 22.278645833333336  17.019314236111114 22.025111607142858  17.041015625 21.86328125  C 17.051866319444446 21.766183035714285  17.100694444444446 21.701450892857142  17.1875 21.66908482142857  C 18.912760416666664 20.795200892857142  20.298936631944446 19.532924107142858  21.346028645833336 17.882254464285715  C 22.393120659722225 16.23158482142857  22.916666666666664 14.413690476190476  22.916666666666664 12.428571428571429  C 22.916666666666664 10.486607142857144  22.422960069444446 8.703776041666664  21.435546875 7.080078125  C 20.448133680555557 5.456380208333332  19.108072916666664 4.19140625  17.415364583333336 3.28515625  C 15.72265625 2.37890625  13.894314236111112 1.9797247023809499  11.930338541666668 2.087611607142856  C 10.584852430555557 2.163132440476188  9.29904513888889 2.4921875  8.072916666666668 3.074776785714285  C 6.846788194444445 3.6573660714285703  5.796983506944445 4.41527157738095  4.923502604166666 5.34849330357143  C 4.050021701388889 6.281715029761902  3.3555772569444446 7.371372767857144  2.840169270833333 8.617466517857144  C 2.3247612847222223 9.863560267857144  2.0724826388888893 11.160900297619044  2.083333333333333 12.509486607142856  C 2.094184027777778 14.494605654761903  2.631293402777778 16.309802827380953  3.6946614583333335 17.955078125  C 4.758029513888889 19.600353422619047  6.15234375 20.849144345238095  7.877604166666667 21.701450892857142  C 7.953559027777778 21.733816964285715  8.002387152777777 21.798549107142858  8.024088541666668 21.89564732142857  C 8.056640625 22.12220982142857  8.089192708333332 22.364955357142858  8.121744791666668 22.62388392857143  C 8.132595486111112 22.720982142857142  8.159722222222223 22.896298363095234  8.203125 23.149832589285715  C 8.246527777777777 23.40336681547619  8.279079861111112 23.59486607142857  8.30078125 23.724330357142858  C 8.311631944444445 23.82142857142857  8.2763671875 23.90234375  8.194986979166668 23.967075892857142  C 8.113606770833332 24.031808035714285  8.02951388888889 24.042596726190478  7.942708333333333 23.999441964285715  C 6.336805555555556 23.373697916666664  4.920789930555556 22.459356398809522  3.6946614583333335 21.256417410714285  C 2.4685329861111116 20.053478422619047  1.5272352430555558 18.6293712797619  0.8707682291666666 16.984095982142858  C 0.21430121527777776 15.338820684523808  -0.0705295138888889 13.61532738095238  0.016276041666666664 11.813616071428571  C 0.09223090277777779 10.270833333333332  0.4503038194444444 8.795479910714285  1.0904947916666665 7.38755580357143  C 1.730685763888889 5.97963169642857  2.5689019097222223 4.75511532738095  3.6051432291666665 3.7140066964285703  C 4.641384548611112 2.672898065476188  5.862087673611111 1.823288690476188  7.267252604166667 1.1651785714285705  C 8.672417534722223 0.5070684523809498  10.150824652777779 0.12946428571428525  11.702473958333332 0.03236607142857051  C 13.481987847222223 -0.07552083333333548  15.193684895833334 0.175316220238094  16.837565104166664 0.7848772321428558  C 18.4814453125 1.3944382440476175  19.8974609375 2.260230654761903  21.085611979166664 3.382254464285715  C 22.273763020833336 4.504278273809524  23.223198784722225 5.85556175595238  23.933919270833336 7.436104910714286  Z " stroke-width="0" stroke-dasharray="0" stroke="rgba(255, 255, 255, 0)" fill="none" transform="matrix(1 0 0 1 44 589 )" class="stroke" mask="url(#Clip10)" />
    <path d="M 15.1123046875 9.345703125  C 15.823025173611112 10.052362351190473  16.178385416666664 10.907366071428571  16.178385416666664 11.910714285714285  C 16.178385416666664 12.9140625  15.823025173611112 13.769066220238095  15.1123046875 14.475725446428571  C 14.40158420138889 15.182384672619047  13.541666666666666 15.535714285714285  12.532552083333334 15.535714285714285  C 11.5234375 15.535714285714285  10.663519965277779 15.182384672619047  9.952799479166668 14.475725446428571  C 9.242078993055557 13.769066220238095  8.88671875 12.9140625  8.88671875 11.910714285714285  C 8.88671875 10.907366071428571  9.242078993055557 10.052362351190473  9.952799479166668 9.345703125  C 10.663519965277779 8.639043898809524  11.5234375 8.285714285714285  12.532552083333334 8.285714285714285  C 13.541666666666666 8.285714285714285  14.40158420138889 8.639043898809524  15.1123046875 9.345703125  Z " stroke-width="0" stroke-dasharray="0" stroke="rgba(255, 255, 255, 0)" fill="none" transform="matrix(1 0 0 1 44 589 )" class="stroke" mask="url(#Clip10)" />
    <path d="M 19.685872395833336 8.164341517857144  C 20.472547743055557 9.464378720238095  20.865885416666664 10.885788690476188  20.865885416666664 12.428571428571429  C 20.865885416666664 13.744791666666664  20.57562934027778 14.977399553571429  19.9951171875 16.126395089285715  C 19.414605034722225 17.275390625  18.619791666666664 18.2328869047619  17.610677083333336 18.99888392857143  C 17.52387152777778 19.06361607142857  17.437065972222225 19.07440476190476  17.350260416666664 19.03125  C 17.263454861111114 18.988095238095234  17.209201388888893 18.9125744047619  17.1875 18.8046875  C 17.122395833333336 18.243675595238095  16.965060763888893 17.74739583333333  16.715494791666664 17.315848214285715  C 16.639539930555557 17.20796130952381  16.655815972222225 17.100074404761905  16.764322916666664 16.9921875  C 17.393663194444446 16.409598214285715  17.887369791666664 15.724516369047617  18.245442708333336 14.936941964285715  C 18.603515625 14.149367559523808  18.782552083333336 13.313244047619047  18.782552083333336 12.428571428571429  C 18.782552083333336 11.231026785714285  18.465169270833336 10.130580357142856  17.830403645833336 9.127232142857144  C 17.195638020833336 8.123883928571429  16.341145833333336 7.36058407738095  15.266927083333334 6.837332589285714  C 14.192708333333334 6.314081101190474  13.042534722222223 6.1171875  11.81640625 6.246651785714286  C 10.37326388888889 6.408482142857144  9.130859375 7.018043154761902  8.089192708333332 8.075334821428571  C 7.047526041666667 9.132626488095239  6.456163194444445 10.378720238095239  6.315104166666667 11.813616071428571  C 6.206597222222223 12.806175595238095  6.334092881944445 13.755580357142856  6.697591145833333 14.66183035714286  C 7.061089409722222 15.56808035714286  7.595486111111112 16.34486607142857  8.30078125 16.9921875  C 8.409288194444446 17.100074404761905  8.425564236111112 17.20796130952381  8.349609375 17.315848214285715  C 8.089192708333334 17.758184523809522  7.931857638888889 18.25985863095238  7.877604166666667 18.820870535714285  C 7.855902777777778 18.91796875  7.801649305555556 18.988095238095234  7.71484375 19.03125  C 7.628038194444445 19.07440476190476  7.541232638888889 19.06361607142857  7.454427083333333 18.99888392857143  C 6.423611111111112 18.20052083333333  5.617947048611112 17.2133556547619  5.037434895833334 16.037388392857142  C 4.456922743055556 14.86142113095238  4.177517361111112 13.599144345238095  4.19921875 12.250558035714285  C 4.231770833333334 10.837239583333332  4.606119791666666 9.521019345238095  5.322265625 8.301897321428571  C 6.038411458333334 7.082775297619044  6.998697916666667 6.103701636904758  8.203125 5.364676339285714  C 9.407552083333332 4.625651041666664  10.71506076388889 4.22377232142857  12.125651041666668 4.15904017857143  C 13.688151041666666 4.083519345238094  15.142144097222223 4.407180059523808  16.487630208333336 5.13002232142857  C 17.833116319444446 5.852864583333332  18.899197048611114 6.864304315476188  19.685872395833336 8.164341517857144  Z " stroke-width="0" stroke-dasharray="0" stroke="rgba(255, 255, 255, 0)" fill="none" transform="matrix(1 0 0 1 44 589 )" class="stroke" mask="url(#Clip10)" />
  </g>
</svg>