<?xml version="1.0" encoding="utf-8"?>
<svg version="1.1" xmlns:xlink="http://www.w3.org/1999/xlink" width="24px" height="29px" xmlns="http://www.w3.org/2000/svg">
  <defs>
    <pattern id="BGPattern" patternUnits="userSpaceOnUse" alignment="0 0" imageRepeat="None" />
    <mask fill="white" id="Clip11">
      <path d="M 20 8.285714285714285  C 20 9.871651785714285  19.588541666666668 11.338913690476188  18.765625 12.6875  C 19.255208333333336 12.838541666666664  19.721354166666668 13.043526785714285  20.1640625 13.302455357142856  C 20.606770833333336 13.561383928571429  21.0703125 13.95517113095238  21.5546875 14.483816964285715  C 22.0390625 15.012462797619047  22.453125 15.635509672619047  22.796875 16.352957589285715  C 23.140625 17.07040550595238  23.427083333333336 17.99823288690476  23.65625 19.136439732142858  C 23.885416666666664 20.274646577380953  24 21.550409226190478  24 22.96372767857143  C 24 24.625186011904766  23.479166666666664 26.046595982142854  22.4375 27.227957589285715  C 21.395833333333336 28.40931919642857  20.140625 29  18.671875 29  L 5.328125 29  C 3.859375 29  2.604166666666667 28.40931919642857  1.5625 27.227957589285715  C 0.5208333333333333 26.046595982142854  0 24.625186011904766  0 22.96372767857143  C 0 21.550409226190478  0.11458333333333331 20.274646577380953  0.34375 19.136439732142858  C 0.5729166666666667 17.99823288690476  0.859375 17.07040550595238  1.203125 16.352957589285715  C 1.546875 15.635509672619047  1.9609375 15.012462797619047  2.4453125 14.483816964285715  C 2.9296875 13.95517113095238  3.393229166666667 13.561383928571429  3.8359375 13.302455357142856  C 4.278645833333334 13.043526785714285  4.744791666666667 12.838541666666664  5.234375 12.6875  C 4.411458333333334 11.338913690476188  4 9.871651785714285  4 8.285714285714285  C 4 7.163690476190474  4.2109375 6.09291294642857  4.6328125 5.07338169642857  C 5.0546875 4.05385044642857  5.625 3.171875  6.34375 2.427455357142856  C 7.0625 1.6830357142857149  7.9140625 1.0923549107142851  8.8984375 0.6554129464285705  C 9.8828125 0.21847098214285576  10.916666666666668 0  12 0  C 13.083333333333336 0  14.1171875 0.21847098214285576  15.1015625 0.6554129464285705  C 16.0859375 1.0923549107142851  16.9375 1.6830357142857149  17.65625 2.427455357142856  C 18.375 3.171875  18.9453125 4.05385044642857  19.3671875 5.07338169642857  C 19.7890625 6.09291294642857  20 7.163690476190474  20 8.285714285714285  Z M 16.2421875 3.892020089285715  C 15.070312500000004 2.678292410714285  13.656250000000002 2.0714285714285703  12 2.0714285714285703  C 10.34375 2.0714285714285703  8.9296875 2.678292410714285  7.7578125 3.892020089285715  C 6.5859375 5.105747767857144  6 6.5703125  6 8.285714285714285  C 6 10.001116071428571  6.5859375 11.465680803571429  7.7578125 12.679408482142856  C 8.9296875 13.893136160714285  10.34375 14.5  12 14.5  C 13.656250000000002 14.5  15.070312500000004 13.893136160714285  16.2421875 12.679408482142856  C 17.4140625 11.465680803571429  18 10.001116071428571  18 8.285714285714285  C 18 6.5703125  17.4140625 5.105747767857144  16.2421875 3.892020089285715  Z M 5.328125 27  L 18.671875 27  C 19.588541666666668 26.92857142857143  20.372395833333336 26.54287574404762  21.0234375 25.771484375  C 21.674479166666668 25.00009300595238  22 24.064174107142858  22 22.96372767857143  C 22 20.3852306547619  21.591145833333336 18.3515625  20.7734375 16.862723214285715  C 19.955729166666668 15.373883928571429  18.78125 14.591703869047617  17.25 14.516183035714285  C 15.739583333333332 15.886346726190476  13.989583333333334 16.57142857142857  12 16.57142857142857  C 10.010416666666668 16.57142857142857  8.260416666666668 15.886346726190476  6.75 14.516183035714285  C 5.21875 14.591703869047617  4.044270833333334 15.373883928571429  3.2265625 16.862723214285715  C 2.408854166666667 18.3515625  2 20.3852306547619  2 22.96372767857143  C 2 24.064174107142858  2.3255208333333335 25.00009300595238  2.9765625 25.771484375  C 3.627604166666667 26.54287574404762  4.411458333333334 26.92857142857143  5.328125 27  Z " fill-rule="evenodd" />
    </mask>
  </defs>
  <g transform="matrix(1 0 0 1 -280 -589 )">
    <path d="M 20 8.285714285714285  C 20 9.871651785714285  19.588541666666668 11.338913690476188  18.765625 12.6875  C 19.255208333333336 12.838541666666664  19.721354166666668 13.043526785714285  20.1640625 13.302455357142856  C 20.606770833333336 13.561383928571429  21.0703125 13.95517113095238  21.5546875 14.483816964285715  C 22.0390625 15.012462797619047  22.453125 15.635509672619047  22.796875 16.352957589285715  C 23.140625 17.07040550595238  23.427083333333336 17.99823288690476  23.65625 19.136439732142858  C 23.885416666666664 20.274646577380953  24 21.550409226190478  24 22.96372767857143  C 24 24.625186011904766  23.479166666666664 26.046595982142854  22.4375 27.227957589285715  C 21.395833333333336 28.40931919642857  20.140625 29  18.671875 29  L 5.328125 29  C 3.859375 29  2.604166666666667 28.40931919642857  1.5625 27.227957589285715  C 0.5208333333333333 26.046595982142854  0 24.625186011904766  0 22.96372767857143  C 0 21.550409226190478  0.11458333333333331 20.274646577380953  0.34375 19.136439732142858  C 0.5729166666666667 17.99823288690476  0.859375 17.07040550595238  1.203125 16.352957589285715  C 1.546875 15.635509672619047  1.9609375 15.012462797619047  2.4453125 14.483816964285715  C 2.9296875 13.95517113095238  3.393229166666667 13.561383928571429  3.8359375 13.302455357142856  C 4.278645833333334 13.043526785714285  4.744791666666667 12.838541666666664  5.234375 12.6875  C 4.411458333333334 11.338913690476188  4 9.871651785714285  4 8.285714285714285  C 4 7.163690476190474  4.2109375 6.09291294642857  4.6328125 5.07338169642857  C 5.0546875 4.05385044642857  5.625 3.171875  6.34375 2.427455357142856  C 7.0625 1.6830357142857149  7.9140625 1.0923549107142851  8.8984375 0.6554129464285705  C 9.8828125 0.21847098214285576  10.916666666666668 0  12 0  C 13.083333333333336 0  14.1171875 0.21847098214285576  15.1015625 0.6554129464285705  C 16.0859375 1.0923549107142851  16.9375 1.6830357142857149  17.65625 2.427455357142856  C 18.375 3.171875  18.9453125 4.05385044642857  19.3671875 5.07338169642857  C 19.7890625 6.09291294642857  20 7.163690476190474  20 8.285714285714285  Z M 16.2421875 3.892020089285715  C 15.070312500000004 2.678292410714285  13.656250000000002 2.0714285714285703  12 2.0714285714285703  C 10.34375 2.0714285714285703  8.9296875 2.678292410714285  7.7578125 3.892020089285715  C 6.5859375 5.105747767857144  6 6.5703125  6 8.285714285714285  C 6 10.001116071428571  6.5859375 11.465680803571429  7.7578125 12.679408482142856  C 8.9296875 13.893136160714285  10.34375 14.5  12 14.5  C 13.656250000000002 14.5  15.070312500000004 13.893136160714285  16.2421875 12.679408482142856  C 17.4140625 11.465680803571429  18 10.001116071428571  18 8.285714285714285  C 18 6.5703125  17.4140625 5.105747767857144  16.2421875 3.892020089285715  Z M 5.328125 27  L 18.671875 27  C 19.588541666666668 26.92857142857143  20.372395833333336 26.54287574404762  21.0234375 25.771484375  C 21.674479166666668 25.00009300595238  22 24.064174107142858  22 22.96372767857143  C 22 20.3852306547619  21.591145833333336 18.3515625  20.7734375 16.862723214285715  C 19.955729166666668 15.373883928571429  18.78125 14.591703869047617  17.25 14.516183035714285  C 15.739583333333332 15.886346726190476  13.989583333333334 16.57142857142857  12 16.57142857142857  C 10.010416666666668 16.57142857142857  8.260416666666668 15.886346726190476  6.75 14.516183035714285  C 5.21875 14.591703869047617  4.044270833333334 15.373883928571429  3.2265625 16.862723214285715  C 2.408854166666667 18.3515625  2 20.3852306547619  2 22.96372767857143  C 2 24.064174107142858  2.3255208333333335 25.00009300595238  2.9765625 25.771484375  C 3.627604166666667 26.54287574404762  4.411458333333334 26.92857142857143  5.328125 27  Z " fill-rule="nonzero" fill="rgba(0, 0, 0, 0.6666666666666666)" stroke="none" transform="matrix(1 0 0 1 280 589 )" class="fill" />
    <path d="M 20 8.285714285714285  C 20 9.871651785714285  19.588541666666668 11.338913690476188  18.765625 12.6875  C 19.255208333333336 12.838541666666664  19.721354166666668 13.043526785714285  20.1640625 13.302455357142856  C 20.606770833333336 13.561383928571429  21.0703125 13.95517113095238  21.5546875 14.483816964285715  C 22.0390625 15.012462797619047  22.453125 15.635509672619047  22.796875 16.352957589285715  C 23.140625 17.07040550595238  23.427083333333336 17.99823288690476  23.65625 19.136439732142858  C 23.885416666666664 20.274646577380953  24 21.550409226190478  24 22.96372767857143  C 24 24.625186011904766  23.479166666666664 26.046595982142854  22.4375 27.227957589285715  C 21.395833333333336 28.40931919642857  20.140625 29  18.671875 29  L 5.328125 29  C 3.859375 29  2.604166666666667 28.40931919642857  1.5625 27.227957589285715  C 0.5208333333333333 26.046595982142854  0 24.625186011904766  0 22.96372767857143  C 0 21.550409226190478  0.11458333333333331 20.274646577380953  0.34375 19.136439732142858  C 0.5729166666666667 17.99823288690476  0.859375 17.07040550595238  1.203125 16.352957589285715  C 1.546875 15.635509672619047  1.9609375 15.012462797619047  2.4453125 14.483816964285715  C 2.9296875 13.95517113095238  3.393229166666667 13.561383928571429  3.8359375 13.302455357142856  C 4.278645833333334 13.043526785714285  4.744791666666667 12.838541666666664  5.234375 12.6875  C 4.411458333333334 11.338913690476188  4 9.871651785714285  4 8.285714285714285  C 4 7.163690476190474  4.2109375 6.09291294642857  4.6328125 5.07338169642857  C 5.0546875 4.05385044642857  5.625 3.171875  6.34375 2.427455357142856  C 7.0625 1.6830357142857149  7.9140625 1.0923549107142851  8.8984375 0.6554129464285705  C 9.8828125 0.21847098214285576  10.916666666666668 0  12 0  C 13.083333333333336 0  14.1171875 0.21847098214285576  15.1015625 0.6554129464285705  C 16.0859375 1.0923549107142851  16.9375 1.6830357142857149  17.65625 2.427455357142856  C 18.375 3.171875  18.9453125 4.05385044642857  19.3671875 5.07338169642857  C 19.7890625 6.09291294642857  20 7.163690476190474  20 8.285714285714285  Z " stroke-width="0" stroke-dasharray="0" stroke="rgba(255, 255, 255, 0)" fill="none" transform="matrix(1 0 0 1 280 589 )" class="stroke" mask="url(#Clip11)" />
    <path d="M 16.2421875 3.892020089285715  C 15.070312500000004 2.678292410714285  13.656250000000002 2.0714285714285703  12 2.0714285714285703  C 10.34375 2.0714285714285703  8.9296875 2.678292410714285  7.7578125 3.892020089285715  C 6.5859375 5.105747767857144  6 6.5703125  6 8.285714285714285  C 6 10.001116071428571  6.5859375 11.465680803571429  7.7578125 12.679408482142856  C 8.9296875 13.893136160714285  10.34375 14.5  12 14.5  C 13.656250000000002 14.5  15.070312500000004 13.893136160714285  16.2421875 12.679408482142856  C 17.4140625 11.465680803571429  18 10.001116071428571  18 8.285714285714285  C 18 6.5703125  17.4140625 5.105747767857144  16.2421875 3.892020089285715  Z " stroke-width="0" stroke-dasharray="0" stroke="rgba(255, 255, 255, 0)" fill="none" transform="matrix(1 0 0 1 280 589 )" class="stroke" mask="url(#Clip11)" />
    <path d="M 5.328125 27  L 18.671875 27  C 19.588541666666668 26.92857142857143  20.372395833333336 26.54287574404762  21.0234375 25.771484375  C 21.674479166666668 25.00009300595238  22 24.064174107142858  22 22.96372767857143  C 22 20.3852306547619  21.591145833333336 18.3515625  20.7734375 16.862723214285715  C 19.955729166666668 15.373883928571429  18.78125 14.591703869047617  17.25 14.516183035714285  C 15.739583333333332 15.886346726190476  13.989583333333334 16.57142857142857  12 16.57142857142857  C 10.010416666666668 16.57142857142857  8.260416666666668 15.886346726190476  6.75 14.516183035714285  C 5.21875 14.591703869047617  4.044270833333334 15.373883928571429  3.2265625 16.862723214285715  C 2.408854166666667 18.3515625  2 20.3852306547619  2 22.96372767857143  C 2 24.064174107142858  2.3255208333333335 25.00009300595238  2.9765625 25.771484375  C 3.627604166666667 26.54287574404762  4.411458333333334 26.92857142857143  5.328125 27  Z " stroke-width="0" stroke-dasharray="0" stroke="rgba(255, 255, 255, 0)" fill="none" transform="matrix(1 0 0 1 280 589 )" class="stroke" mask="url(#Clip11)" />
  </g>
</svg>