<?xml version="1.0" encoding="utf-8"?>
<svg version="1.1" xmlns:xlink="http://www.w3.org/1999/xlink" width="26px" height="27px" xmlns="http://www.w3.org/2000/svg">
  <defs>
    <pattern id="BGPattern" patternUnits="userSpaceOnUse" alignment="0 0" imageRepeat="None" />
    <mask fill="white" id="Clip15">
      <path d="M 19.567708333333332 1.0245535714285723  L 24.848958333333332 5.725446428571428  C 25.164930555555557 6.006696428571427  25.43576388888889 6.3883928571428585  25.661458333333332 6.8705357142857135  C 25.88715277777778 7.352678571428572  26 7.794642857142857  26 8.196428571428573  L 26 25.553571428571427  C 26 25.955357142857142  25.842013888888886 26.296874999999996  25.526041666666668 26.578125  C 25.210069444444446 26.859375000000004  24.82638888888889 27  24.375 27  L 1.625 27  C 1.1736111111111112 27  0.7899305555555556 26.859375000000004  0.47395833333333337 26.578125  C 0.1579861111111111 26.296874999999996  0 25.955357142857142  0 25.553571428571427  L 0 1.4464285714285723  C 0 1.0446428571428563  0.1579861111111111 0.703124999999999  0.47395833333333337 0.421875  C 0.7899305555555556 0.140625000000001  1.1736111111111112 0  1.625 0  L 16.791666666666668 0  C 17.243055555555557 0  17.739583333333332 0.10044642857142971  18.28125 0.30133928571428614  C 18.822916666666668 0.5022321428571426  19.251736111111114 0.7433035714285703  19.567708333333332 1.0245535714285723  Z M 18.02734375 2.3805803571428585  C 17.891927083333332 2.2600446428571415  17.66059027777778 2.1495535714285685  17.333333333333332 2.0491071428571415  L 17.333333333333332 7.7142857142857135  L 23.697916666666668 7.7142857142857135  C 23.585069444444446 7.4229910714285685  23.4609375 7.2170758928571415  23.325520833333332 7.096540178571428  L 18.02734375 2.3805803571428585  Z M 2.1666666666666665 25  L 23.833333333333332 25  L 23.833333333333332 9.642857142857142  L 16.791666666666668 9.642857142857142  C 16.34027777777778 9.642857142857142  15.956597222222223 9.50223214285714  15.640625 9.220982142857142  C 15.324652777777777 8.939732142857142  15.166666666666668 8.598214285714283  15.166666666666668 8.196428571428573  L 15.166666666666668 2  L 2.1666666666666665 2  L 2.1666666666666665 25  Z M 6.5 13.017857142857142  L 6.5 12.053571428571427  C 6.5 11.912946428571427  6.55078125 11.797433035714286  6.65234375 11.70703125  C 6.753906250000002 11.616629464285714  6.883680555555556 11.571428571428573  7.041666666666666 12  L 18.958333333333332 12  C 19.116319444444446 11.571428571428573  19.24609375 11.616629464285714  19.34765625 11.70703125  C 19.44921875 11.797433035714286  19.5 11.912946428571427  19.5 12.053571428571427  L 19.5 13.017857142857142  C 19.5 13.158482142857142  19.44921875 13.273995535714286  19.34765625 13.364397321428573  C 19.24609375 13.454799107142858  19.116319444444446 13.5  18.958333333333332 13  L 7.041666666666666 13  C 6.883680555555556 13.5  6.753906250000002 13.454799107142858  6.65234375 13.364397321428573  C 6.55078125 13.273995535714286  6.5 13.158482142857142  6.5 13.017857142857142  Z M 7.041666666666666 15  L 18.958333333333332 15  C 19.116319444444446 15.428571428571427  19.24609375 15.473772321428573  19.34765625 15.564174107142856  C 19.44921875 15.654575892857144  19.5 15.770089285714285  19.5 15.910714285714286  L 19.5 16.875  C 19.5 17.015624999999996  19.44921875 17.131138392857146  19.34765625 17.221540178571427  C 19.24609375 17.311941964285715  19.116319444444446 17.357142857142854  18.958333333333332 17  L 7.041666666666666 17  C 6.883680555555556 17.357142857142854  6.753906250000002 17.311941964285715  6.65234375 17.221540178571427  C 6.55078125 17.131138392857146  6.5 17.015624999999996  6.5 16.875  L 6.5 15.910714285714286  C 6.5 15.770089285714285  6.55078125 15.654575892857144  6.65234375 15.564174107142856  C 6.753906250000002 15.473772321428573  6.883680555555556 15.428571428571427  7.041666666666666 15  Z M 7.041666666666666 19  L 18.958333333333332 19  C 19.116319444444446 19.285714285714285  19.24609375 19.330915178571427  19.34765625 19.421316964285715  C 19.44921875 19.51171875  19.5 19.627232142857142  19.5 19.767857142857146  L 19.5 20.732142857142854  C 19.5 20.872767857142858  19.44921875 20.98828125  19.34765625 21.078683035714285  C 19.24609375 21.169084821428573  19.116319444444446 21.214285714285715  18.958333333333332 21  L 7.041666666666666 21  C 6.883680555555556 21.214285714285715  6.753906250000002 21.169084821428573  6.65234375 21.078683035714285  C 6.55078125 20.98828125  6.5 20.872767857142858  6.5 20.732142857142854  L 6.5 19.767857142857146  C 6.5 19.627232142857142  6.55078125 19.51171875  6.65234375 19.421316964285715  C 6.753906250000002 19.330915178571427  6.883680555555556 19.285714285714285  7.041666666666666 19  Z " fill-rule="evenodd" />
    </mask>
  </defs>
  <g transform="matrix(1 0 0 1 -167 -591 )">
    <path d="M 19.567708333333332 1.0245535714285723  L 24.848958333333332 5.725446428571428  C 25.164930555555557 6.006696428571427  25.43576388888889 6.3883928571428585  25.661458333333332 6.8705357142857135  C 25.88715277777778 7.352678571428572  26 7.794642857142857  26 8.196428571428573  L 26 25.553571428571427  C 26 25.955357142857142  25.842013888888886 26.296874999999996  25.526041666666668 26.578125  C 25.210069444444446 26.859375000000004  24.82638888888889 27  24.375 27  L 1.625 27  C 1.1736111111111112 27  0.7899305555555556 26.859375000000004  0.47395833333333337 26.578125  C 0.1579861111111111 26.296874999999996  0 25.955357142857142  0 25.553571428571427  L 0 1.4464285714285723  C 0 1.0446428571428563  0.1579861111111111 0.703124999999999  0.47395833333333337 0.421875  C 0.7899305555555556 0.140625000000001  1.1736111111111112 0  1.625 0  L 16.791666666666668 0  C 17.243055555555557 0  17.739583333333332 0.10044642857142971  18.28125 0.30133928571428614  C 18.822916666666668 0.5022321428571426  19.251736111111114 0.7433035714285703  19.567708333333332 1.0245535714285723  Z M 18.02734375 2.3805803571428585  C 17.891927083333332 2.2600446428571415  17.66059027777778 2.1495535714285685  17.333333333333332 2.0491071428571415  L 17.333333333333332 7.7142857142857135  L 23.697916666666668 7.7142857142857135  C 23.585069444444446 7.4229910714285685  23.4609375 7.2170758928571415  23.325520833333332 7.096540178571428  L 18.02734375 2.3805803571428585  Z M 2.1666666666666665 25  L 23.833333333333332 25  L 23.833333333333332 9.642857142857142  L 16.791666666666668 9.642857142857142  C 16.34027777777778 9.642857142857142  15.956597222222223 9.50223214285714  15.640625 9.220982142857142  C 15.324652777777777 8.939732142857142  15.166666666666668 8.598214285714283  15.166666666666668 8.196428571428573  L 15.166666666666668 2  L 2.1666666666666665 2  L 2.1666666666666665 25  Z M 6.5 13.017857142857142  L 6.5 12.053571428571427  C 6.5 11.912946428571427  6.55078125 11.797433035714286  6.65234375 11.70703125  C 6.753906250000002 11.616629464285714  6.883680555555556 11.571428571428573  7.041666666666666 12  L 18.958333333333332 12  C 19.116319444444446 11.571428571428573  19.24609375 11.616629464285714  19.34765625 11.70703125  C 19.44921875 11.797433035714286  19.5 11.912946428571427  19.5 12.053571428571427  L 19.5 13.017857142857142  C 19.5 13.158482142857142  19.44921875 13.273995535714286  19.34765625 13.364397321428573  C 19.24609375 13.454799107142858  19.116319444444446 13.5  18.958333333333332 13  L 7.041666666666666 13  C 6.883680555555556 13.5  6.753906250000002 13.454799107142858  6.65234375 13.364397321428573  C 6.55078125 13.273995535714286  6.5 13.158482142857142  6.5 13.017857142857142  Z M 7.041666666666666 15  L 18.958333333333332 15  C 19.116319444444446 15.428571428571427  19.24609375 15.473772321428573  19.34765625 15.564174107142856  C 19.44921875 15.654575892857144  19.5 15.770089285714285  19.5 15.910714285714286  L 19.5 16.875  C 19.5 17.015624999999996  19.44921875 17.131138392857146  19.34765625 17.221540178571427  C 19.24609375 17.311941964285715  19.116319444444446 17.357142857142854  18.958333333333332 17  L 7.041666666666666 17  C 6.883680555555556 17.357142857142854  6.753906250000002 17.311941964285715  6.65234375 17.221540178571427  C 6.55078125 17.131138392857146  6.5 17.015624999999996  6.5 16.875  L 6.5 15.910714285714286  C 6.5 15.770089285714285  6.55078125 15.654575892857144  6.65234375 15.564174107142856  C 6.753906250000002 15.473772321428573  6.883680555555556 15.428571428571427  7.041666666666666 15  Z M 7.041666666666666 19  L 18.958333333333332 19  C 19.116319444444446 19.285714285714285  19.24609375 19.330915178571427  19.34765625 19.421316964285715  C 19.44921875 19.51171875  19.5 19.627232142857142  19.5 19.767857142857146  L 19.5 20.732142857142854  C 19.5 20.872767857142858  19.44921875 20.98828125  19.34765625 21.078683035714285  C 19.24609375 21.169084821428573  19.116319444444446 21.214285714285715  18.958333333333332 21  L 7.041666666666666 21  C 6.883680555555556 21.214285714285715  6.753906250000002 21.169084821428573  6.65234375 21.078683035714285  C 6.55078125 20.98828125  6.5 20.872767857142858  6.5 20.732142857142854  L 6.5 19.767857142857146  C 6.5 19.627232142857142  6.55078125 19.51171875  6.65234375 19.421316964285715  C 6.753906250000002 19.330915178571427  6.883680555555556 19.285714285714285  7.041666666666666 19  Z " fill-rule="nonzero" fill="rgba(2, 167, 240, 0.6666666666666666)" stroke="none" transform="matrix(1 0 0 1 167 591 )" class="fill" />
    <path d="M 19.567708333333332 1.0245535714285723  L 24.848958333333332 5.725446428571428  C 25.164930555555557 6.006696428571427  25.43576388888889 6.3883928571428585  25.661458333333332 6.8705357142857135  C 25.88715277777778 7.352678571428572  26 7.794642857142857  26 8.196428571428573  L 26 25.553571428571427  C 26 25.955357142857142  25.842013888888886 26.296874999999996  25.526041666666668 26.578125  C 25.210069444444446 26.859375000000004  24.82638888888889 27  24.375 27  L 1.625 27  C 1.1736111111111112 27  0.7899305555555556 26.859375000000004  0.47395833333333337 26.578125  C 0.1579861111111111 26.296874999999996  0 25.955357142857142  0 25.553571428571427  L 0 1.4464285714285723  C 0 1.0446428571428563  0.1579861111111111 0.703124999999999  0.47395833333333337 0.421875  C 0.7899305555555556 0.140625000000001  1.1736111111111112 0  1.625 0  L 16.791666666666668 0  C 17.243055555555557 0  17.739583333333332 0.10044642857142971  18.28125 0.30133928571428614  C 18.822916666666668 0.5022321428571426  19.251736111111114 0.7433035714285703  19.567708333333332 1.0245535714285723  Z " stroke-width="0" stroke-dasharray="0" stroke="rgba(255, 255, 255, 0)" fill="none" transform="matrix(1 0 0 1 167 591 )" class="stroke" mask="url(#Clip15)" />
    <path d="M 18.02734375 2.3805803571428585  C 17.891927083333332 2.2600446428571415  17.66059027777778 2.1495535714285685  17.333333333333332 2.0491071428571415  L 17.333333333333332 7.7142857142857135  L 23.697916666666668 7.7142857142857135  C 23.585069444444446 7.4229910714285685  23.4609375 7.2170758928571415  23.325520833333332 7.096540178571428  L 18.02734375 2.3805803571428585  Z " stroke-width="0" stroke-dasharray="0" stroke="rgba(255, 255, 255, 0)" fill="none" transform="matrix(1 0 0 1 167 591 )" class="stroke" mask="url(#Clip15)" />
    <path d="M 2.1666666666666665 25  L 23.833333333333332 25  L 23.833333333333332 9.642857142857142  L 16.791666666666668 9.642857142857142  C 16.34027777777778 9.642857142857142  15.956597222222223 9.50223214285714  15.640625 9.220982142857142  C 15.324652777777777 8.939732142857142  15.166666666666668 8.598214285714283  15.166666666666668 8.196428571428573  L 15.166666666666668 2  L 2.1666666666666665 2  L 2.1666666666666665 25  Z " stroke-width="0" stroke-dasharray="0" stroke="rgba(255, 255, 255, 0)" fill="none" transform="matrix(1 0 0 1 167 591 )" class="stroke" mask="url(#Clip15)" />
    <path d="M 6.5 13.017857142857142  L 6.5 12.053571428571427  C 6.5 11.912946428571427  6.55078125 11.797433035714286  6.65234375 11.70703125  C 6.753906250000002 11.616629464285714  6.883680555555556 11.571428571428573  7.041666666666666 12  L 18.958333333333332 12  C 19.116319444444446 11.571428571428573  19.24609375 11.616629464285714  19.34765625 11.70703125  C 19.44921875 11.797433035714286  19.5 11.912946428571427  19.5 12.053571428571427  L 19.5 13.017857142857142  C 19.5 13.158482142857142  19.44921875 13.273995535714286  19.34765625 13.364397321428573  C 19.24609375 13.454799107142858  19.116319444444446 13.5  18.958333333333332 13  L 7.041666666666666 13  C 6.883680555555556 13.5  6.753906250000002 13.454799107142858  6.65234375 13.364397321428573  C 6.55078125 13.273995535714286  6.5 13.158482142857142  6.5 13.017857142857142  Z " stroke-width="0" stroke-dasharray="0" stroke="rgba(255, 255, 255, 0)" fill="none" transform="matrix(1 0 0 1 167 591 )" class="stroke" mask="url(#Clip15)" />
    <path d="M 7.041666666666666 15  L 18.958333333333332 15  C 19.116319444444446 15.428571428571427  19.24609375 15.473772321428573  19.34765625 15.564174107142856  C 19.44921875 15.654575892857144  19.5 15.770089285714285  19.5 15.910714285714286  L 19.5 16.875  C 19.5 17.015624999999996  19.44921875 17.131138392857146  19.34765625 17.221540178571427  C 19.24609375 17.311941964285715  19.116319444444446 17.357142857142854  18.958333333333332 17  L 7.041666666666666 17  C 6.883680555555556 17.357142857142854  6.753906250000002 17.311941964285715  6.65234375 17.221540178571427  C 6.55078125 17.131138392857146  6.5 17.015624999999996  6.5 16.875  L 6.5 15.910714285714286  C 6.5 15.770089285714285  6.55078125 15.654575892857144  6.65234375 15.564174107142856  C 6.753906250000002 15.473772321428573  6.883680555555556 15.428571428571427  7.041666666666666 15  Z " stroke-width="0" stroke-dasharray="0" stroke="rgba(255, 255, 255, 0)" fill="none" transform="matrix(1 0 0 1 167 591 )" class="stroke" mask="url(#Clip15)" />
    <path d="M 7.041666666666666 19  L 18.958333333333332 19  C 19.116319444444446 19.285714285714285  19.24609375 19.330915178571427  19.34765625 19.421316964285715  C 19.44921875 19.51171875  19.5 19.627232142857142  19.5 19.767857142857146  L 19.5 20.732142857142854  C 19.5 20.872767857142858  19.44921875 20.98828125  19.34765625 21.078683035714285  C 19.24609375 21.169084821428573  19.116319444444446 21.214285714285715  18.958333333333332 21  L 7.041666666666666 21  C 6.883680555555556 21.214285714285715  6.753906250000002 21.169084821428573  6.65234375 21.078683035714285  C 6.55078125 20.98828125  6.5 20.872767857142858  6.5 20.732142857142854  L 6.5 19.767857142857146  C 6.5 19.627232142857142  6.55078125 19.51171875  6.65234375 19.421316964285715  C 6.753906250000002 19.330915178571427  6.883680555555556 19.285714285714285  7.041666666666666 19  Z " stroke-width="0" stroke-dasharray="0" stroke="rgba(255, 255, 255, 0)" fill="none" transform="matrix(1 0 0 1 167 591 )" class="stroke" mask="url(#Clip15)" />
  </g>
</svg>