<?xml version="1.0" encoding="utf-8"?>
<svg version="1.1" xmlns:xlink="http://www.w3.org/1999/xlink" width="26px" height="24px" xmlns="http://www.w3.org/2000/svg">
  <defs>
    <pattern id="BGPattern" patternUnits="userSpaceOnUse" alignment="0 0" imageRepeat="None" />
    <mask fill="white" id="Clip16">
      <path d="M 7.950892857142858 0.9508928571428568  C 9.55654761904762 0.3169642857142856  11.239583333333334 0  13 0  C 14.760416666666668 0  16.443452380952383 0.3169642857142856  18.049107142857142 0.9508928571428568  C 19.65476190476191 1.584821428571428  21.037946428571427 2.4375  22.198660714285715 3.5089285714285703  C 23.359375000000004 4.580357142857143  24.283110119047624 5.857142857142855  24.969866071428573 7.3392857142857135  C 25.656622023809526 8.82142857142857  26 10.375  26 12  C 26 13.616071428571429  25.659040178571427 15.165178571428571  24.977120535714285 16.647321428571427  C 24.295200892857142 18.12946428571429  23.373883928571427 19.40625  22.213169642857142 20.477678571428573  C 21.052455357142858 21.549107142857142  19.669270833333336 22.404017857142854  18.063616071428573 23.042410714285715  C 16.45796130952381 23.680803571428573  14.770089285714285 24  13 24  C 11.229910714285714 24  9.542038690476192 23.683035714285715  7.936383928571428 23.049107142857142  C 6.330729166666667 22.415178571428573  4.9499627976190474 21.560267857142854  3.794084821428571 20.484375  C 2.638206845238095 19.408482142857142  1.716889880952381 18.131696428571427  1.0301339285714286 16.654017857142858  C 0.34337797619047616 15.176339285714283  0 13.624999999999998  0 12  C 0 10.375  0.34337797619047616 8.82142857142857  1.0301339285714286 7.3392857142857135  C 1.716889880952381 5.857142857142855  2.640625 4.580357142857143  3.801339285714286 3.5089285714285703  C 4.962053571428571 2.4375  6.345238095238096 1.584821428571428  7.950892857142858 0.9508928571428568  Z M 17.541294642857142 13.714285714285714  C 19.862723214285715 13.714285714285714  21.342633928571427 15.174107142857142  21.981026785714285 18.09375  C 23.422247023809526 16.263392857142858  24.142857142857142 14.232142857142856  24.142857142857142 12  C 24.142857142857142 10.607142857142858  23.847842261904763 9.276785714285712  23.2578125 8.00892857142857  C 22.66778273809524 6.741071428571428  21.87462797619048 5.647321428571426  20.878348214285715 4.72767857142857  C 19.882068452380956 3.8080357142857144  18.69717261904762 3.075892857142856  17.323660714285715 2.53125  C 15.950148809523812 1.9866071428571415  14.508928571428571 1.7142857142857135  13 1.7142857142857135  C 11.491071428571429 1.7142857142857135  10.049851190476192 1.9866071428571415  8.676339285714286 2.53125  C 7.302827380952381 3.075892857142856  6.117931547619048 3.8080357142857144  5.121651785714286 4.72767857142857  C 4.125372023809525 5.647321428571426  3.332217261904762 6.741071428571428  2.7421875 8.00892857142857  C 2.1521577380952386 9.276785714285712  1.857142857142857 10.607142857142858  1.857142857142857 12  C 1.857142857142857 14.232142857142856  2.5777529761904763 16.263392857142858  4.018973214285714 18.09375  C 4.657366071428571 15.174107142857142  6.137276785714286 13.714285714285714  8.458705357142858 13.714285714285714  C 9.725818452380954 14.857142857142858  11.239583333333334 15.428571428571427  13 15.428571428571427  C 14.760416666666668 15.428571428571427  16.274181547619047 14.857142857142858  17.541294642857142 13.714285714285714  Z M 16.939174107142858 13.064732142857142  C 18.02734375 12.060267857142858  18.571428571428573 10.848214285714286  18.571428571428573 9.42857142857143  C 18.571428571428573 8.00892857142857  18.02734375 6.796875  16.939174107142858 5.7924107142857135  C 15.851004464285715 4.78794642857143  14.537946428571429 4.2857142857142865  13 4.2857142857142865  C 11.462053571428571 4.2857142857142865  10.148995535714286 4.78794642857143  9.060825892857142 5.7924107142857135  C 7.97265625 6.796875  7.428571428571428 8.00892857142857  7.428571428571428 9.42857142857143  C 7.428571428571428 10.848214285714286  7.97265625 12.060267857142858  9.060825892857142 13.064732142857142  C 10.148995535714286 14.069196428571427  11.462053571428571 14.571428571428573  13 14.571428571428573  C 14.537946428571429 14.571428571428573  15.851004464285715 14.069196428571427  16.939174107142858 13.064732142857142  Z " fill-rule="evenodd" />
    </mask>
  </defs>
  <g transform="matrix(1 0 0 1 -44 -103 )">
    <path d="M 7.950892857142858 0.9508928571428568  C 9.55654761904762 0.3169642857142856  11.239583333333334 0  13 0  C 14.760416666666668 0  16.443452380952383 0.3169642857142856  18.049107142857142 0.9508928571428568  C 19.65476190476191 1.584821428571428  21.037946428571427 2.4375  22.198660714285715 3.5089285714285703  C 23.359375000000004 4.580357142857143  24.283110119047624 5.857142857142855  24.969866071428573 7.3392857142857135  C 25.656622023809526 8.82142857142857  26 10.375  26 12  C 26 13.616071428571429  25.659040178571427 15.165178571428571  24.977120535714285 16.647321428571427  C 24.295200892857142 18.12946428571429  23.373883928571427 19.40625  22.213169642857142 20.477678571428573  C 21.052455357142858 21.549107142857142  19.669270833333336 22.404017857142854  18.063616071428573 23.042410714285715  C 16.45796130952381 23.680803571428573  14.770089285714285 24  13 24  C 11.229910714285714 24  9.542038690476192 23.683035714285715  7.936383928571428 23.049107142857142  C 6.330729166666667 22.415178571428573  4.9499627976190474 21.560267857142854  3.794084821428571 20.484375  C 2.638206845238095 19.408482142857142  1.716889880952381 18.131696428571427  1.0301339285714286 16.654017857142858  C 0.34337797619047616 15.176339285714283  0 13.624999999999998  0 12  C 0 10.375  0.34337797619047616 8.82142857142857  1.0301339285714286 7.3392857142857135  C 1.716889880952381 5.857142857142855  2.640625 4.580357142857143  3.801339285714286 3.5089285714285703  C 4.962053571428571 2.4375  6.345238095238096 1.584821428571428  7.950892857142858 0.9508928571428568  Z M 17.541294642857142 13.714285714285714  C 19.862723214285715 13.714285714285714  21.342633928571427 15.174107142857142  21.981026785714285 18.09375  C 23.422247023809526 16.263392857142858  24.142857142857142 14.232142857142856  24.142857142857142 12  C 24.142857142857142 10.607142857142858  23.847842261904763 9.276785714285712  23.2578125 8.00892857142857  C 22.66778273809524 6.741071428571428  21.87462797619048 5.647321428571426  20.878348214285715 4.72767857142857  C 19.882068452380956 3.8080357142857144  18.69717261904762 3.075892857142856  17.323660714285715 2.53125  C 15.950148809523812 1.9866071428571415  14.508928571428571 1.7142857142857135  13 1.7142857142857135  C 11.491071428571429 1.7142857142857135  10.049851190476192 1.9866071428571415  8.676339285714286 2.53125  C 7.302827380952381 3.075892857142856  6.117931547619048 3.8080357142857144  5.121651785714286 4.72767857142857  C 4.125372023809525 5.647321428571426  3.332217261904762 6.741071428571428  2.7421875 8.00892857142857  C 2.1521577380952386 9.276785714285712  1.857142857142857 10.607142857142858  1.857142857142857 12  C 1.857142857142857 14.232142857142856  2.5777529761904763 16.263392857142858  4.018973214285714 18.09375  C 4.657366071428571 15.174107142857142  6.137276785714286 13.714285714285714  8.458705357142858 13.714285714285714  C 9.725818452380954 14.857142857142858  11.239583333333334 15.428571428571427  13 15.428571428571427  C 14.760416666666668 15.428571428571427  16.274181547619047 14.857142857142858  17.541294642857142 13.714285714285714  Z M 16.939174107142858 13.064732142857142  C 18.02734375 12.060267857142858  18.571428571428573 10.848214285714286  18.571428571428573 9.42857142857143  C 18.571428571428573 8.00892857142857  18.02734375 6.796875  16.939174107142858 5.7924107142857135  C 15.851004464285715 4.78794642857143  14.537946428571429 4.2857142857142865  13 4.2857142857142865  C 11.462053571428571 4.2857142857142865  10.148995535714286 4.78794642857143  9.060825892857142 5.7924107142857135  C 7.97265625 6.796875  7.428571428571428 8.00892857142857  7.428571428571428 9.42857142857143  C 7.428571428571428 10.848214285714286  7.97265625 12.060267857142858  9.060825892857142 13.064732142857142  C 10.148995535714286 14.069196428571427  11.462053571428571 14.571428571428573  13 14.571428571428573  C 14.537946428571429 14.571428571428573  15.851004464285715 14.069196428571427  16.939174107142858 13.064732142857142  Z " fill-rule="nonzero" fill="rgba(0, 0, 0, 1)" stroke="none" transform="matrix(1 0 0 1 44 103 )" class="fill" />
    <path d="M 7.950892857142858 0.9508928571428568  C 9.55654761904762 0.3169642857142856  11.239583333333334 0  13 0  C 14.760416666666668 0  16.443452380952383 0.3169642857142856  18.049107142857142 0.9508928571428568  C 19.65476190476191 1.584821428571428  21.037946428571427 2.4375  22.198660714285715 3.5089285714285703  C 23.359375000000004 4.580357142857143  24.283110119047624 5.857142857142855  24.969866071428573 7.3392857142857135  C 25.656622023809526 8.82142857142857  26 10.375  26 12  C 26 13.616071428571429  25.659040178571427 15.165178571428571  24.977120535714285 16.647321428571427  C 24.295200892857142 18.12946428571429  23.373883928571427 19.40625  22.213169642857142 20.477678571428573  C 21.052455357142858 21.549107142857142  19.669270833333336 22.404017857142854  18.063616071428573 23.042410714285715  C 16.45796130952381 23.680803571428573  14.770089285714285 24  13 24  C 11.229910714285714 24  9.542038690476192 23.683035714285715  7.936383928571428 23.049107142857142  C 6.330729166666667 22.415178571428573  4.9499627976190474 21.560267857142854  3.794084821428571 20.484375  C 2.638206845238095 19.408482142857142  1.716889880952381 18.131696428571427  1.0301339285714286 16.654017857142858  C 0.34337797619047616 15.176339285714283  0 13.624999999999998  0 12  C 0 10.375  0.34337797619047616 8.82142857142857  1.0301339285714286 7.3392857142857135  C 1.716889880952381 5.857142857142855  2.640625 4.580357142857143  3.801339285714286 3.5089285714285703  C 4.962053571428571 2.4375  6.345238095238096 1.584821428571428  7.950892857142858 0.9508928571428568  Z " stroke-width="0" stroke-dasharray="0" stroke="rgba(255, 255, 255, 0)" fill="none" transform="matrix(1 0 0 1 44 103 )" class="stroke" mask="url(#Clip16)" />
    <path d="M 17.541294642857142 13.714285714285714  C 19.862723214285715 13.714285714285714  21.342633928571427 15.174107142857142  21.981026785714285 18.09375  C 23.422247023809526 16.263392857142858  24.142857142857142 14.232142857142856  24.142857142857142 12  C 24.142857142857142 10.607142857142858  23.847842261904763 9.276785714285712  23.2578125 8.00892857142857  C 22.66778273809524 6.741071428571428  21.87462797619048 5.647321428571426  20.878348214285715 4.72767857142857  C 19.882068452380956 3.8080357142857144  18.69717261904762 3.075892857142856  17.323660714285715 2.53125  C 15.950148809523812 1.9866071428571415  14.508928571428571 1.7142857142857135  13 1.7142857142857135  C 11.491071428571429 1.7142857142857135  10.049851190476192 1.9866071428571415  8.676339285714286 2.53125  C 7.302827380952381 3.075892857142856  6.117931547619048 3.8080357142857144  5.121651785714286 4.72767857142857  C 4.125372023809525 5.647321428571426  3.332217261904762 6.741071428571428  2.7421875 8.00892857142857  C 2.1521577380952386 9.276785714285712  1.857142857142857 10.607142857142858  1.857142857142857 12  C 1.857142857142857 14.232142857142856  2.5777529761904763 16.263392857142858  4.018973214285714 18.09375  C 4.657366071428571 15.174107142857142  6.137276785714286 13.714285714285714  8.458705357142858 13.714285714285714  C 9.725818452380954 14.857142857142858  11.239583333333334 15.428571428571427  13 15.428571428571427  C 14.760416666666668 15.428571428571427  16.274181547619047 14.857142857142858  17.541294642857142 13.714285714285714  Z " stroke-width="0" stroke-dasharray="0" stroke="rgba(255, 255, 255, 0)" fill="none" transform="matrix(1 0 0 1 44 103 )" class="stroke" mask="url(#Clip16)" />
    <path d="M 16.939174107142858 13.064732142857142  C 18.02734375 12.060267857142858  18.571428571428573 10.848214285714286  18.571428571428573 9.42857142857143  C 18.571428571428573 8.00892857142857  18.02734375 6.796875  16.939174107142858 5.7924107142857135  C 15.851004464285715 4.78794642857143  14.537946428571429 4.2857142857142865  13 4.2857142857142865  C 11.462053571428571 4.2857142857142865  10.148995535714286 4.78794642857143  9.060825892857142 5.7924107142857135  C 7.97265625 6.796875  7.428571428571428 8.00892857142857  7.428571428571428 9.42857142857143  C 7.428571428571428 10.848214285714286  7.97265625 12.060267857142858  9.060825892857142 13.064732142857142  C 10.148995535714286 14.069196428571427  11.462053571428571 14.571428571428573  13 14.571428571428573  C 14.537946428571429 14.571428571428573  15.851004464285715 14.069196428571427  16.939174107142858 13.064732142857142  Z " stroke-width="0" stroke-dasharray="0" stroke="rgba(255, 255, 255, 0)" fill="none" transform="matrix(1 0 0 1 44 103 )" class="stroke" mask="url(#Clip16)" />
  </g>
</svg>