<?xml version="1.0" encoding="utf-8"?>
<svg version="1.1" xmlns:xlink="http://www.w3.org/1999/xlink" width="13px" height="25px" xmlns="http://www.w3.org/2000/svg">
  <defs>
    <pattern id="BGPattern" patternUnits="userSpaceOnUse" alignment="0 0" imageRepeat="None" />
    <mask fill="white" id="Clip17">
      <path d="M 7.456380208333334 23.603515625  C 7.721571180555556 23.297526041666668  7.854166666666666 22.9296875  7.854166666666666 22.5  C 7.854166666666666 22.0703125  7.721571180555556 21.702473958333336  7.456380208333334 21.396484375  C 7.191189236111112 21.090494791666664  6.872395833333334 20.9375  6.5 20.9375  C 6.127604166666667 20.9375  5.808810763888889 21.090494791666664  5.543619791666667 21.396484375  C 5.278428819444445 21.702473958333336  5.145833333333333 22.0703125  5.145833333333333 22.5  C 5.145833333333333 22.9296875  5.278428819444445 23.297526041666668  5.543619791666667 23.603515625  C 5.808810763888889 23.909505208333336  6.127604166666667 24.0625  6.5 24.0625  C 6.872395833333334 24.0625  7.191189236111112 23.909505208333336  7.456380208333334 23.603515625  Z M 11.214192708333334 19.814453125  C 11.321397569444445 19.69075520833333  11.375 19.54427083333333  11.375 19.375  L 11.375 5.624999999999999  C 11.375 5.455729166666664  11.321397569444445 5.309244791666664  11.214192708333334 5.185546874999999  C 11.106987847222223 5.061848958333331  10.980034722222223 4.999999999999999  10.833333333333334 4.999999999999999  L 2.1666666666666665 4.999999999999999  C 2.0199652777777777 4.999999999999999  1.893012152777778 5.061848958333331  1.7858072916666665 5.185546874999999  C 1.6786024305555554 5.309244791666664  1.625 5.455729166666664  1.625 5.624999999999999  L 1.625 19.375  C 1.625 19.54427083333333  1.6786024305555554 19.69075520833333  1.7858072916666665 19.814453125  C 1.893012152777778 19.938151041666664  2.0199652777777777 20  2.1666666666666665 20  L 10.833333333333334 20  C 10.980034722222223 20  11.106987847222223 19.938151041666664  11.214192708333334 19.814453125  Z M 7.854166666666666 3.125  C 8.034722222222223 3.125  8.125000000000002 3.020833333333331  8.125 2.812500000000001  C 8.125000000000002 2.6041666666666656  8.034722222222223 2.4999999999999996  7.854166666666666 2.4999999999999996  L 5.145833333333333 2.4999999999999996  C 4.965277777777779 2.4999999999999996  4.875 2.6041666666666656  4.875 2.812500000000001  C 4.875 3.020833333333331  4.965277777777779 3.125  5.145833333333333 3.125  L 7.854166666666666 3.125  Z M 12.356770833333334 0.7421874999999994  C 12.785590277777777 1.2369791666666656  13 1.8229166666666656  13 2.4999999999999996  L 13 22.5  C 13 23.177083333333336  12.785590277777777 23.763020833333336  12.356770833333334 24.2578125  C 11.92795138888889 24.752604166666664  11.42013888888889 25  10.833333333333334 25  L 2.1666666666666665 25  C 1.5798611111111112 25  1.0720486111111112 24.752604166666664  0.6432291666666666 24.2578125  C 0.21440972222222224 23.763020833333336  0 23.177083333333336  0 22.5  L 0 2.4999999999999996  C 0 1.8229166666666656  0.21440972222222224 1.2369791666666656  0.6432291666666666 0.7421874999999994  C 1.0720486111111112 0.24739583333333037  1.5798611111111112 0  2.1666666666666665 0  L 10.833333333333334 0  C 11.42013888888889 0  11.92795138888889 0.24739583333333037  12.356770833333334 0.7421874999999994  Z " fill-rule="evenodd" />
    </mask>
  </defs>
  <g transform="matrix(1 0 0 1 -52 -178 )">
    <path d="M 7.456380208333334 23.603515625  C 7.721571180555556 23.297526041666668  7.854166666666666 22.9296875  7.854166666666666 22.5  C 7.854166666666666 22.0703125  7.721571180555556 21.702473958333336  7.456380208333334 21.396484375  C 7.191189236111112 21.090494791666664  6.872395833333334 20.9375  6.5 20.9375  C 6.127604166666667 20.9375  5.808810763888889 21.090494791666664  5.543619791666667 21.396484375  C 5.278428819444445 21.702473958333336  5.145833333333333 22.0703125  5.145833333333333 22.5  C 5.145833333333333 22.9296875  5.278428819444445 23.297526041666668  5.543619791666667 23.603515625  C 5.808810763888889 23.909505208333336  6.127604166666667 24.0625  6.5 24.0625  C 6.872395833333334 24.0625  7.191189236111112 23.909505208333336  7.456380208333334 23.603515625  Z M 11.214192708333334 19.814453125  C 11.321397569444445 19.69075520833333  11.375 19.54427083333333  11.375 19.375  L 11.375 5.624999999999999  C 11.375 5.455729166666664  11.321397569444445 5.309244791666664  11.214192708333334 5.185546874999999  C 11.106987847222223 5.061848958333331  10.980034722222223 4.999999999999999  10.833333333333334 4.999999999999999  L 2.1666666666666665 4.999999999999999  C 2.0199652777777777 4.999999999999999  1.893012152777778 5.061848958333331  1.7858072916666665 5.185546874999999  C 1.6786024305555554 5.309244791666664  1.625 5.455729166666664  1.625 5.624999999999999  L 1.625 19.375  C 1.625 19.54427083333333  1.6786024305555554 19.69075520833333  1.7858072916666665 19.814453125  C 1.893012152777778 19.938151041666664  2.0199652777777777 20  2.1666666666666665 20  L 10.833333333333334 20  C 10.980034722222223 20  11.106987847222223 19.938151041666664  11.214192708333334 19.814453125  Z M 7.854166666666666 3.125  C 8.034722222222223 3.125  8.125000000000002 3.020833333333331  8.125 2.812500000000001  C 8.125000000000002 2.6041666666666656  8.034722222222223 2.4999999999999996  7.854166666666666 2.4999999999999996  L 5.145833333333333 2.4999999999999996  C 4.965277777777779 2.4999999999999996  4.875 2.6041666666666656  4.875 2.812500000000001  C 4.875 3.020833333333331  4.965277777777779 3.125  5.145833333333333 3.125  L 7.854166666666666 3.125  Z M 12.356770833333334 0.7421874999999994  C 12.785590277777777 1.2369791666666656  13 1.8229166666666656  13 2.4999999999999996  L 13 22.5  C 13 23.177083333333336  12.785590277777777 23.763020833333336  12.356770833333334 24.2578125  C 11.92795138888889 24.752604166666664  11.42013888888889 25  10.833333333333334 25  L 2.1666666666666665 25  C 1.5798611111111112 25  1.0720486111111112 24.752604166666664  0.6432291666666666 24.2578125  C 0.21440972222222224 23.763020833333336  0 23.177083333333336  0 22.5  L 0 2.4999999999999996  C 0 1.8229166666666656  0.21440972222222224 1.2369791666666656  0.6432291666666666 0.7421874999999994  C 1.0720486111111112 0.24739583333333037  1.5798611111111112 0  2.1666666666666665 0  L 10.833333333333334 0  C 11.42013888888889 0  11.92795138888889 0.24739583333333037  12.356770833333334 0.7421874999999994  Z " fill-rule="nonzero" fill="rgba(0, 0, 0, 1)" stroke="none" transform="matrix(1 0 0 1 52 178 )" class="fill" />
    <path d="M 7.456380208333334 23.603515625  C 7.721571180555556 23.297526041666668  7.854166666666666 22.9296875  7.854166666666666 22.5  C 7.854166666666666 22.0703125  7.721571180555556 21.702473958333336  7.456380208333334 21.396484375  C 7.191189236111112 21.090494791666664  6.872395833333334 20.9375  6.5 20.9375  C 6.127604166666667 20.9375  5.808810763888889 21.090494791666664  5.543619791666667 21.396484375  C 5.278428819444445 21.702473958333336  5.145833333333333 22.0703125  5.145833333333333 22.5  C 5.145833333333333 22.9296875  5.278428819444445 23.297526041666668  5.543619791666667 23.603515625  C 5.808810763888889 23.909505208333336  6.127604166666667 24.0625  6.5 24.0625  C 6.872395833333334 24.0625  7.191189236111112 23.909505208333336  7.456380208333334 23.603515625  Z " stroke-width="0" stroke-dasharray="0" stroke="rgba(255, 255, 255, 0)" fill="none" transform="matrix(1 0 0 1 52 178 )" class="stroke" mask="url(#Clip17)" />
    <path d="M 11.214192708333334 19.814453125  C 11.321397569444445 19.69075520833333  11.375 19.54427083333333  11.375 19.375  L 11.375 5.624999999999999  C 11.375 5.455729166666664  11.321397569444445 5.309244791666664  11.214192708333334 5.185546874999999  C 11.106987847222223 5.061848958333331  10.980034722222223 4.999999999999999  10.833333333333334 4.999999999999999  L 2.1666666666666665 4.999999999999999  C 2.0199652777777777 4.999999999999999  1.893012152777778 5.061848958333331  1.7858072916666665 5.185546874999999  C 1.6786024305555554 5.309244791666664  1.625 5.455729166666664  1.625 5.624999999999999  L 1.625 19.375  C 1.625 19.54427083333333  1.6786024305555554 19.69075520833333  1.7858072916666665 19.814453125  C 1.893012152777778 19.938151041666664  2.0199652777777777 20  2.1666666666666665 20  L 10.833333333333334 20  C 10.980034722222223 20  11.106987847222223 19.938151041666664  11.214192708333334 19.814453125  Z " stroke-width="0" stroke-dasharray="0" stroke="rgba(255, 255, 255, 0)" fill="none" transform="matrix(1 0 0 1 52 178 )" class="stroke" mask="url(#Clip17)" />
    <path d="M 7.854166666666666 3.125  C 8.034722222222223 3.125  8.125000000000002 3.020833333333331  8.125 2.812500000000001  C 8.125000000000002 2.6041666666666656  8.034722222222223 2.4999999999999996  7.854166666666666 2.4999999999999996  L 5.145833333333333 2.4999999999999996  C 4.965277777777779 2.4999999999999996  4.875 2.6041666666666656  4.875 2.812500000000001  C 4.875 3.020833333333331  4.965277777777779 3.125  5.145833333333333 3.125  L 7.854166666666666 3.125  Z " stroke-width="0" stroke-dasharray="0" stroke="rgba(255, 255, 255, 0)" fill="none" transform="matrix(1 0 0 1 52 178 )" class="stroke" mask="url(#Clip17)" />
    <path d="M 12.356770833333334 0.7421874999999994  C 12.785590277777777 1.2369791666666656  13 1.8229166666666656  13 2.4999999999999996  L 13 22.5  C 13 23.177083333333336  12.785590277777777 23.763020833333336  12.356770833333334 24.2578125  C 11.92795138888889 24.752604166666664  11.42013888888889 25  10.833333333333334 25  L 2.1666666666666665 25  C 1.5798611111111112 25  1.0720486111111112 24.752604166666664  0.6432291666666666 24.2578125  C 0.21440972222222224 23.763020833333336  0 23.177083333333336  0 22.5  L 0 2.4999999999999996  C 0 1.8229166666666656  0.21440972222222224 1.2369791666666656  0.6432291666666666 0.7421874999999994  C 1.0720486111111112 0.24739583333333037  1.5798611111111112 0  2.1666666666666665 0  L 10.833333333333334 0  C 11.42013888888889 0  11.92795138888889 0.24739583333333037  12.356770833333334 0.7421874999999994  Z " stroke-width="0" stroke-dasharray="0" stroke="rgba(255, 255, 255, 0)" fill="none" transform="matrix(1 0 0 1 52 178 )" class="stroke" mask="url(#Clip17)" />
  </g>
</svg>