<?xml version="1.0" encoding="utf-8"?>
<svg version="1.1" xmlns:xlink="http://www.w3.org/1999/xlink" width="37px" height="37px" xmlns="http://www.w3.org/2000/svg">
  <defs>
    <pattern id="BGPattern" patternUnits="userSpaceOnUse" alignment="0 0" imageRepeat="None" />
    <mask fill="white" id="Clip19">
      <path d="M 28.833984375 21.125651041666668  C 29.13910590277778 20.820529513888886  29.291666666666664 20.459201388888886  29.291666666666664 20.041666666666668  L 29.291666666666664 16.958333333333336  C 29.291666666666664 16.540798611111107  29.13910590277778 16.179470486111107  28.833984375 15.874348958333334  C 28.528862847222225 15.569227430555557  28.167534722222225 15.416666666666666  27.75 15.416666666666666  L 21.583333333333336 15.416666666666666  L 21.583333333333336 9.25  C 21.583333333333336 8.832465277777775  21.430772569444446 8.471137152777775  21.125651041666664 8.166015625  C 20.820529513888893 7.860894097222221  20.459201388888893 7.708333333333335  20.041666666666664 7.708333333333335  L 16.958333333333332 7.708333333333335  C 16.540798611111114 7.708333333333335  16.179470486111114 7.860894097222221  15.874348958333332 8.166015625  C 15.569227430555557 8.471137152777775  15.416666666666668 8.832465277777775  15.416666666666668 9.25  L 15.416666666666668 15.416666666666666  L 9.25 15.416666666666666  C 8.832465277777779 15.416666666666666  8.471137152777779 15.569227430555557  8.166015625 15.874348958333334  C 7.860894097222223 16.179470486111107  7.708333333333334 16.540798611111107  7.708333333333334 16.958333333333336  L 7.708333333333334 20.041666666666668  C 7.708333333333334 20.459201388888886  7.860894097222223 20.820529513888886  8.166015625 21.125651041666668  C 8.471137152777779 21.430772569444443  8.832465277777779 21.583333333333332  9.25 21.583333333333332  L 15.416666666666668 21.583333333333332  L 15.416666666666668 27.75  C 15.416666666666668 28.16753472222222  15.569227430555557 28.52886284722222  15.874348958333332 28.833984375  C 16.179470486111114 29.13910590277778  16.540798611111114 29.291666666666664  16.958333333333332 29.291666666666664  L 20.041666666666664 29.291666666666664  C 20.459201388888893 29.291666666666664  20.820529513888893 29.13910590277778  21.125651041666664 28.833984375  C 21.430772569444446 28.52886284722222  21.583333333333336 28.16753472222222  21.583333333333336 27.75  L 21.583333333333336 21.583333333333332  L 27.75 21.583333333333332  C 28.167534722222225 21.583333333333332  28.528862847222225 21.430772569444443  28.833984375 21.125651041666668  Z M 34.518880208333336 9.2138671875  C 36.17296006944444 12.048285590277775  37 15.14366319444444  37 18.5  C 37 21.856336805555557  36.17296006944444 24.951714409722218  34.518880208333336 27.7861328125  C 32.86480034722223 30.62055121527778  30.62055121527778 32.86480034722222  27.7861328125 34.518880208333336  C 24.951714409722225 36.17296006944445  21.856336805555557 37  18.5 37  C 15.143663194444446 37  12.048285590277779 36.17296006944445  9.2138671875 34.518880208333336  C 6.379448784722223 32.86480034722222  4.135199652777779 30.62055121527778  2.481119791666667 27.7861328125  C 0.8270399305555555 24.951714409722218  0 21.856336805555557  0 18.5  C 0 15.14366319444444  0.8270399305555555 12.048285590277775  2.481119791666667 9.2138671875  C 4.135199652777779 6.379448784722221  6.379448784722223 4.135199652777774  9.2138671875 2.481119791666665  C 12.048285590277779 0.8270399305555524  15.143663194444446 0  18.5 0  C 21.856336805555557 0  24.951714409722225 0.8270399305555524  27.7861328125 2.481119791666665  C 30.62055121527778 4.135199652777774  32.86480034722223 6.379448784722221  34.518880208333336 9.2138671875  Z " fill-rule="evenodd" />
    </mask>
  </defs>
  <g transform="matrix(1 0 0 1 -162 -497 )">
    <path d="M 28.833984375 21.125651041666668  C 29.13910590277778 20.820529513888886  29.291666666666664 20.459201388888886  29.291666666666664 20.041666666666668  L 29.291666666666664 16.958333333333336  C 29.291666666666664 16.540798611111107  29.13910590277778 16.179470486111107  28.833984375 15.874348958333334  C 28.528862847222225 15.569227430555557  28.167534722222225 15.416666666666666  27.75 15.416666666666666  L 21.583333333333336 15.416666666666666  L 21.583333333333336 9.25  C 21.583333333333336 8.832465277777775  21.430772569444446 8.471137152777775  21.125651041666664 8.166015625  C 20.820529513888893 7.860894097222221  20.459201388888893 7.708333333333335  20.041666666666664 7.708333333333335  L 16.958333333333332 7.708333333333335  C 16.540798611111114 7.708333333333335  16.179470486111114 7.860894097222221  15.874348958333332 8.166015625  C 15.569227430555557 8.471137152777775  15.416666666666668 8.832465277777775  15.416666666666668 9.25  L 15.416666666666668 15.416666666666666  L 9.25 15.416666666666666  C 8.832465277777779 15.416666666666666  8.471137152777779 15.569227430555557  8.166015625 15.874348958333334  C 7.860894097222223 16.179470486111107  7.708333333333334 16.540798611111107  7.708333333333334 16.958333333333336  L 7.708333333333334 20.041666666666668  C 7.708333333333334 20.459201388888886  7.860894097222223 20.820529513888886  8.166015625 21.125651041666668  C 8.471137152777779 21.430772569444443  8.832465277777779 21.583333333333332  9.25 21.583333333333332  L 15.416666666666668 21.583333333333332  L 15.416666666666668 27.75  C 15.416666666666668 28.16753472222222  15.569227430555557 28.52886284722222  15.874348958333332 28.833984375  C 16.179470486111114 29.13910590277778  16.540798611111114 29.291666666666664  16.958333333333332 29.291666666666664  L 20.041666666666664 29.291666666666664  C 20.459201388888893 29.291666666666664  20.820529513888893 29.13910590277778  21.125651041666664 28.833984375  C 21.430772569444446 28.52886284722222  21.583333333333336 28.16753472222222  21.583333333333336 27.75  L 21.583333333333336 21.583333333333332  L 27.75 21.583333333333332  C 28.167534722222225 21.583333333333332  28.528862847222225 21.430772569444443  28.833984375 21.125651041666668  Z M 34.518880208333336 9.2138671875  C 36.17296006944444 12.048285590277775  37 15.14366319444444  37 18.5  C 37 21.856336805555557  36.17296006944444 24.951714409722218  34.518880208333336 27.7861328125  C 32.86480034722223 30.62055121527778  30.62055121527778 32.86480034722222  27.7861328125 34.518880208333336  C 24.951714409722225 36.17296006944445  21.856336805555557 37  18.5 37  C 15.143663194444446 37  12.048285590277779 36.17296006944445  9.2138671875 34.518880208333336  C 6.379448784722223 32.86480034722222  4.135199652777779 30.62055121527778  2.481119791666667 27.7861328125  C 0.8270399305555555 24.951714409722218  0 21.856336805555557  0 18.5  C 0 15.14366319444444  0.8270399305555555 12.048285590277775  2.481119791666667 9.2138671875  C 4.135199652777779 6.379448784722221  6.379448784722223 4.135199652777774  9.2138671875 2.481119791666665  C 12.048285590277779 0.8270399305555524  15.143663194444446 0  18.5 0  C 21.856336805555557 0  24.951714409722225 0.8270399305555524  27.7861328125 2.481119791666665  C 30.62055121527778 4.135199652777774  32.86480034722223 6.379448784722221  34.518880208333336 9.2138671875  Z " fill-rule="nonzero" fill="rgba(2, 167, 240, 1)" stroke="none" transform="matrix(1 0 0 1 162 497 )" class="fill" />
    <path d="M 28.833984375 21.125651041666668  C 29.13910590277778 20.820529513888886  29.291666666666664 20.459201388888886  29.291666666666664 20.041666666666668  L 29.291666666666664 16.958333333333336  C 29.291666666666664 16.540798611111107  29.13910590277778 16.179470486111107  28.833984375 15.874348958333334  C 28.528862847222225 15.569227430555557  28.167534722222225 15.416666666666666  27.75 15.416666666666666  L 21.583333333333336 15.416666666666666  L 21.583333333333336 9.25  C 21.583333333333336 8.832465277777775  21.430772569444446 8.471137152777775  21.125651041666664 8.166015625  C 20.820529513888893 7.860894097222221  20.459201388888893 7.708333333333335  20.041666666666664 7.708333333333335  L 16.958333333333332 7.708333333333335  C 16.540798611111114 7.708333333333335  16.179470486111114 7.860894097222221  15.874348958333332 8.166015625  C 15.569227430555557 8.471137152777775  15.416666666666668 8.832465277777775  15.416666666666668 9.25  L 15.416666666666668 15.416666666666666  L 9.25 15.416666666666666  C 8.832465277777779 15.416666666666666  8.471137152777779 15.569227430555557  8.166015625 15.874348958333334  C 7.860894097222223 16.179470486111107  7.708333333333334 16.540798611111107  7.708333333333334 16.958333333333336  L 7.708333333333334 20.041666666666668  C 7.708333333333334 20.459201388888886  7.860894097222223 20.820529513888886  8.166015625 21.125651041666668  C 8.471137152777779 21.430772569444443  8.832465277777779 21.583333333333332  9.25 21.583333333333332  L 15.416666666666668 21.583333333333332  L 15.416666666666668 27.75  C 15.416666666666668 28.16753472222222  15.569227430555557 28.52886284722222  15.874348958333332 28.833984375  C 16.179470486111114 29.13910590277778  16.540798611111114 29.291666666666664  16.958333333333332 29.291666666666664  L 20.041666666666664 29.291666666666664  C 20.459201388888893 29.291666666666664  20.820529513888893 29.13910590277778  21.125651041666664 28.833984375  C 21.430772569444446 28.52886284722222  21.583333333333336 28.16753472222222  21.583333333333336 27.75  L 21.583333333333336 21.583333333333332  L 27.75 21.583333333333332  C 28.167534722222225 21.583333333333332  28.528862847222225 21.430772569444443  28.833984375 21.125651041666668  Z " stroke-width="0" stroke-dasharray="0" stroke="rgba(255, 255, 255, 0)" fill="none" transform="matrix(1 0 0 1 162 497 )" class="stroke" mask="url(#Clip19)" />
    <path d="M 34.518880208333336 9.2138671875  C 36.17296006944444 12.048285590277775  37 15.14366319444444  37 18.5  C 37 21.856336805555557  36.17296006944444 24.951714409722218  34.518880208333336 27.7861328125  C 32.86480034722223 30.62055121527778  30.62055121527778 32.86480034722222  27.7861328125 34.518880208333336  C 24.951714409722225 36.17296006944445  21.856336805555557 37  18.5 37  C 15.143663194444446 37  12.048285590277779 36.17296006944445  9.2138671875 34.518880208333336  C 6.379448784722223 32.86480034722222  4.135199652777779 30.62055121527778  2.481119791666667 27.7861328125  C 0.8270399305555555 24.951714409722218  0 21.856336805555557  0 18.5  C 0 15.14366319444444  0.8270399305555555 12.048285590277775  2.481119791666667 9.2138671875  C 4.135199652777779 6.379448784722221  6.379448784722223 4.135199652777774  9.2138671875 2.481119791666665  C 12.048285590277779 0.8270399305555524  15.143663194444446 0  18.5 0  C 21.856336805555557 0  24.951714409722225 0.8270399305555524  27.7861328125 2.481119791666665  C 30.62055121527778 4.135199652777774  32.86480034722223 6.379448784722221  34.518880208333336 9.2138671875  Z " stroke-width="0" stroke-dasharray="0" stroke="rgba(255, 255, 255, 0)" fill="none" transform="matrix(1 0 0 1 162 497 )" class="stroke" mask="url(#Clip19)" />
  </g>
</svg>