<?xml version="1.0" encoding="utf-8"?>
<svg version="1.1" xmlns:xlink="http://www.w3.org/1999/xlink" width="19px" height="16px" xmlns="http://www.w3.org/2000/svg">
  <defs>
    <pattern id="BGPattern" patternUnits="userSpaceOnUse" alignment="0 0" imageRepeat="None" />
    <mask fill="white" id="Clip31">
      <path d="M 1.357142857142857 8  C 2.5375744047619047 10.047619047619047  4.046688988095238 11.535714285714285  5.884486607142858 12.464285714285715  L 6.711495535714286 10.785714285714285  C 6.096540178571428 10.285714285714285  5.615885416666667 9.654761904761905  5.26953125 8.892857142857142  C 4.923177083333334 8.130952380952381  4.75 7.325396825396824  4.75 6.476190476190476  C 4.75 5.515873015873016  4.965587797619048 4.623015873015872  5.396763392857142 3.7976190476190474  C 3.7780877976190483 4.726190476190476  2.4315476190476195 6.1269841269841265  1.357142857142857 8  Z M 9.860491071428571 3.833333333333334  C 9.959449404761905 3.7222222222222197  10.008928571428571 3.587301587301587  10.008928571428571 3.428571428571429  C 10.008928571428571 3.269841269841269  9.959449404761905 3.1349206349206344  9.860491071428571 3.0238095238095237  C 9.761532738095239 2.9126984126984112  9.641369047619047 2.8571428571428577  9.5 2.8571428571428577  C 8.616443452380953 2.8571428571428577  7.85835193452381 3.212301587301587  7.225725446428572 3.9226190476190474  C 6.593098958333334 4.632936507936508  6.276785714285714 5.484126984126984  6.276785714285714 6.476190476190476  C 6.276785714285714 6.634920634920634  6.326264880952382 6.769841269841269  6.425223214285714 6.880952380952381  C 6.524181547619048 6.99206349206349  6.644345238095239 7.0476190476190474  6.785714285714286 7.0476190476190474  C 6.927083333333334 7.0476190476190474  7.047247023809525 6.99206349206349  7.146205357142858 6.880952380952381  C 7.245163690476191 6.769841269841269  7.294642857142858 6.634920634920634  7.294642857142858 6.476190476190476  C 7.294642857142858 5.793650793650793  7.510230654761905 5.2103174603174605  7.94140625 4.726190476190476  C 8.372581845238097 4.24206349206349  8.892113095238097 3.9999999999999982  9.5 4  C 9.641369047619047 3.9999999999999982  9.761532738095239 3.944444444444443  9.860491071428571 3.833333333333334  Z M 13.688058035714285 0.8333333333333339  C 13.801153273809526 0.9126984126984112  13.857700892857144 1.0198412698412689  13.857700892857144 1.154761904761905  C 13.857700892857144 1.2103174603174587  13.854166666666668 1.2460317460317434  13.847098214285715 1.2619047619047628  C 13.097842261904765 2.7619047619047628  11.981026785714285 5.011904761904763  10.496651785714285 8.011904761904763  C 9.012276785714286 11.011904761904763  7.8989955357142865 13.25793650793651  7.156808035714286 14.75  L 6.637276785714286 15.80952380952381  C 6.566592261904763 15.936507936507937  6.467633928571428 16  6.340401785714286 16  C 6.255580357142858 16  5.781994047619048 15.722222222222223  4.919642857142858 15.166666666666666  C 4.8065476190476195 15.087301587301587  4.75 14.976190476190476  4.75 14.833333333333334  C 4.75 14.738095238095237  4.9055059523809526 14.392857142857142  5.216517857142858 13.797619047619047  C 4.205729166666667 13.281746031746032  3.274460565476191 12.595238095238095  2.422712053571429 11.738095238095237  C 1.5709635416666667 10.880952380952381  0.8340773809523812 9.908730158730158  0.21205357142857142 8.821428571428571  C 0.07068452380952381 8.575396825396824  0 8.3015873015873  0 8  C 0 7.698412698412698  0.07068452380952381 7.424603174603174  0.21205357142857142 7.178571428571429  C 1.2935267857142858 5.313492063492063  2.636532738095238 3.84126984126984  4.241071428571429 2.7619047619047628  C 5.8456101190476195 1.682539682539682  7.59858630952381 1.1428571428571423  9.5 1.1428571428571423  C 10.129092261904763 1.1428571428571423  10.765252976190478 1.2103174603174587  11.408482142857144 1.345238095238095  L 11.981026785714285 0.1904761904761898  C 12.05171130952381 0.06349206349206327  12.150669642857144 0  12.277901785714285 0  C 12.31324404761905 0  12.37686011904762 0.023809523809523725  12.46875 0.07142857142857117  C 12.560639880952381 0.11904761904761862  12.670200892857144 0.18055555555555358  12.797433035714285 0.2559523809523814  C 12.924665178571429 0.3313492063492056  13.041294642857144 0.4047619047619051  13.147321428571429 0.4761904761904763  C 13.253348214285715 0.5476190476190474  13.364676339285715 0.6210317460317434  13.481305803571429 0.6964285714285712  C 13.597935267857144 0.7718253968253954  13.666852678571429 0.8174603174603163  13.688058035714285 0.8333333333333339  Z M 14.165178571428571 5.476190476190476  C 14.221726190476193 5.833333333333334  14.25 6.166666666666666  14.25 6.476190476190476  C 14.25 7.579365079365079  13.970796130952381 8.585317460317459  13.412388392857144 9.494047619047619  C 12.853980654761905 10.402777777777777  12.115327380952381 11.055555555555554  11.196428571428571 11.452380952380953  L 14.165178571428571 5.476190476190476  Z M 18.787946428571427 7.178571428571429  C 18.929315476190478 7.448412698412698  19 7.722222222222221  19 8  C 19 8.277777777777777  18.929315476190478 8.5515873015873  18.787946428571427 8.821428571428571  C 18.512276785714285 9.329365079365077  18.12704613095238 9.904761904761905  17.632254464285715 10.547619047619047  C 16.571986607142858 11.912698412698415  15.343843005952381 12.972222222222223  13.947823660714285 13.726190476190476  C 12.551804315476193 14.48015873015873  11.069196428571429 14.857142857142858  9.5 14.857142857142858  L 10.284598214285715 13.285714285714285  C 11.78311011904762 13.142857142857142  13.170293898809526 12.599206349206348  14.446149553571429 11.654761904761905  C 15.722005208333334 10.710317460317459  16.787574404761905 9.49206349206349  17.642857142857142 8  C 16.82998511904762 6.579365079365079  15.833333333333334 5.412698412698413  14.652901785714285 4.5  L 15.320870535714285 3.166666666666666  C 15.992373511904765 3.674603174603172  16.637369791666668 4.28174603174603  17.255859375 4.988095238095237  C 17.874348958333336 5.694444444444443  18.385044642857142 6.424603174603174  18.787946428571427 7.178571428571429  Z " fill-rule="evenodd" />
    </mask>
  </defs>
  <g transform="matrix(1 0 0 1 -268 -189 )">
    <path d="M 1.357142857142857 8  C 2.5375744047619047 10.047619047619047  4.046688988095238 11.535714285714285  5.884486607142858 12.464285714285715  L 6.711495535714286 10.785714285714285  C 6.096540178571428 10.285714285714285  5.615885416666667 9.654761904761905  5.26953125 8.892857142857142  C 4.923177083333334 8.130952380952381  4.75 7.325396825396824  4.75 6.476190476190476  C 4.75 5.515873015873016  4.965587797619048 4.623015873015872  5.396763392857142 3.7976190476190474  C 3.7780877976190483 4.726190476190476  2.4315476190476195 6.1269841269841265  1.357142857142857 8  Z M 9.860491071428571 3.833333333333334  C 9.959449404761905 3.7222222222222197  10.008928571428571 3.587301587301587  10.008928571428571 3.428571428571429  C 10.008928571428571 3.269841269841269  9.959449404761905 3.1349206349206344  9.860491071428571 3.0238095238095237  C 9.761532738095239 2.9126984126984112  9.641369047619047 2.8571428571428577  9.5 2.8571428571428577  C 8.616443452380953 2.8571428571428577  7.85835193452381 3.212301587301587  7.225725446428572 3.9226190476190474  C 6.593098958333334 4.632936507936508  6.276785714285714 5.484126984126984  6.276785714285714 6.476190476190476  C 6.276785714285714 6.634920634920634  6.326264880952382 6.769841269841269  6.425223214285714 6.880952380952381  C 6.524181547619048 6.99206349206349  6.644345238095239 7.0476190476190474  6.785714285714286 7.0476190476190474  C 6.927083333333334 7.0476190476190474  7.047247023809525 6.99206349206349  7.146205357142858 6.880952380952381  C 7.245163690476191 6.769841269841269  7.294642857142858 6.634920634920634  7.294642857142858 6.476190476190476  C 7.294642857142858 5.793650793650793  7.510230654761905 5.2103174603174605  7.94140625 4.726190476190476  C 8.372581845238097 4.24206349206349  8.892113095238097 3.9999999999999982  9.5 4  C 9.641369047619047 3.9999999999999982  9.761532738095239 3.944444444444443  9.860491071428571 3.833333333333334  Z M 13.688058035714285 0.8333333333333339  C 13.801153273809526 0.9126984126984112  13.857700892857144 1.0198412698412689  13.857700892857144 1.154761904761905  C 13.857700892857144 1.2103174603174587  13.854166666666668 1.2460317460317434  13.847098214285715 1.2619047619047628  C 13.097842261904765 2.7619047619047628  11.981026785714285 5.011904761904763  10.496651785714285 8.011904761904763  C 9.012276785714286 11.011904761904763  7.8989955357142865 13.25793650793651  7.156808035714286 14.75  L 6.637276785714286 15.80952380952381  C 6.566592261904763 15.936507936507937  6.467633928571428 16  6.340401785714286 16  C 6.255580357142858 16  5.781994047619048 15.722222222222223  4.919642857142858 15.166666666666666  C 4.8065476190476195 15.087301587301587  4.75 14.976190476190476  4.75 14.833333333333334  C 4.75 14.738095238095237  4.9055059523809526 14.392857142857142  5.216517857142858 13.797619047619047  C 4.205729166666667 13.281746031746032  3.274460565476191 12.595238095238095  2.422712053571429 11.738095238095237  C 1.5709635416666667 10.880952380952381  0.8340773809523812 9.908730158730158  0.21205357142857142 8.821428571428571  C 0.07068452380952381 8.575396825396824  0 8.3015873015873  0 8  C 0 7.698412698412698  0.07068452380952381 7.424603174603174  0.21205357142857142 7.178571428571429  C 1.2935267857142858 5.313492063492063  2.636532738095238 3.84126984126984  4.241071428571429 2.7619047619047628  C 5.8456101190476195 1.682539682539682  7.59858630952381 1.1428571428571423  9.5 1.1428571428571423  C 10.129092261904763 1.1428571428571423  10.765252976190478 1.2103174603174587  11.408482142857144 1.345238095238095  L 11.981026785714285 0.1904761904761898  C 12.05171130952381 0.06349206349206327  12.150669642857144 0  12.277901785714285 0  C 12.31324404761905 0  12.37686011904762 0.023809523809523725  12.46875 0.07142857142857117  C 12.560639880952381 0.11904761904761862  12.670200892857144 0.18055555555555358  12.797433035714285 0.2559523809523814  C 12.924665178571429 0.3313492063492056  13.041294642857144 0.4047619047619051  13.147321428571429 0.4761904761904763  C 13.253348214285715 0.5476190476190474  13.364676339285715 0.6210317460317434  13.481305803571429 0.6964285714285712  C 13.597935267857144 0.7718253968253954  13.666852678571429 0.8174603174603163  13.688058035714285 0.8333333333333339  Z M 14.165178571428571 5.476190476190476  C 14.221726190476193 5.833333333333334  14.25 6.166666666666666  14.25 6.476190476190476  C 14.25 7.579365079365079  13.970796130952381 8.585317460317459  13.412388392857144 9.494047619047619  C 12.853980654761905 10.402777777777777  12.115327380952381 11.055555555555554  11.196428571428571 11.452380952380953  L 14.165178571428571 5.476190476190476  Z M 18.787946428571427 7.178571428571429  C 18.929315476190478 7.448412698412698  19 7.722222222222221  19 8  C 19 8.277777777777777  18.929315476190478 8.5515873015873  18.787946428571427 8.821428571428571  C 18.512276785714285 9.329365079365077  18.12704613095238 9.904761904761905  17.632254464285715 10.547619047619047  C 16.571986607142858 11.912698412698415  15.343843005952381 12.972222222222223  13.947823660714285 13.726190476190476  C 12.551804315476193 14.48015873015873  11.069196428571429 14.857142857142858  9.5 14.857142857142858  L 10.284598214285715 13.285714285714285  C 11.78311011904762 13.142857142857142  13.170293898809526 12.599206349206348  14.446149553571429 11.654761904761905  C 15.722005208333334 10.710317460317459  16.787574404761905 9.49206349206349  17.642857142857142 8  C 16.82998511904762 6.579365079365079  15.833333333333334 5.412698412698413  14.652901785714285 4.5  L 15.320870535714285 3.166666666666666  C 15.992373511904765 3.674603174603172  16.637369791666668 4.28174603174603  17.255859375 4.988095238095237  C 17.874348958333336 5.694444444444443  18.385044642857142 6.424603174603174  18.787946428571427 7.178571428571429  Z " fill-rule="nonzero" fill="rgba(51, 51, 51, 1)" stroke="none" transform="matrix(1 0 0 1 268 189 )" class="fill" />
    <path d="M 1.357142857142857 8  C 2.5375744047619047 10.047619047619047  4.046688988095238 11.535714285714285  5.884486607142858 12.464285714285715  L 6.711495535714286 10.785714285714285  C 6.096540178571428 10.285714285714285  5.615885416666667 9.654761904761905  5.26953125 8.892857142857142  C 4.923177083333334 8.130952380952381  4.75 7.325396825396824  4.75 6.476190476190476  C 4.75 5.515873015873016  4.965587797619048 4.623015873015872  5.396763392857142 3.7976190476190474  C 3.7780877976190483 4.726190476190476  2.4315476190476195 6.1269841269841265  1.357142857142857 8  Z " stroke-width="0" stroke-dasharray="0" stroke="rgba(255, 255, 255, 0)" fill="none" transform="matrix(1 0 0 1 268 189 )" class="stroke" mask="url(#Clip31)" />
    <path d="M 9.860491071428571 3.833333333333334  C 9.959449404761905 3.7222222222222197  10.008928571428571 3.587301587301587  10.008928571428571 3.428571428571429  C 10.008928571428571 3.269841269841269  9.959449404761905 3.1349206349206344  9.860491071428571 3.0238095238095237  C 9.761532738095239 2.9126984126984112  9.641369047619047 2.8571428571428577  9.5 2.8571428571428577  C 8.616443452380953 2.8571428571428577  7.85835193452381 3.212301587301587  7.225725446428572 3.9226190476190474  C 6.593098958333334 4.632936507936508  6.276785714285714 5.484126984126984  6.276785714285714 6.476190476190476  C 6.276785714285714 6.634920634920634  6.326264880952382 6.769841269841269  6.425223214285714 6.880952380952381  C 6.524181547619048 6.99206349206349  6.644345238095239 7.0476190476190474  6.785714285714286 7.0476190476190474  C 6.927083333333334 7.0476190476190474  7.047247023809525 6.99206349206349  7.146205357142858 6.880952380952381  C 7.245163690476191 6.769841269841269  7.294642857142858 6.634920634920634  7.294642857142858 6.476190476190476  C 7.294642857142858 5.793650793650793  7.510230654761905 5.2103174603174605  7.94140625 4.726190476190476  C 8.372581845238097 4.24206349206349  8.892113095238097 3.9999999999999982  9.5 4  C 9.641369047619047 3.9999999999999982  9.761532738095239 3.944444444444443  9.860491071428571 3.833333333333334  Z " stroke-width="0" stroke-dasharray="0" stroke="rgba(255, 255, 255, 0)" fill="none" transform="matrix(1 0 0 1 268 189 )" class="stroke" mask="url(#Clip31)" />
    <path d="M 13.688058035714285 0.8333333333333339  C 13.801153273809526 0.9126984126984112  13.857700892857144 1.0198412698412689  13.857700892857144 1.154761904761905  C 13.857700892857144 1.2103174603174587  13.854166666666668 1.2460317460317434  13.847098214285715 1.2619047619047628  C 13.097842261904765 2.7619047619047628  11.981026785714285 5.011904761904763  10.496651785714285 8.011904761904763  C 9.012276785714286 11.011904761904763  7.8989955357142865 13.25793650793651  7.156808035714286 14.75  L 6.637276785714286 15.80952380952381  C 6.566592261904763 15.936507936507937  6.467633928571428 16  6.340401785714286 16  C 6.255580357142858 16  5.781994047619048 15.722222222222223  4.919642857142858 15.166666666666666  C 4.8065476190476195 15.087301587301587  4.75 14.976190476190476  4.75 14.833333333333334  C 4.75 14.738095238095237  4.9055059523809526 14.392857142857142  5.216517857142858 13.797619047619047  C 4.205729166666667 13.281746031746032  3.274460565476191 12.595238095238095  2.422712053571429 11.738095238095237  C 1.5709635416666667 10.880952380952381  0.8340773809523812 9.908730158730158  0.21205357142857142 8.821428571428571  C 0.07068452380952381 8.575396825396824  0 8.3015873015873  0 8  C 0 7.698412698412698  0.07068452380952381 7.424603174603174  0.21205357142857142 7.178571428571429  C 1.2935267857142858 5.313492063492063  2.636532738095238 3.84126984126984  4.241071428571429 2.7619047619047628  C 5.8456101190476195 1.682539682539682  7.59858630952381 1.1428571428571423  9.5 1.1428571428571423  C 10.129092261904763 1.1428571428571423  10.765252976190478 1.2103174603174587  11.408482142857144 1.345238095238095  L 11.981026785714285 0.1904761904761898  C 12.05171130952381 0.06349206349206327  12.150669642857144 0  12.277901785714285 0  C 12.31324404761905 0  12.37686011904762 0.023809523809523725  12.46875 0.07142857142857117  C 12.560639880952381 0.11904761904761862  12.670200892857144 0.18055555555555358  12.797433035714285 0.2559523809523814  C 12.924665178571429 0.3313492063492056  13.041294642857144 0.4047619047619051  13.147321428571429 0.4761904761904763  C 13.253348214285715 0.5476190476190474  13.364676339285715 0.6210317460317434  13.481305803571429 0.6964285714285712  C 13.597935267857144 0.7718253968253954  13.666852678571429 0.8174603174603163  13.688058035714285 0.8333333333333339  Z " stroke-width="0" stroke-dasharray="0" stroke="rgba(255, 255, 255, 0)" fill="none" transform="matrix(1 0 0 1 268 189 )" class="stroke" mask="url(#Clip31)" />
    <path d="M 14.165178571428571 5.476190476190476  C 14.221726190476193 5.833333333333334  14.25 6.166666666666666  14.25 6.476190476190476  C 14.25 7.579365079365079  13.970796130952381 8.585317460317459  13.412388392857144 9.494047619047619  C 12.853980654761905 10.402777777777777  12.115327380952381 11.055555555555554  11.196428571428571 11.452380952380953  L 14.165178571428571 5.476190476190476  Z " stroke-width="0" stroke-dasharray="0" stroke="rgba(255, 255, 255, 0)" fill="none" transform="matrix(1 0 0 1 268 189 )" class="stroke" mask="url(#Clip31)" />
    <path d="M 18.787946428571427 7.178571428571429  C 18.929315476190478 7.448412698412698  19 7.722222222222221  19 8  C 19 8.277777777777777  18.929315476190478 8.5515873015873  18.787946428571427 8.821428571428571  C 18.512276785714285 9.329365079365077  18.12704613095238 9.904761904761905  17.632254464285715 10.547619047619047  C 16.571986607142858 11.912698412698415  15.343843005952381 12.972222222222223  13.947823660714285 13.726190476190476  C 12.551804315476193 14.48015873015873  11.069196428571429 14.857142857142858  9.5 14.857142857142858  L 10.284598214285715 13.285714285714285  C 11.78311011904762 13.142857142857142  13.170293898809526 12.599206349206348  14.446149553571429 11.654761904761905  C 15.722005208333334 10.710317460317459  16.787574404761905 9.49206349206349  17.642857142857142 8  C 16.82998511904762 6.579365079365079  15.833333333333334 5.412698412698413  14.652901785714285 4.5  L 15.320870535714285 3.166666666666666  C 15.992373511904765 3.674603174603172  16.637369791666668 4.28174603174603  17.255859375 4.988095238095237  C 17.874348958333336 5.694444444444443  18.385044642857142 6.424603174603174  18.787946428571427 7.178571428571429  Z " stroke-width="0" stroke-dasharray="0" stroke="rgba(255, 255, 255, 0)" fill="none" transform="matrix(1 0 0 1 268 189 )" class="stroke" mask="url(#Clip31)" />
  </g>
</svg>