<?xml version="1.0" encoding="utf-8"?>
<svg version="1.1" xmlns:xlink="http://www.w3.org/1999/xlink" width="28px" height="30px" xmlns="http://www.w3.org/2000/svg">
  <defs>
    <pattern id="BGPattern" patternUnits="userSpaceOnUse" alignment="0 0" imageRepeat="None" />
    <mask fill="white" id="Clip22">
      <path d="M 19.5625 26.392299107142858  C 21.28125 25.41573660714286  22.692708333333336 24.090401785714285  23.796875 22.416294642857142  C 23.567708333333336 20.686383928571427  23.111979166666668 19.249441964285715  22.4296875 18.10546875  C 21.747395833333336 16.961495535714285  20.786458333333336 16.30022321428571  19.546875 16.121651785714285  C 18.848958333333336 16.94754464285714  18.018229166666668 17.59207589285714  17.0546875 18.055245535714285  C 16.091145833333336 18.518415178571427  15.072916666666668 18.75  14 18.75  C 12.927083333333334 18.75  11.908854166666668 18.518415178571427  10.9453125 18.055245535714285  C 9.981770833333334 17.59207589285714  9.151041666666668 16.94754464285714  8.453125 16.121651785714285  C 7.213541666666666 16.30022321428571  6.252604166666667 16.961495535714285  5.5703125 18.10546875  C 4.888020833333334 19.249441964285715  4.432291666666667 20.686383928571427  4.203125 22.416294642857142  C 5.307291666666667 24.090401785714285  6.71875 25.41573660714286  8.4375 26.392299107142858  C 10.15625 27.368861607142854  12.010416666666668 27.857142857142858  14 27.857142857142858  C 15.989583333333336 27.857142857142858  17.84375 27.368861607142854  19.5625 26.392299107142858  Z M 18.2421875 15.259486607142858  C 19.4140625 14.00390625  20 12.488839285714286  20 10.714285714285714  C 20 8.939732142857142  19.4140625 7.424665178571429  18.2421875 6.169084821428571  C 17.0703125 4.913504464285713  15.65625 4.285714285714287  14 4.285714285714287  C 12.34375 4.285714285714287  10.9296875 4.913504464285713  9.7578125 6.169084821428571  C 8.5859375 7.424665178571429  8 8.939732142857142  8 10.714285714285714  C 8 12.488839285714286  8.5859375 14.00390625  9.7578125 15.259486607142858  C 10.9296875 16.515066964285715  12.34375 17.142857142857142  14 17.142857142857142  C 15.65625 17.142857142857142  17.0703125 16.515066964285715  18.2421875 15.259486607142858  Z M 26.890625 9.174107142857142  C 27.630208333333336 11.026785714285712  28 12.968749999999998  28 15  C 28 17.031249999999996  27.630208333333336 18.970424107142854  26.890625 20.81752232142857  C 26.15104166666667 22.664620535714285  25.15885416666667 24.260602678571427  23.9140625 25.60546875  C 22.669270833333336 26.95033482142857  21.182291666666668 28.018973214285715  19.453125 28.81138392857143  C 17.723958333333336 29.603794642857142  15.906249999999998 30  14 30  C 12.104166666666668 30  10.291666666666668 29.603794642857142  8.5625 28.81138392857143  C 6.833333333333334 28.018973214285715  5.34375 26.953125  4.09375 25.613839285714285  C 2.84375 24.27455357142857  1.8489583333333335 22.678571428571427  1.109375 20.825892857142858  C 0.36979166666666663 18.973214285714285  0 17.031249999999996  0 15  C 0 12.968749999999998  0.36979166666666663 11.026785714285712  1.109375 9.174107142857142  C 1.8489583333333335 7.3214285714285685  2.84375 5.725446428571429  4.09375 4.386160714285713  C 5.34375 3.046875  6.833333333333334 1.981026785714285  8.5625 1.188616071428571  C 10.291666666666668 0.396205357142857  12.104166666666668 0  14 0  C 15.895833333333334 0  17.708333333333336 0.396205357142857  19.4375 1.188616071428571  C 21.166666666666668 1.981026785714285  22.65625 3.046875  23.90625 4.386160714285713  C 25.156250000000004 5.725446428571429  26.15104166666667 7.3214285714285685  26.890625 9.174107142857142  Z " fill-rule="evenodd" />
    </mask>
  </defs>
  <g transform="matrix(1 0 0 1 -308 -313 )">
    <path d="M 19.5625 26.392299107142858  C 21.28125 25.41573660714286  22.692708333333336 24.090401785714285  23.796875 22.416294642857142  C 23.567708333333336 20.686383928571427  23.111979166666668 19.249441964285715  22.4296875 18.10546875  C 21.747395833333336 16.961495535714285  20.786458333333336 16.30022321428571  19.546875 16.121651785714285  C 18.848958333333336 16.94754464285714  18.018229166666668 17.59207589285714  17.0546875 18.055245535714285  C 16.091145833333336 18.518415178571427  15.072916666666668 18.75  14 18.75  C 12.927083333333334 18.75  11.908854166666668 18.518415178571427  10.9453125 18.055245535714285  C 9.981770833333334 17.59207589285714  9.151041666666668 16.94754464285714  8.453125 16.121651785714285  C 7.213541666666666 16.30022321428571  6.252604166666667 16.961495535714285  5.5703125 18.10546875  C 4.888020833333334 19.249441964285715  4.432291666666667 20.686383928571427  4.203125 22.416294642857142  C 5.307291666666667 24.090401785714285  6.71875 25.41573660714286  8.4375 26.392299107142858  C 10.15625 27.368861607142854  12.010416666666668 27.857142857142858  14 27.857142857142858  C 15.989583333333336 27.857142857142858  17.84375 27.368861607142854  19.5625 26.392299107142858  Z M 18.2421875 15.259486607142858  C 19.4140625 14.00390625  20 12.488839285714286  20 10.714285714285714  C 20 8.939732142857142  19.4140625 7.424665178571429  18.2421875 6.169084821428571  C 17.0703125 4.913504464285713  15.65625 4.285714285714287  14 4.285714285714287  C 12.34375 4.285714285714287  10.9296875 4.913504464285713  9.7578125 6.169084821428571  C 8.5859375 7.424665178571429  8 8.939732142857142  8 10.714285714285714  C 8 12.488839285714286  8.5859375 14.00390625  9.7578125 15.259486607142858  C 10.9296875 16.515066964285715  12.34375 17.142857142857142  14 17.142857142857142  C 15.65625 17.142857142857142  17.0703125 16.515066964285715  18.2421875 15.259486607142858  Z M 26.890625 9.174107142857142  C 27.630208333333336 11.026785714285712  28 12.968749999999998  28 15  C 28 17.031249999999996  27.630208333333336 18.970424107142854  26.890625 20.81752232142857  C 26.15104166666667 22.664620535714285  25.15885416666667 24.260602678571427  23.9140625 25.60546875  C 22.669270833333336 26.95033482142857  21.182291666666668 28.018973214285715  19.453125 28.81138392857143  C 17.723958333333336 29.603794642857142  15.906249999999998 30  14 30  C 12.104166666666668 30  10.291666666666668 29.603794642857142  8.5625 28.81138392857143  C 6.833333333333334 28.018973214285715  5.34375 26.953125  4.09375 25.613839285714285  C 2.84375 24.27455357142857  1.8489583333333335 22.678571428571427  1.109375 20.825892857142858  C 0.36979166666666663 18.973214285714285  0 17.031249999999996  0 15  C 0 12.968749999999998  0.36979166666666663 11.026785714285712  1.109375 9.174107142857142  C 1.8489583333333335 7.3214285714285685  2.84375 5.725446428571429  4.09375 4.386160714285713  C 5.34375 3.046875  6.833333333333334 1.981026785714285  8.5625 1.188616071428571  C 10.291666666666668 0.396205357142857  12.104166666666668 0  14 0  C 15.895833333333334 0  17.708333333333336 0.396205357142857  19.4375 1.188616071428571  C 21.166666666666668 1.981026785714285  22.65625 3.046875  23.90625 4.386160714285713  C 25.156250000000004 5.725446428571429  26.15104166666667 7.3214285714285685  26.890625 9.174107142857142  Z " fill-rule="nonzero" fill="rgba(2, 167, 240, 1)" stroke="none" transform="matrix(1 0 0 1 308 313 )" class="fill" />
    <path d="M 19.5625 26.392299107142858  C 21.28125 25.41573660714286  22.692708333333336 24.090401785714285  23.796875 22.416294642857142  C 23.567708333333336 20.686383928571427  23.111979166666668 19.249441964285715  22.4296875 18.10546875  C 21.747395833333336 16.961495535714285  20.786458333333336 16.30022321428571  19.546875 16.121651785714285  C 18.848958333333336 16.94754464285714  18.018229166666668 17.59207589285714  17.0546875 18.055245535714285  C 16.091145833333336 18.518415178571427  15.072916666666668 18.75  14 18.75  C 12.927083333333334 18.75  11.908854166666668 18.518415178571427  10.9453125 18.055245535714285  C 9.981770833333334 17.59207589285714  9.151041666666668 16.94754464285714  8.453125 16.121651785714285  C 7.213541666666666 16.30022321428571  6.252604166666667 16.961495535714285  5.5703125 18.10546875  C 4.888020833333334 19.249441964285715  4.432291666666667 20.686383928571427  4.203125 22.416294642857142  C 5.307291666666667 24.090401785714285  6.71875 25.41573660714286  8.4375 26.392299107142858  C 10.15625 27.368861607142854  12.010416666666668 27.857142857142858  14 27.857142857142858  C 15.989583333333336 27.857142857142858  17.84375 27.368861607142854  19.5625 26.392299107142858  Z " stroke-width="0" stroke-dasharray="0" stroke="rgba(255, 255, 255, 0)" fill="none" transform="matrix(1 0 0 1 308 313 )" class="stroke" mask="url(#Clip22)" />
    <path d="M 18.2421875 15.259486607142858  C 19.4140625 14.00390625  20 12.488839285714286  20 10.714285714285714  C 20 8.939732142857142  19.4140625 7.424665178571429  18.2421875 6.169084821428571  C 17.0703125 4.913504464285713  15.65625 4.285714285714287  14 4.285714285714287  C 12.34375 4.285714285714287  10.9296875 4.913504464285713  9.7578125 6.169084821428571  C 8.5859375 7.424665178571429  8 8.939732142857142  8 10.714285714285714  C 8 12.488839285714286  8.5859375 14.00390625  9.7578125 15.259486607142858  C 10.9296875 16.515066964285715  12.34375 17.142857142857142  14 17.142857142857142  C 15.65625 17.142857142857142  17.0703125 16.515066964285715  18.2421875 15.259486607142858  Z " stroke-width="0" stroke-dasharray="0" stroke="rgba(255, 255, 255, 0)" fill="none" transform="matrix(1 0 0 1 308 313 )" class="stroke" mask="url(#Clip22)" />
    <path d="M 26.890625 9.174107142857142  C 27.630208333333336 11.026785714285712  28 12.968749999999998  28 15  C 28 17.031249999999996  27.630208333333336 18.970424107142854  26.890625 20.81752232142857  C 26.15104166666667 22.664620535714285  25.15885416666667 24.260602678571427  23.9140625 25.60546875  C 22.669270833333336 26.95033482142857  21.182291666666668 28.018973214285715  19.453125 28.81138392857143  C 17.723958333333336 29.603794642857142  15.906249999999998 30  14 30  C 12.104166666666668 30  10.291666666666668 29.603794642857142  8.5625 28.81138392857143  C 6.833333333333334 28.018973214285715  5.34375 26.953125  4.09375 25.613839285714285  C 2.84375 24.27455357142857  1.8489583333333335 22.678571428571427  1.109375 20.825892857142858  C 0.36979166666666663 18.973214285714285  0 17.031249999999996  0 15  C 0 12.968749999999998  0.36979166666666663 11.026785714285712  1.109375 9.174107142857142  C 1.8489583333333335 7.3214285714285685  2.84375 5.725446428571429  4.09375 4.386160714285713  C 5.34375 3.046875  6.833333333333334 1.981026785714285  8.5625 1.188616071428571  C 10.291666666666668 0.396205357142857  12.104166666666668 0  14 0  C 15.895833333333334 0  17.708333333333336 0.396205357142857  19.4375 1.188616071428571  C 21.166666666666668 1.981026785714285  22.65625 3.046875  23.90625 4.386160714285713  C 25.156250000000004 5.725446428571429  26.15104166666667 7.3214285714285685  26.890625 9.174107142857142  Z " stroke-width="0" stroke-dasharray="0" stroke="rgba(255, 255, 255, 0)" fill="none" transform="matrix(1 0 0 1 308 313 )" class="stroke" mask="url(#Clip22)" />
  </g>
</svg>