<?xml version="1.0" encoding="utf-8"?>
<svg version="1.1" xmlns:xlink="http://www.w3.org/1999/xlink" width="25px" height="28px" xmlns="http://www.w3.org/2000/svg">
  <defs>
    <pattern id="BGPattern" patternUnits="userSpaceOnUse" alignment="0 0" imageRepeat="None" />
    <mask fill="white" id="Clip23">
      <path d="M 24.107640825432235 0  C 24.293548986800523 0  24.460866332031976 0.05729166666666918  24.609592861126604 0.17187500000000133  C 24.916341327384277 0.42187500000000044  25.04182933630787 0.7552083333333326  24.98605688789738 1.1718750000000009  L 21.416620189626325 25.171875  C 21.370143149284253 25.473958333333332  21.221416620189625 25.708333333333332  20.970440602342443 25.875  C 20.840304889384644 25.958333333333332  20.696226064324225 26  20.538204127161183 26  C 20.435954638408628 26  20.324409741587658 25.973958333333332  20.20356943669827 25.921875  L 13.88733965421082 23.03125  L 10.513106525376465 27.640625  C 10.345789180145008 27.880208333333332  10.118051682468861 28  9.82989403234802 28  C 9.709053727458636 28  9.60680423870608 27.979166666666668  9.523145566090353 27.9375  C 9.346532812790482 27.864583333333332  9.204777839747166 27.7421875  9.097880646960402 27.5703125  C 8.990983454173639 27.3984375  8.937534857780257 27.208333333333332  8.937534857780257 27  L 8.937534857780257 21.546875  L 20.984383714445066 5.000000000000001  L 6.079196876742889 19.453125  L 0.5716675962074735 16.921875  C 0.22773749767614798 16.776041666666664  0.04182933630786392 16.489583333333332  0.013943112102621306 16.0625  C -0.004647704034207103 15.645833333333332  0.14407882506042013 15.338541666666668  0.4601226993865031 15.140625000000002  L 23.661461238148355 0.1406249999999991  C 23.80089235917457 0.04687499999999867  23.949618888269196 0  24.107640825432235 0  Z " fill-rule="evenodd" />
    </mask>
  </defs>
  <g transform="matrix(1 0 0 1 -291 -558 )">
    <path d="M 24.107640825432235 0  C 24.293548986800523 0  24.460866332031976 0.05729166666666918  24.609592861126604 0.17187500000000133  C 24.916341327384277 0.42187500000000044  25.04182933630787 0.7552083333333326  24.98605688789738 1.1718750000000009  L 21.416620189626325 25.171875  C 21.370143149284253 25.473958333333332  21.221416620189625 25.708333333333332  20.970440602342443 25.875  C 20.840304889384644 25.958333333333332  20.696226064324225 26  20.538204127161183 26  C 20.435954638408628 26  20.324409741587658 25.973958333333332  20.20356943669827 25.921875  L 13.88733965421082 23.03125  L 10.513106525376465 27.640625  C 10.345789180145008 27.880208333333332  10.118051682468861 28  9.82989403234802 28  C 9.709053727458636 28  9.60680423870608 27.979166666666668  9.523145566090353 27.9375  C 9.346532812790482 27.864583333333332  9.204777839747166 27.7421875  9.097880646960402 27.5703125  C 8.990983454173639 27.3984375  8.937534857780257 27.208333333333332  8.937534857780257 27  L 8.937534857780257 21.546875  L 20.984383714445066 5.000000000000001  L 6.079196876742889 19.453125  L 0.5716675962074735 16.921875  C 0.22773749767614798 16.776041666666664  0.04182933630786392 16.489583333333332  0.013943112102621306 16.0625  C -0.004647704034207103 15.645833333333332  0.14407882506042013 15.338541666666668  0.4601226993865031 15.140625000000002  L 23.661461238148355 0.1406249999999991  C 23.80089235917457 0.04687499999999867  23.949618888269196 0  24.107640825432235 0  Z " fill-rule="nonzero" fill="rgba(2, 167, 240, 1)" stroke="none" transform="matrix(1 0 0 1 291 558 )" class="fill" />
    <path d="M 24.107640825432235 0  C 24.293548986800523 0  24.460866332031976 0.05729166666666918  24.609592861126604 0.17187500000000133  C 24.916341327384277 0.42187500000000044  25.04182933630787 0.7552083333333326  24.98605688789738 1.1718750000000009  L 21.416620189626325 25.171875  C 21.370143149284253 25.473958333333332  21.221416620189625 25.708333333333332  20.970440602342443 25.875  C 20.840304889384644 25.958333333333332  20.696226064324225 26  20.538204127161183 26  C 20.435954638408628 26  20.324409741587658 25.973958333333332  20.20356943669827 25.921875  L 13.88733965421082 23.03125  L 10.513106525376465 27.640625  C 10.345789180145008 27.880208333333332  10.118051682468861 28  9.82989403234802 28  C 9.709053727458636 28  9.60680423870608 27.979166666666668  9.523145566090353 27.9375  C 9.346532812790482 27.864583333333332  9.204777839747166 27.7421875  9.097880646960402 27.5703125  C 8.990983454173639 27.3984375  8.937534857780257 27.208333333333332  8.937534857780257 27  L 8.937534857780257 21.546875  L 20.984383714445066 5.000000000000001  L 6.079196876742889 19.453125  L 0.5716675962074735 16.921875  C 0.22773749767614798 16.776041666666664  0.04182933630786392 16.489583333333332  0.013943112102621306 16.0625  C -0.004647704034207103 15.645833333333332  0.14407882506042013 15.338541666666668  0.4601226993865031 15.140625000000002  L 23.661461238148355 0.1406249999999991  C 23.80089235917457 0.04687499999999867  23.949618888269196 0  24.107640825432235 0  Z " stroke-width="0" stroke-dasharray="0" stroke="rgba(255, 255, 255, 0)" fill="none" transform="matrix(1 0 0 1 291 558 )" class="stroke" mask="url(#Clip23)" />
  </g>
</svg>