<?xml version="1.0" encoding="utf-8"?>
<svg version="1.1" xmlns:xlink="http://www.w3.org/1999/xlink" width="23px" height="39px" xmlns="http://www.w3.org/2000/svg">
  <defs>
    <pattern id="BGPattern" patternUnits="userSpaceOnUse" alignment="0 0" imageRepeat="None" />
    <mask fill="white" id="Clip1">
      <path d="M 13.192057291666668 36.821484375  C 13.661241319444446 36.344140625  13.895833333333332 35.7703125  13.895833333333332 35.1  C 13.895833333333332 34.4296875  13.661241319444446 33.855859375  13.192057291666668 33.378515625  C 12.72287326388889 32.901171874999996  12.158854166666668 32.6625  11.5 32.6625  C 10.841145833333334 32.6625  10.277126736111112 32.901171874999996  9.807942708333334 33.378515625  C 9.338758680555557 33.855859375  9.104166666666666 34.4296875  9.104166666666666 35.1  C 9.104166666666666 35.7703125  9.338758680555557 36.344140625  9.807942708333334 36.821484375  C 10.277126736111112 37.298828125  10.841145833333334 37.5375  11.5 37.5375  C 12.158854166666668 37.5375  12.72287326388889 37.298828125  13.192057291666668 36.821484375  Z M 19.840494791666668 30.910546875  C 20.030164930555557 30.717578124999996  20.125 30.489062499999996  20 30.225  L 20 8.774999999999999  C 20.125 8.510937499999997  20.030164930555557 8.282421874999997  19.840494791666668 8.089453124999999  C 19.650824652777782 7.896484374999997  19.426215277777782 7.799999999999998  19.166666666666668 8  L 3.833333333333333 8  C 3.5737847222222223 7.799999999999998  3.3491753472222223 7.896484374999997  3.159505208333333 8.089453124999999  C 2.9698350694444438 8.282421874999997  2.875 8.510937499999997  3 8.774999999999999  L 3 30.225  C 2.875 30.489062499999996  2.9698350694444438 30.717578124999996  3.159505208333333 30.910546875  C 3.3491753472222223 31.103515625  3.5737847222222223 31.200000000000003  3.833333333333333 31  L 19.166666666666668 31  C 19.426215277777782 31.200000000000003  19.650824652777782 31.103515625  19.840494791666668 30.910546875  Z M 13.895833333333332 4.875  C 14.21527777777778 4.875  14.375000000000002 4.712499999999996  14.375 4.387500000000002  C 14.375000000000002 4.062499999999998  14.21527777777778 3.899999999999999  13.895833333333332 3.899999999999999  L 9.104166666666666 3.899999999999999  C 8.784722222222223 3.899999999999999  8.625 4.062499999999998  8.625 4.387500000000002  C 8.625 4.712499999999996  8.784722222222223 4.875  9.104166666666666 4.875  L 13.895833333333332 4.875  Z M 21.861979166666668 1.157812499999999  C 22.620659722222218 1.9296874999999987  23 2.8437499999999987  23 3.899999999999999  L 23 35.1  C 23 36.15625  22.620659722222218 37.0703125  21.861979166666668 37.8421875  C 21.103298611111114 38.614062499999996  20.204861111111114 39  19.166666666666668 39  L 3.833333333333333 39  C 2.7951388888888893 39  1.8967013888888888 38.614062499999996  1.1380208333333333 37.8421875  C 0.3793402777777778 37.0703125  0 36.15625  0 35.1  L 0 3.899999999999999  C 0 2.8437499999999987  0.3793402777777778 1.9296874999999987  1.1380208333333333 1.157812499999999  C 1.8967013888888888 0.3859374999999954  2.7951388888888893 0  3.833333333333333 0  L 19.166666666666668 0  C 20.204861111111114 0  21.103298611111114 0.3859374999999954  21.861979166666668 1.157812499999999  Z " fill-rule="evenodd" />
    </mask>
  </defs>
  <g transform="matrix(1 0 0 1 -45 -255 )">
    <path d="M 13.192057291666668 36.821484375  C 13.661241319444446 36.344140625  13.895833333333332 35.7703125  13.895833333333332 35.1  C 13.895833333333332 34.4296875  13.661241319444446 33.855859375  13.192057291666668 33.378515625  C 12.72287326388889 32.901171874999996  12.158854166666668 32.6625  11.5 32.6625  C 10.841145833333334 32.6625  10.277126736111112 32.901171874999996  9.807942708333334 33.378515625  C 9.338758680555557 33.855859375  9.104166666666666 34.4296875  9.104166666666666 35.1  C 9.104166666666666 35.7703125  9.338758680555557 36.344140625  9.807942708333334 36.821484375  C 10.277126736111112 37.298828125  10.841145833333334 37.5375  11.5 37.5375  C 12.158854166666668 37.5375  12.72287326388889 37.298828125  13.192057291666668 36.821484375  Z M 19.840494791666668 30.910546875  C 20.030164930555557 30.717578124999996  20.125 30.489062499999996  20 30.225  L 20 8.774999999999999  C 20.125 8.510937499999997  20.030164930555557 8.282421874999997  19.840494791666668 8.089453124999999  C 19.650824652777782 7.896484374999997  19.426215277777782 7.799999999999998  19.166666666666668 8  L 3.833333333333333 8  C 3.5737847222222223 7.799999999999998  3.3491753472222223 7.896484374999997  3.159505208333333 8.089453124999999  C 2.9698350694444438 8.282421874999997  2.875 8.510937499999997  3 8.774999999999999  L 3 30.225  C 2.875 30.489062499999996  2.9698350694444438 30.717578124999996  3.159505208333333 30.910546875  C 3.3491753472222223 31.103515625  3.5737847222222223 31.200000000000003  3.833333333333333 31  L 19.166666666666668 31  C 19.426215277777782 31.200000000000003  19.650824652777782 31.103515625  19.840494791666668 30.910546875  Z M 13.895833333333332 4.875  C 14.21527777777778 4.875  14.375000000000002 4.712499999999996  14.375 4.387500000000002  C 14.375000000000002 4.062499999999998  14.21527777777778 3.899999999999999  13.895833333333332 3.899999999999999  L 9.104166666666666 3.899999999999999  C 8.784722222222223 3.899999999999999  8.625 4.062499999999998  8.625 4.387500000000002  C 8.625 4.712499999999996  8.784722222222223 4.875  9.104166666666666 4.875  L 13.895833333333332 4.875  Z M 21.861979166666668 1.157812499999999  C 22.620659722222218 1.9296874999999987  23 2.8437499999999987  23 3.899999999999999  L 23 35.1  C 23 36.15625  22.620659722222218 37.0703125  21.861979166666668 37.8421875  C 21.103298611111114 38.614062499999996  20.204861111111114 39  19.166666666666668 39  L 3.833333333333333 39  C 2.7951388888888893 39  1.8967013888888888 38.614062499999996  1.1380208333333333 37.8421875  C 0.3793402777777778 37.0703125  0 36.15625  0 35.1  L 0 3.899999999999999  C 0 2.8437499999999987  0.3793402777777778 1.9296874999999987  1.1380208333333333 1.157812499999999  C 1.8967013888888888 0.3859374999999954  2.7951388888888893 0  3.833333333333333 0  L 19.166666666666668 0  C 20.204861111111114 0  21.103298611111114 0.3859374999999954  21.861979166666668 1.157812499999999  Z " fill-rule="nonzero" fill="rgba(85, 85, 85, 1)" stroke="none" transform="matrix(1 0 0 1 45 255 )" class="fill" />
    <path d="M 13.192057291666668 36.821484375  C 13.661241319444446 36.344140625  13.895833333333332 35.7703125  13.895833333333332 35.1  C 13.895833333333332 34.4296875  13.661241319444446 33.855859375  13.192057291666668 33.378515625  C 12.72287326388889 32.901171874999996  12.158854166666668 32.6625  11.5 32.6625  C 10.841145833333334 32.6625  10.277126736111112 32.901171874999996  9.807942708333334 33.378515625  C 9.338758680555557 33.855859375  9.104166666666666 34.4296875  9.104166666666666 35.1  C 9.104166666666666 35.7703125  9.338758680555557 36.344140625  9.807942708333334 36.821484375  C 10.277126736111112 37.298828125  10.841145833333334 37.5375  11.5 37.5375  C 12.158854166666668 37.5375  12.72287326388889 37.298828125  13.192057291666668 36.821484375  Z " stroke-width="0" stroke-dasharray="0" stroke="rgba(255, 255, 255, 0)" fill="none" transform="matrix(1 0 0 1 45 255 )" class="stroke" mask="url(#Clip1)" />
    <path d="M 19.840494791666668 30.910546875  C 20.030164930555557 30.717578124999996  20.125 30.489062499999996  20 30.225  L 20 8.774999999999999  C 20.125 8.510937499999997  20.030164930555557 8.282421874999997  19.840494791666668 8.089453124999999  C 19.650824652777782 7.896484374999997  19.426215277777782 7.799999999999998  19.166666666666668 8  L 3.833333333333333 8  C 3.5737847222222223 7.799999999999998  3.3491753472222223 7.896484374999997  3.159505208333333 8.089453124999999  C 2.9698350694444438 8.282421874999997  2.875 8.510937499999997  3 8.774999999999999  L 3 30.225  C 2.875 30.489062499999996  2.9698350694444438 30.717578124999996  3.159505208333333 30.910546875  C 3.3491753472222223 31.103515625  3.5737847222222223 31.200000000000003  3.833333333333333 31  L 19.166666666666668 31  C 19.426215277777782 31.200000000000003  19.650824652777782 31.103515625  19.840494791666668 30.910546875  Z " stroke-width="0" stroke-dasharray="0" stroke="rgba(255, 255, 255, 0)" fill="none" transform="matrix(1 0 0 1 45 255 )" class="stroke" mask="url(#Clip1)" />
    <path d="M 13.895833333333332 4.875  C 14.21527777777778 4.875  14.375000000000002 4.712499999999996  14.375 4.387500000000002  C 14.375000000000002 4.062499999999998  14.21527777777778 3.899999999999999  13.895833333333332 3.899999999999999  L 9.104166666666666 3.899999999999999  C 8.784722222222223 3.899999999999999  8.625 4.062499999999998  8.625 4.387500000000002  C 8.625 4.712499999999996  8.784722222222223 4.875  9.104166666666666 4.875  L 13.895833333333332 4.875  Z " stroke-width="0" stroke-dasharray="0" stroke="rgba(255, 255, 255, 0)" fill="none" transform="matrix(1 0 0 1 45 255 )" class="stroke" mask="url(#Clip1)" />
    <path d="M 21.861979166666668 1.157812499999999  C 22.620659722222218 1.9296874999999987  23 2.8437499999999987  23 3.899999999999999  L 23 35.1  C 23 36.15625  22.620659722222218 37.0703125  21.861979166666668 37.8421875  C 21.103298611111114 38.614062499999996  20.204861111111114 39  19.166666666666668 39  L 3.833333333333333 39  C 2.7951388888888893 39  1.8967013888888888 38.614062499999996  1.1380208333333333 37.8421875  C 0.3793402777777778 37.0703125  0 36.15625  0 35.1  L 0 3.899999999999999  C 0 2.8437499999999987  0.3793402777777778 1.9296874999999987  1.1380208333333333 1.157812499999999  C 1.8967013888888888 0.3859374999999954  2.7951388888888893 0  3.833333333333333 0  L 19.166666666666668 0  C 20.204861111111114 0  21.103298611111114 0.3859374999999954  21.861979166666668 1.157812499999999  Z " stroke-width="0" stroke-dasharray="0" stroke="rgba(255, 255, 255, 0)" fill="none" transform="matrix(1 0 0 1 45 255 )" class="stroke" mask="url(#Clip1)" />
  </g>
</svg>