<?xml version="1.0" encoding="utf-8"?>
<svg version="1.1" xmlns:xlink="http://www.w3.org/1999/xlink" width="23px" height="32px" xmlns="http://www.w3.org/2000/svg">
  <defs>
    <pattern id="BGPattern" patternUnits="userSpaceOnUse" alignment="0 0" imageRepeat="None" />
    <mask fill="white" id="Clip2">
      <path d="M 6.388888888888889 10.181818181818183  L 6.388888888888889 15  L 16.61111111111111 15  L 16.61111111111111 10.181818181818183  C 16.61111111111111 8.575757575757574  16.111979166666668 7.204545454545453  15.113715277777779 6.068181818181817  C 14.11545138888889 4.931818181818183  12.910879629629632 4.363636363636363  11.5 4.363636363636363  C 10.08912037037037 4.363636363636363  8.88454861111111 4.931818181818183  7.886284722222221 6.068181818181817  C 6.888020833333334 7.204545454545453  6.388888888888889 8.575757575757574  6.388888888888889 10.181818181818183  Z M 22.44097222222222 15.181818181818183  C 22.81365740740741 15.606060606060606  23 16.121212121212118  23 16.727272727272727  L 23 29.81818181818182  C 23 30.424242424242426  22.81365740740741 30.939393939393938  22.44097222222222 31.363636363636363  C 22.06828703703704 31.78787878787879  21.61574074074074 32  21.083333333333332 32  L 1.9166666666666665 32  C 1.3842592592592595 32  0.9317129629629631 31.78787878787879  0.5590277777777778 31.363636363636363  C 0.1863425925925926 30.939393939393938  0 30.424242424242426  0 29.81818181818182  L 0 16.727272727272727  C 0 16.121212121212118  0.1863425925925926 15.606060606060606  0.5590277777777778 15.181818181818183  C 0.9317129629629631 14.757575757575758  1.3842592592592595 14.545454545454547  1.9166666666666665 14.545454545454547  L 2.5555555555555554 14.545454545454547  L 2.5555555555555554 10.181818181818183  C 2.5555555555555554 7.393939393939391  3.4340277777777777 5  5.190972222222222 3  C 6.947916666666666 1  9.050925925925927 0  11.5 0  C 13.949074074074074 0  16.052083333333332 1  17.80902777777778 3  C 19.56597222222222 5  20.444444444444443 7.393939393939391  20.444444444444443 10.181818181818183  L 20.444444444444443 14.545454545454547  L 21.083333333333332 14.545454545454547  C 21.61574074074074 14.545454545454547  22.06828703703704 14.757575757575758  22.44097222222222 15.181818181818183  Z " fill-rule="evenodd" />
    </mask>
  </defs>
  <g transform="matrix(1 0 0 1 -45 -344 )">
    <path d="M 6.388888888888889 10.181818181818183  L 6.388888888888889 15  L 16.61111111111111 15  L 16.61111111111111 10.181818181818183  C 16.61111111111111 8.575757575757574  16.111979166666668 7.204545454545453  15.113715277777779 6.068181818181817  C 14.11545138888889 4.931818181818183  12.910879629629632 4.363636363636363  11.5 4.363636363636363  C 10.08912037037037 4.363636363636363  8.88454861111111 4.931818181818183  7.886284722222221 6.068181818181817  C 6.888020833333334 7.204545454545453  6.388888888888889 8.575757575757574  6.388888888888889 10.181818181818183  Z M 22.44097222222222 15.181818181818183  C 22.81365740740741 15.606060606060606  23 16.121212121212118  23 16.727272727272727  L 23 29.81818181818182  C 23 30.424242424242426  22.81365740740741 30.939393939393938  22.44097222222222 31.363636363636363  C 22.06828703703704 31.78787878787879  21.61574074074074 32  21.083333333333332 32  L 1.9166666666666665 32  C 1.3842592592592595 32  0.9317129629629631 31.78787878787879  0.5590277777777778 31.363636363636363  C 0.1863425925925926 30.939393939393938  0 30.424242424242426  0 29.81818181818182  L 0 16.727272727272727  C 0 16.121212121212118  0.1863425925925926 15.606060606060606  0.5590277777777778 15.181818181818183  C 0.9317129629629631 14.757575757575758  1.3842592592592595 14.545454545454547  1.9166666666666665 14.545454545454547  L 2.5555555555555554 14.545454545454547  L 2.5555555555555554 10.181818181818183  C 2.5555555555555554 7.393939393939391  3.4340277777777777 5  5.190972222222222 3  C 6.947916666666666 1  9.050925925925927 0  11.5 0  C 13.949074074074074 0  16.052083333333332 1  17.80902777777778 3  C 19.56597222222222 5  20.444444444444443 7.393939393939391  20.444444444444443 10.181818181818183  L 20.444444444444443 14.545454545454547  L 21.083333333333332 14.545454545454547  C 21.61574074074074 14.545454545454547  22.06828703703704 14.757575757575758  22.44097222222222 15.181818181818183  Z " fill-rule="nonzero" fill="rgba(85, 85, 85, 1)" stroke="none" transform="matrix(1 0 0 1 45 344 )" class="fill" />
    <path d="M 6.388888888888889 10.181818181818183  L 6.388888888888889 15  L 16.61111111111111 15  L 16.61111111111111 10.181818181818183  C 16.61111111111111 8.575757575757574  16.111979166666668 7.204545454545453  15.113715277777779 6.068181818181817  C 14.11545138888889 4.931818181818183  12.910879629629632 4.363636363636363  11.5 4.363636363636363  C 10.08912037037037 4.363636363636363  8.88454861111111 4.931818181818183  7.886284722222221 6.068181818181817  C 6.888020833333334 7.204545454545453  6.388888888888889 8.575757575757574  6.388888888888889 10.181818181818183  Z " stroke-width="0" stroke-dasharray="0" stroke="rgba(255, 255, 255, 0)" fill="none" transform="matrix(1 0 0 1 45 344 )" class="stroke" mask="url(#Clip2)" />
    <path d="M 22.44097222222222 15.181818181818183  C 22.81365740740741 15.606060606060606  23 16.121212121212118  23 16.727272727272727  L 23 29.81818181818182  C 23 30.424242424242426  22.81365740740741 30.939393939393938  22.44097222222222 31.363636363636363  C 22.06828703703704 31.78787878787879  21.61574074074074 32  21.083333333333332 32  L 1.9166666666666665 32  C 1.3842592592592595 32  0.9317129629629631 31.78787878787879  0.5590277777777778 31.363636363636363  C 0.1863425925925926 30.939393939393938  0 30.424242424242426  0 29.81818181818182  L 0 16.727272727272727  C 0 16.121212121212118  0.1863425925925926 15.606060606060606  0.5590277777777778 15.181818181818183  C 0.9317129629629631 14.757575757575758  1.3842592592592595 14.545454545454547  1.9166666666666665 14.545454545454547  L 2.5555555555555554 14.545454545454547  L 2.5555555555555554 10.181818181818183  C 2.5555555555555554 7.393939393939391  3.4340277777777777 5  5.190972222222222 3  C 6.947916666666666 1  9.050925925925927 0  11.5 0  C 13.949074074074074 0  16.052083333333332 1  17.80902777777778 3  C 19.56597222222222 5  20.444444444444443 7.393939393939391  20.444444444444443 10.181818181818183  L 20.444444444444443 14.545454545454547  L 21.083333333333332 14.545454545454547  C 21.61574074074074 14.545454545454547  22.06828703703704 14.757575757575758  22.44097222222222 15.181818181818183  Z " stroke-width="0" stroke-dasharray="0" stroke="rgba(255, 255, 255, 0)" fill="none" transform="matrix(1 0 0 1 45 344 )" class="stroke" mask="url(#Clip2)" />
  </g>
</svg>