<?xml version="1.0" encoding="utf-8"?>
<svg version="1.1" xmlns:xlink="http://www.w3.org/1999/xlink" width="27px" height="28px" xmlns="http://www.w3.org/2000/svg">
  <defs>
    <pattern id="BGPattern" patternUnits="userSpaceOnUse" alignment="0 0" imageRepeat="None" />
    <mask fill="white" id="Clip34">
      <path d="M 20.126953125 17.03515625  C 20.185546875000004 17.08984375  20.21484375 17.159722222222218  20.21484375 17.244791666666668  L 20.21484375 19.231770833333332  C 20.21484375 19.839409722222218  20.000976562500004 20.380208333333332  19.5732421875 20.854166666666668  C 19.145507812500004 21.328125  18.5947265625 21.695746527777775  17.9208984375 21.95703125  C 17.247070312500004 22.21831597222222  16.5556640625 22.415798611111114  15.8466796875 22.549479166666664  C 15.137695312500002 22.68315972222222  14.44921875 22.75  13.781249999999998 22.75  C 11.378906250000002 22.75  9.372070312500002 21.905381944444446  7.760742187499999 20.216145833333332  C 6.149414062500001 18.526909722222218  5.34375 16.424479166666668  5.34375 13.908854166666666  C 5.34375 11.441840277777779  6.140625000000001 9.381944444444443  7.734374999999999 7.729166666666666  C 9.328125000000002 6.0763888888888875  11.314453125 5.25  13.693359375000002 5.25  C 14.091796875 5.25  14.534179687500002 5.27734375  15.020507812499998 5.33203125  C 15.506835937500002 5.38671875  16.0517578125 5.49609375  16.6552734375 5.66015625  C 17.258789062500004 5.82421875  17.800781250000004 6.030815972222221  18.28125 6.279947916666666  C 18.761718750000004 6.529079861111109  19.166015625000004 6.872395833333334  19.494140625 7.309895833333334  C 19.822265625 7.747395833333334  19.986328125 8.239583333333334  19.986328125 8.786458333333334  L 19.986328125 10.7734375  C 19.986328125 10.967881944444441  19.892578125 11.065104166666666  19.705078125 11.065104166666666  L 17.630859375 11.065104166666666  C 17.443359375000004 11.065104166666666  17.349609375000004 10.967881944444441  17.349609375 10.7734375  L 17.349609375 9.497395833333334  C 17.349609375000004 8.974826388888888  16.9658203125 8.564670138888888  16.1982421875 8.266927083333334  C 15.430664062500002 7.969184027777775  14.624999999999998 7.8203125  13.781249999999998 7.8203125  C 12.140625000000002 7.8203125  10.8017578125 8.376302083333334  9.7646484375 9.48828125  C 8.7275390625 10.600260416666666  8.208984375 12.043402777777779  8.208984375 13.817708333333334  C 8.208984375 15.652777777777775  8.7451171875 17.168836805555557  9.8173828125 18.365885416666668  C 10.8896484375 19.562934027777775  12.2578125 20.161458333333332  13.921875 20.161458333333332  C 14.718750000000002 20.161458333333332  15.52734375 20.015625  16.34765625 19.723958333333332  C 17.167968750000004 19.432291666666668  17.578125 19.03125  17.578125 18.520833333333332  L 17.578125 17.244791666666668  C 17.578125 17.159722222222218  17.6044921875 17.08984375  17.6572265625 17.03515625  C 17.7099609375 16.98046875  17.771484375 16.953125  17.841796875 16.953125  L 19.93359375 16.953125  C 20.00390625 16.953125  20.068359375000004 16.98046875  20.126953125 17.03515625  Z M 17.8681640625 3.2630208333333344  C 16.4794921875 2.6432291666666656  15.023437500000002 2.3333333333333344  13.5 2.3333333333333344  C 11.9765625 2.3333333333333344  10.5205078125 2.6432291666666656  9.1318359375 3.2630208333333344  C 7.743164062500001 3.8828125  6.5478515625 4.712239583333334  5.5458984375 5.751302083333334  C 4.5439453125 6.790364583333334  3.744140625 8.029947916666666  3.146484375 9.470052083333334  C 2.548828125 10.91015625  2.25 12.420138888888888  2.25 14  C 2.25 15.579861111111112  2.548828125 17.08984375  3.146484375 18.529947916666668  C 3.744140625 19.970052083333332  4.5439453125 21.209635416666664  5.5458984375 22.248697916666664  C 6.5478515625 23.287760416666664  7.743164062500001 24.1171875  9.1318359375 24.736979166666664  C 10.5205078125 25.356770833333336  11.9765625 25.666666666666664  13.5 25.666666666666664  C 15.023437500000002 25.666666666666664  16.4794921875 25.356770833333336  17.8681640625 24.736979166666664  C 19.2568359375 24.1171875  20.4521484375 23.287760416666664  21.4541015625 22.248697916666664  C 22.4560546875 21.209635416666664  23.255859375 19.970052083333332  23.853515625 18.529947916666668  C 24.451171875 17.08984375  24.75 15.579861111111112  24.75 14  C 24.75 12.420138888888888  24.451171875 10.91015625  23.853515625 9.470052083333334  C 23.255859375 8.029947916666666  22.4560546875 6.790364583333334  21.4541015625 5.751302083333334  C 20.4521484375 4.712239583333334  19.2568359375 3.8828125  17.8681640625 3.2630208333333344  Z M 25.189453125 6.97265625  C 26.396484374999996 9.117621527777775  27 11.460069444444441  27 14  C 27 16.539930555555557  26.396484374999996 18.882378472222218  25.189453125 21.02734375  C 23.982421875000004 23.17230902777778  22.3447265625 24.87065972222222  20.2763671875 26.122395833333336  C 18.208007812500004 27.374131944444446  15.94921875 28  13.5 28  C 11.05078125 28  8.7919921875 27.374131944444446  6.7236328125 26.122395833333336  C 4.6552734375 24.87065972222222  3.0175781250000004 23.17230902777778  1.8105468750000002 21.02734375  C 0.6035156249999999 18.882378472222218  0 16.539930555555557  0 14  C 0 11.460069444444441  0.6035156249999999 9.117621527777775  1.8105468750000002 6.97265625  C 3.0175781250000004 4.827690972222221  4.6552734375 3.129340277777775  6.7236328125 1.8776041666666656  C 8.7919921875 0.6258680555555531  11.05078125 0  13.5 0  C 15.94921875 0  18.208007812500004 0.6258680555555531  20.2763671875 1.8776041666666656  C 22.3447265625 3.129340277777775  23.982421875000004 4.827690972222221  25.189453125 6.97265625  Z " fill-rule="evenodd" />
    </mask>
  </defs>
  <g transform="matrix(1 0 0 1 -167 -580 )">
    <path d="M 20.126953125 17.03515625  C 20.185546875000004 17.08984375  20.21484375 17.159722222222218  20.21484375 17.244791666666668  L 20.21484375 19.231770833333332  C 20.21484375 19.839409722222218  20.000976562500004 20.380208333333332  19.5732421875 20.854166666666668  C 19.145507812500004 21.328125  18.5947265625 21.695746527777775  17.9208984375 21.95703125  C 17.247070312500004 22.21831597222222  16.5556640625 22.415798611111114  15.8466796875 22.549479166666664  C 15.137695312500002 22.68315972222222  14.44921875 22.75  13.781249999999998 22.75  C 11.378906250000002 22.75  9.372070312500002 21.905381944444446  7.760742187499999 20.216145833333332  C 6.149414062500001 18.526909722222218  5.34375 16.424479166666668  5.34375 13.908854166666666  C 5.34375 11.441840277777779  6.140625000000001 9.381944444444443  7.734374999999999 7.729166666666666  C 9.328125000000002 6.0763888888888875  11.314453125 5.25  13.693359375000002 5.25  C 14.091796875 5.25  14.534179687500002 5.27734375  15.020507812499998 5.33203125  C 15.506835937500002 5.38671875  16.0517578125 5.49609375  16.6552734375 5.66015625  C 17.258789062500004 5.82421875  17.800781250000004 6.030815972222221  18.28125 6.279947916666666  C 18.761718750000004 6.529079861111109  19.166015625000004 6.872395833333334  19.494140625 7.309895833333334  C 19.822265625 7.747395833333334  19.986328125 8.239583333333334  19.986328125 8.786458333333334  L 19.986328125 10.7734375  C 19.986328125 10.967881944444441  19.892578125 11.065104166666666  19.705078125 11.065104166666666  L 17.630859375 11.065104166666666  C 17.443359375000004 11.065104166666666  17.349609375000004 10.967881944444441  17.349609375 10.7734375  L 17.349609375 9.497395833333334  C 17.349609375000004 8.974826388888888  16.9658203125 8.564670138888888  16.1982421875 8.266927083333334  C 15.430664062500002 7.969184027777775  14.624999999999998 7.8203125  13.781249999999998 7.8203125  C 12.140625000000002 7.8203125  10.8017578125 8.376302083333334  9.7646484375 9.48828125  C 8.7275390625 10.600260416666666  8.208984375 12.043402777777779  8.208984375 13.817708333333334  C 8.208984375 15.652777777777775  8.7451171875 17.168836805555557  9.8173828125 18.365885416666668  C 10.8896484375 19.562934027777775  12.2578125 20.161458333333332  13.921875 20.161458333333332  C 14.718750000000002 20.161458333333332  15.52734375 20.015625  16.34765625 19.723958333333332  C 17.167968750000004 19.432291666666668  17.578125 19.03125  17.578125 18.520833333333332  L 17.578125 17.244791666666668  C 17.578125 17.159722222222218  17.6044921875 17.08984375  17.6572265625 17.03515625  C 17.7099609375 16.98046875  17.771484375 16.953125  17.841796875 16.953125  L 19.93359375 16.953125  C 20.00390625 16.953125  20.068359375000004 16.98046875  20.126953125 17.03515625  Z M 17.8681640625 3.2630208333333344  C 16.4794921875 2.6432291666666656  15.023437500000002 2.3333333333333344  13.5 2.3333333333333344  C 11.9765625 2.3333333333333344  10.5205078125 2.6432291666666656  9.1318359375 3.2630208333333344  C 7.743164062500001 3.8828125  6.5478515625 4.712239583333334  5.5458984375 5.751302083333334  C 4.5439453125 6.790364583333334  3.744140625 8.029947916666666  3.146484375 9.470052083333334  C 2.548828125 10.91015625  2.25 12.420138888888888  2.25 14  C 2.25 15.579861111111112  2.548828125 17.08984375  3.146484375 18.529947916666668  C 3.744140625 19.970052083333332  4.5439453125 21.209635416666664  5.5458984375 22.248697916666664  C 6.5478515625 23.287760416666664  7.743164062500001 24.1171875  9.1318359375 24.736979166666664  C 10.5205078125 25.356770833333336  11.9765625 25.666666666666664  13.5 25.666666666666664  C 15.023437500000002 25.666666666666664  16.4794921875 25.356770833333336  17.8681640625 24.736979166666664  C 19.2568359375 24.1171875  20.4521484375 23.287760416666664  21.4541015625 22.248697916666664  C 22.4560546875 21.209635416666664  23.255859375 19.970052083333332  23.853515625 18.529947916666668  C 24.451171875 17.08984375  24.75 15.579861111111112  24.75 14  C 24.75 12.420138888888888  24.451171875 10.91015625  23.853515625 9.470052083333334  C 23.255859375 8.029947916666666  22.4560546875 6.790364583333334  21.4541015625 5.751302083333334  C 20.4521484375 4.712239583333334  19.2568359375 3.8828125  17.8681640625 3.2630208333333344  Z M 25.189453125 6.97265625  C 26.396484374999996 9.117621527777775  27 11.460069444444441  27 14  C 27 16.539930555555557  26.396484374999996 18.882378472222218  25.189453125 21.02734375  C 23.982421875000004 23.17230902777778  22.3447265625 24.87065972222222  20.2763671875 26.122395833333336  C 18.208007812500004 27.374131944444446  15.94921875 28  13.5 28  C 11.05078125 28  8.7919921875 27.374131944444446  6.7236328125 26.122395833333336  C 4.6552734375 24.87065972222222  3.0175781250000004 23.17230902777778  1.8105468750000002 21.02734375  C 0.6035156249999999 18.882378472222218  0 16.539930555555557  0 14  C 0 11.460069444444441  0.6035156249999999 9.117621527777775  1.8105468750000002 6.97265625  C 3.0175781250000004 4.827690972222221  4.6552734375 3.129340277777775  6.7236328125 1.8776041666666656  C 8.7919921875 0.6258680555555531  11.05078125 0  13.5 0  C 15.94921875 0  18.208007812500004 0.6258680555555531  20.2763671875 1.8776041666666656  C 22.3447265625 3.129340277777775  23.982421875000004 4.827690972222221  25.189453125 6.97265625  Z " fill-rule="nonzero" fill="rgba(0, 0, 0, 1)" stroke="none" transform="matrix(1 0 0 1 167 580 )" class="fill" />
    <path d="M 20.126953125 17.03515625  C 20.185546875000004 17.08984375  20.21484375 17.159722222222218  20.21484375 17.244791666666668  L 20.21484375 19.231770833333332  C 20.21484375 19.839409722222218  20.000976562500004 20.380208333333332  19.5732421875 20.854166666666668  C 19.145507812500004 21.328125  18.5947265625 21.695746527777775  17.9208984375 21.95703125  C 17.247070312500004 22.21831597222222  16.5556640625 22.415798611111114  15.8466796875 22.549479166666664  C 15.137695312500002 22.68315972222222  14.44921875 22.75  13.781249999999998 22.75  C 11.378906250000002 22.75  9.372070312500002 21.905381944444446  7.760742187499999 20.216145833333332  C 6.149414062500001 18.526909722222218  5.34375 16.424479166666668  5.34375 13.908854166666666  C 5.34375 11.441840277777779  6.140625000000001 9.381944444444443  7.734374999999999 7.729166666666666  C 9.328125000000002 6.0763888888888875  11.314453125 5.25  13.693359375000002 5.25  C 14.091796875 5.25  14.534179687500002 5.27734375  15.020507812499998 5.33203125  C 15.506835937500002 5.38671875  16.0517578125 5.49609375  16.6552734375 5.66015625  C 17.258789062500004 5.82421875  17.800781250000004 6.030815972222221  18.28125 6.279947916666666  C 18.761718750000004 6.529079861111109  19.166015625000004 6.872395833333334  19.494140625 7.309895833333334  C 19.822265625 7.747395833333334  19.986328125 8.239583333333334  19.986328125 8.786458333333334  L 19.986328125 10.7734375  C 19.986328125 10.967881944444441  19.892578125 11.065104166666666  19.705078125 11.065104166666666  L 17.630859375 11.065104166666666  C 17.443359375000004 11.065104166666666  17.349609375000004 10.967881944444441  17.349609375 10.7734375  L 17.349609375 9.497395833333334  C 17.349609375000004 8.974826388888888  16.9658203125 8.564670138888888  16.1982421875 8.266927083333334  C 15.430664062500002 7.969184027777775  14.624999999999998 7.8203125  13.781249999999998 7.8203125  C 12.140625000000002 7.8203125  10.8017578125 8.376302083333334  9.7646484375 9.48828125  C 8.7275390625 10.600260416666666  8.208984375 12.043402777777779  8.208984375 13.817708333333334  C 8.208984375 15.652777777777775  8.7451171875 17.168836805555557  9.8173828125 18.365885416666668  C 10.8896484375 19.562934027777775  12.2578125 20.161458333333332  13.921875 20.161458333333332  C 14.718750000000002 20.161458333333332  15.52734375 20.015625  16.34765625 19.723958333333332  C 17.167968750000004 19.432291666666668  17.578125 19.03125  17.578125 18.520833333333332  L 17.578125 17.244791666666668  C 17.578125 17.159722222222218  17.6044921875 17.08984375  17.6572265625 17.03515625  C 17.7099609375 16.98046875  17.771484375 16.953125  17.841796875 16.953125  L 19.93359375 16.953125  C 20.00390625 16.953125  20.068359375000004 16.98046875  20.126953125 17.03515625  Z " stroke-width="0" stroke-dasharray="0" stroke="rgba(255, 255, 255, 0)" fill="none" transform="matrix(1 0 0 1 167 580 )" class="stroke" mask="url(#Clip34)" />
    <path d="M 17.8681640625 3.2630208333333344  C 16.4794921875 2.6432291666666656  15.023437500000002 2.3333333333333344  13.5 2.3333333333333344  C 11.9765625 2.3333333333333344  10.5205078125 2.6432291666666656  9.1318359375 3.2630208333333344  C 7.743164062500001 3.8828125  6.5478515625 4.712239583333334  5.5458984375 5.751302083333334  C 4.5439453125 6.790364583333334  3.744140625 8.029947916666666  3.146484375 9.470052083333334  C 2.548828125 10.91015625  2.25 12.420138888888888  2.25 14  C 2.25 15.579861111111112  2.548828125 17.08984375  3.146484375 18.529947916666668  C 3.744140625 19.970052083333332  4.5439453125 21.209635416666664  5.5458984375 22.248697916666664  C 6.5478515625 23.287760416666664  7.743164062500001 24.1171875  9.1318359375 24.736979166666664  C 10.5205078125 25.356770833333336  11.9765625 25.666666666666664  13.5 25.666666666666664  C 15.023437500000002 25.666666666666664  16.4794921875 25.356770833333336  17.8681640625 24.736979166666664  C 19.2568359375 24.1171875  20.4521484375 23.287760416666664  21.4541015625 22.248697916666664  C 22.4560546875 21.209635416666664  23.255859375 19.970052083333332  23.853515625 18.529947916666668  C 24.451171875 17.08984375  24.75 15.579861111111112  24.75 14  C 24.75 12.420138888888888  24.451171875 10.91015625  23.853515625 9.470052083333334  C 23.255859375 8.029947916666666  22.4560546875 6.790364583333334  21.4541015625 5.751302083333334  C 20.4521484375 4.712239583333334  19.2568359375 3.8828125  17.8681640625 3.2630208333333344  Z " stroke-width="0" stroke-dasharray="0" stroke="rgba(255, 255, 255, 0)" fill="none" transform="matrix(1 0 0 1 167 580 )" class="stroke" mask="url(#Clip34)" />
    <path d="M 25.189453125 6.97265625  C 26.396484374999996 9.117621527777775  27 11.460069444444441  27 14  C 27 16.539930555555557  26.396484374999996 18.882378472222218  25.189453125 21.02734375  C 23.982421875000004 23.17230902777778  22.3447265625 24.87065972222222  20.2763671875 26.122395833333336  C 18.208007812500004 27.374131944444446  15.94921875 28  13.5 28  C 11.05078125 28  8.7919921875 27.374131944444446  6.7236328125 26.122395833333336  C 4.6552734375 24.87065972222222  3.0175781250000004 23.17230902777778  1.8105468750000002 21.02734375  C 0.6035156249999999 18.882378472222218  0 16.539930555555557  0 14  C 0 11.460069444444441  0.6035156249999999 9.117621527777775  1.8105468750000002 6.97265625  C 3.0175781250000004 4.827690972222221  4.6552734375 3.129340277777775  6.7236328125 1.8776041666666656  C 8.7919921875 0.6258680555555531  11.05078125 0  13.5 0  C 15.94921875 0  18.208007812500004 0.6258680555555531  20.2763671875 1.8776041666666656  C 22.3447265625 3.129340277777775  23.982421875000004 4.827690972222221  25.189453125 6.97265625  Z " stroke-width="0" stroke-dasharray="0" stroke="rgba(255, 255, 255, 0)" fill="none" transform="matrix(1 0 0 1 167 580 )" class="stroke" mask="url(#Clip34)" />
  </g>
</svg>